{
.appVersion = "1038";
copyright = "Copyright (c) 2011, Sebastian Kosch (sebastian@aldusleaf.org),\012with Reserved Font Name \"Crimson\".\012This Font Software is licensed under the SIL Open Font License, Version 1.1.\012This license is available with a FAQ at: http://scripts.sil.org/OFL";
customParameters = (
{
name = note;
value = "2011-9-20: Created.";
},
{
name = openTypeNameLicense;

glyphs = (
{
glyphname = A;
lastChange = "2017-07-12 19:24:35 +0000";
layers = (
{
layerId = "7ECBB128-A556-4919-8826-F9D641050EDE";
paths = (
{
closed = 1;
nodes = (
"95 136 CURVE SMOOTH",
"95 136 OFFCURVE",
"268 551 OFFCURVE",
"298 629 CURVE",
"304 643 OFFCURVE",
"325 662 OFFCURVE",
"335 662 CURVE SMOOTH",
"341 662 OFFCURVE",
"347 660 OFFCURVE",
"349 658 CURVE",
"553 137 LINE",
"567 103 OFFCURVE",
"575 80 OFFCURVE",
"580 68 CURVE SMOOTH",
"594 36 OFFCURVE",
"645 30 OFFCURVE",
"653 30 CURVE",
"658 22 OFFCURVE",
"657 0 OFFCURVE",
"655 -4 CURVE",
"615 -2 OFFCURVE",
"577 3 OFFCURVE",
"533 3 CURVE SMOOTH",
"487 3 OFFCURVE",
"441 -2 OFFCURVE",
"400 -4 CURVE",
"395 1 OFFCURVE",
"395 28 OFFCURVE",
"400 30 CURVE",
"414 30 OFFCURVE",
"446 35 OFFCURVE",
"458 45 CURVE SMOOTH",
"462 49 OFFCURVE",
"464 54 OFFCURVE",
"464 60 CURVE SMOOTH",
"464 80 OFFCURVE",
"401 234 OFFCURVE",
"401 234 CURVE",
"401 234 OFFCURVE",
"398 238 OFFCURVE",
"395 238 CURVE SMOOTH",
"363 240 OFFCURVE",
"321 238 OFFCURVE",
"296 238 CURVE SMOOTH",
"255 238 OFFCURVE",
"232 238 OFFCURVE",
"192 236 CURVE SMOOTH",
"190 236 OFFCURVE",
"186 233 OFFCURVE",
"186 232 CURVE",
"186 232 OFFCURVE",
"159 168 OFFCURVE",
"145 130 CURVE SMOOTH",
"134 100 OFFCURVE",
"127 70 OFFCURVE",
"127 60 CURVE SMOOTH",
"127 35 OFFCURVE",
"191 30 OFFCURVE",
"199 30 CURVE",
"203 25 OFFCURVE",
"202 1 OFFCURVE",
"200 -4 CURVE",
"162 -1 OFFCURVE",
"142 3 OFFCURVE",
"98 3 CURVE SMOOTH",
"52 3 OFFCURVE",
"31 -1 OFFCURVE",
"-9 -4 CURVE",
"-13 0 OFFCURVE",
"-13 20 OFFCURVE",
"-10 29 CURVE",
"2 29 OFFCURVE",
"44 40 OFFCURVE",
"54 54 CURVE SMOOTH",
"72 81 OFFCURVE",
"82 104 OFFCURVE"
);
},
{
closed = 1;
nodes = (
"295 506 LINE",
"207 290 LINE",
"207 290 OFFCURVE",
"207 286 OFFCURVE",
"209 286 CURVE SMOOTH",
"232 284 OFFCURVE",
"271 283 OFFCURVE",
"294 283 CURVE SMOOTH",
"325 283 OFFCURVE",
"345 284 OFFCURVE",
"376 286 CURVE SMOOTH",
"378 286 OFFCURVE",
"379 291 OFFCURVE",
"379 291 CURVE"
);
}
);
width = 653;
}
);
unicode = 0041;
userData = {
com.fontlab.hintData = {
hhints = (
{
position = -4;
width = 34;
},
{
position = 238;
width = 45;
},
{
position = 642;
width = 20;
}
);
};
};
},
{
glyphname = Aogonek;
lastChange = "2017-07-12 19:24:35 +0000";
layers = (
{
layerId = "7ECBB128-A556-4919-8826-F9D641050EDE";
paths = (
{
closed = 1;
nodes = (
"295 506 LINE",
"207 290 LINE",
"207 290 OFFCURVE",
"207 286 OFFCURVE",
"209 286 CURVE SMOOTH",
"232 284 OFFCURVE",
"271 283 OFFCURVE",
"294 283 CURVE SMOOTH",
"325 283 OFFCURVE",
"345 284 OFFCURVE",
"376 286 CURVE SMOOTH",
"378 286 OFFCURVE",
"379 291 OFFCURVE",
"379 291 CURVE"
);
},
{
closed = 1;
nodes = (
"655 -4 CURVE",
"642 -3 OFFCURVE",
"631 -2 OFFCURVE",
"616 -1 CURVE SMOOTH",
"550 4 OFFCURVE",
"483 -68 OFFCURVE",
"483 -112 CURVE SMOOTH",
"483 -130 OFFCURVE",
"492 -157 OFFCURVE",
"528 -157 CURVE SMOOTH",
"568 -157 OFFCURVE",
"598 -122 OFFCURVE",
"606 -118 CURVE SMOOTH",
"608 -118 OFFCURVE",
"611 -122 OFFCURVE",
"611 -130 CURVE SMOOTH",
"611 -135 OFFCURVE",
"608 -148 OFFCURVE",
"605 -152 CURVE SMOOTH",
"587 -176 OFFCURVE",
"541 -221 OFFCURVE",
"491 -221 CURVE SMOOTH",
"447 -221 OFFCURVE",
"419 -184 OFFCURVE",
"419 -144 CURVE SMOOTH",
"419 -92 OFFCURVE",
"484 -26 OFFCURVE",
"538 3 CURVE",
"536 3 OFFCURVE",
"535 3 OFFCURVE",
"533 3 CURVE SMOOTH",
"487 3 OFFCURVE",
"441 -2 OFFCURVE",
"400 -4 CURVE",
"395 1 OFFCURVE",
"395 28 OFFCURVE",
"400 30 CURVE",
"414 30 OFFCURVE",
"446 35 OFFCURVE",
"458 45 CURVE SMOOTH",
"462 49 OFFCURVE",
"464 54 OFFCURVE",
"464 60 CURVE SMOOTH",
"464 80 OFFCURVE",
"401 234 OFFCURVE",
"401 234 CURVE",
"401 234 OFFCURVE",
"398 238 OFFCURVE",
"395 238 CURVE SMOOTH",
"363 240 OFFCURVE",
"321 238 OFFCURVE",
"296 238 CURVE SMOOTH",
"255 238 OFFCURVE",
"232 238 OFFCURVE",
"192 236 CURVE SMOOTH",
"190 236 OFFCURVE",
"186 233 OFFCURVE",
"186 232 CURVE SMOOTH",
"186 232 OFFCURVE",
"159 168 OFFCURVE",
"145 130 CURVE SMOOTH",
"134 100 OFFCURVE",
"127 70 OFFCURVE",
"127 60 CURVE SMOOTH",
"127 35 OFFCURVE",
"191 30 OFFCURVE",
"199 30 CURVE",
"203 25 OFFCURVE",
"202 1 OFFCURVE",
"200 -4 CURVE",
"162 -1 OFFCURVE",
"142 3 OFFCURVE",
"98 3 CURVE SMOOTH",
"52 3 OFFCURVE",
"31 -1 OFFCURVE",
"-9 -4 CURVE",
"-13 0 OFFCURVE",
"-13 20 OFFCURVE",
"-10 29 CURVE",
"2 29 OFFCURVE",
"44 40 OFFCURVE",
"54 54 CURVE SMOOTH",
"72 81 OFFCURVE",
"82 104 OFFCURVE",
"95 136 CURVE SMOOTH",
"95 136 OFFCURVE",
"268 551 OFFCURVE",
"298 629 CURVE SMOOTH",
"304 643 OFFCURVE",
"325 662 OFFCURVE",
"335 662 CURVE SMOOTH",
"341 662 OFFCURVE",
"347 660 OFFCURVE",
"349 658 CURVE",
"553 137 LINE SMOOTH",
"566 103 OFFCURVE",
"575 80 OFFCURVE",
"580 68 CURVE SMOOTH",
"594 36 OFFCURVE",
"645 30 OFFCURVE",
"653 30 CURVE",
"658 22 OFFCURVE",
"657 0 OFFCURVE"
);
}
);
width = 653;
}
);
unicode = 0104;
userData = {
com.fontlab.hintData = {
hhints = (
{
position = -221;
width = 64;
},
{
position = -4;
width = 21;
},
{
position = 3;
width = 27;
},
{
position = 238;
width = 48;
},
{
position = 642;
width = 20;
}
);
vhints = (
{
position = 419;
width = 64;
}
);
};
};
},
{
glyphname = AE;
lastChange = "2017-07-12 19:24:35 +0000";
layers = (
{
layerId = "7ECBB128-A556-4919-8826-F9D641050EDE";
paths = (
{
closed = 1;
nodes = (
"408 286 CURVE",
"408 541 LINE",
"398 525 OFFCURVE",
"252 290 OFFCURVE",
"252 290 CURVE",
"252 290 OFFCURVE",
"251 286 OFFCURVE",
"253 286 CURVE SMOOTH",
"276 284 OFFCURVE",
"307 284 OFFCURVE",
"330 284 CURVE SMOOTH",
"360 284 OFFCURVE",
"385 284 OFFCURVE"
);
},
{
closed = 1;
nodes = (
"466 656 CURVE SMOOTH",
"534 656 OFFCURVE",
"705 664 OFFCURVE",
"789 664 CURVE",
"796 614 OFFCURVE",
"810 567 OFFCURVE",
"819 522 CURVE",
"816 519 OFFCURVE",
"805 517 OFFCURVE",
"798 517 CURVE SMOOTH",
"791 517 OFFCURVE",
"785 519 OFFCURVE",
"783 524 CURVE SMOOTH",
"761 592 OFFCURVE",
"728 620 OFFCURVE",
"671 620 CURVE SMOOTH",
"586 620 LINE",
"568 620 OFFCURVE",
"531 619 OFFCURVE",
"527 609 CURVE SMOOTH",
"522 595 OFFCURVE",
"521 571 OFFCURVE",
"521 543 CURVE SMOOTH",
"521 362 LINE SMOOTH",
"521 356 OFFCURVE",
"543 353 OFFCURVE",
"565 353 CURVE SMOOTH",
"618 353 LINE SMOOTH",
"696 353 OFFCURVE",
"701 362 OFFCURVE",
"717 424 CURVE SMOOTH",
"718 429 OFFCURVE",
"723 432 OFFCURVE",
"730 432 CURVE SMOOTH",
"737 432 OFFCURVE",
"746 429 OFFCURVE",
"749 426 CURVE",
"749 236 LINE",
"747 234 OFFCURVE",
"738 232 OFFCURVE",
"731 232 CURVE SMOOTH",
"724 232 OFFCURVE",
"718 235 OFFCURVE",
"716 240 CURVE SMOOTH",
"702 292 OFFCURVE",
"694 299 OFFCURVE",
"685 304 CURVE SMOOTH",
"673 310 OFFCURVE",
"632 311 OFFCURVE",
"594 311 CURVE SMOOTH",
"566 311 OFFCURVE",
"521 310 OFFCURVE",
"521 300 CURVE SMOOTH",
"521 128 LINE SMOOTH",
"521 118 OFFCURVE",
"522 66 OFFCURVE",
"529 54 CURVE SMOOTH",
"539 42 OFFCURVE",
"563 40 OFFCURVE",
"597 40 CURVE SMOOTH",
"654 40 LINE SMOOTH",
"692 40 OFFCURVE",
"737 49 OFFCURVE",
"763 68 CURVE SMOOTH",
"783 84 OFFCURVE",
"806 117 OFFCURVE",
"822 166 CURVE SMOOTH",
"823 170 OFFCURVE",
"829 172 OFFCURVE",
"836 172 CURVE SMOOTH",
"846 172 OFFCURVE",
"860 169 OFFCURVE",
"863 166 CURVE",
"844 112 OFFCURVE",
"816 41 OFFCURVE",
"809 -3 CURVE",
"733 -3 OFFCURVE",
"460 0 OFFCURVE",
"395 0 CURVE",
"359 3 OFFCURVE",
"334 12 OFFCURVE",
"336 16 CURVE",
"340 19 OFFCURVE",
"364 32 OFFCURVE",
"368 38 CURVE",
"378 48 OFFCURVE",
"403 69 OFFCURVE",
"405 97 CURVE",
"408 109 OFFCURVE",
"409 172 OFFCURVE",
"409 180 CURVE",
"393 180 OFFCURVE",
"379 240 OFFCURVE",
"369 240 CURVE",
"339 240 OFFCURVE",
"306 240 OFFCURVE",
"276 240 CURVE SMOOTH",
"254 240 OFFCURVE",
"246 237 OFFCURVE",
"222 235 CURVE",
"221 235 OFFCURVE",
"200 204 OFFCURVE",
"192 190 CURVE",
"184 178 OFFCURVE",
"153 126 OFFCURVE",
"137 98 CURVE SMOOTH",
"125 70 OFFCURVE",
"145 48 OFFCURVE",
"149 42 CURVE",
"151 26 OFFCURVE",
"180 13 OFFCURVE",
"182 11 CURVE",
"166 11 OFFCURVE",
"150 3 OFFCURVE",
"127 0 CURVE",
"84 1 OFFCURVE",
"64 1 OFFCURVE",
"24 -1 CURVE",
"-1 1 OFFCURVE",
"-7 10 OFFCURVE",
"-27 14 CURVE",
"-23 16 OFFCURVE",
"4 33 OFFCURVE",
"12 45 CURVE",
"29 59 OFFCURVE",
"49 72 OFFCURVE",
"65 90 CURVE",
"77 98 OFFCURVE",
"239 354 OFFCURVE",
"249 370 CURVE",
"387 596 LINE",
"385 606 OFFCURVE",
"365 610 OFFCURVE",
"359 614 CURVE",
"357 626 OFFCURVE",
"340 641 OFFCURVE",
"336 644 CURVE",
"356 646 OFFCURVE",
"412 656 OFFCURVE"
);
}
);
width = 887;
}
);
unicode = 00C6;
userData = {
com.fontlab.hintData = {
hhints = (
{
position = 0;
width = 40;
},
{
position = 240;
width = 46;
},
{
position = 311;
width = 42;
},
{
position = 620;
width = 44;
},
{
position = 620;
width = 36;
}
);
vhints = (
{
position = 408;
width = 113;
},
{
position = 717;
width = 32;
},
{
position = 783;
width = 36;
}
);
};
};
},
{
glyphname = B;
lastChange = "2017-07-12 19:24:35 +0000";
layers = (
{
layerId = "7ECBB128-A556-4919-8826-F9D641050EDE";
paths = (
{
closed = 1;
nodes = (
"230 333 LINE",
"230 114 LINE SMOOTH",
"230 104 OFFCURVE",
"230 60 OFFCURVE",
"238 50 CURVE SMOOTH",
"250 36 OFFCURVE",
"277 35 OFFCURVE",
"309 35 CURVE SMOOTH",
"369 35 OFFCURVE",
"441 64 OFFCURVE",
"441 176 CURVE SMOOTH",
"441 251 OFFCURVE",
"410 333 OFFCURVE",
"286 333 CURVE SMOOTH"
);
},
{
closed = 1;
nodes = (
"230 371 LINE",
"306 371 LINE SMOOTH",
"367 371 OFFCURVE",
"403 421 OFFCURVE",
"403 487 CURVE SMOOTH",
"403 579 OFFCURVE",
"356 622 OFFCURVE",
"284 622 CURVE SMOOTH",
"266 622 OFFCURVE",
"238 621 OFFCURVE",
"234 611 CURVE SMOOTH",
"229 599 OFFCURVE",
"230 573 OFFCURVE",
"230 543 CURVE SMOOTH"
);
},
{
closed = 1;
nodes = (
"321 660 CURVE SMOOTH",
"413 660 OFFCURVE",
"523 621 OFFCURVE",
"523 506 CURVE SMOOTH",
"523 428 OFFCURVE",
"449 380 OFFCURVE",
"418 368 CURVE SMOOTH",
"413 366 OFFCURVE",
"413 363 OFFCURVE",
"415 362 CURVE",
"465 358 OFFCURVE",
"569 298 OFFCURVE",
"569 196 CURVE SMOOTH",
"569 134 OFFCURVE",
"530 72 OFFCURVE",
"477 38 CURVE SMOOTH",
"422 2 OFFCURVE",
"350 -3 OFFCURVE",
"274 -3 CURVE SMOOTH",
"237 -3 OFFCURVE",
"82 -3 OFFCURVE",
"43 -3 CURVE",
"39 3 OFFCURVE",
"39 24 OFFCURVE",
"43 30 CURVE",
"55 30 OFFCURVE",
"105 34 OFFCURVE",
"109 46 CURVE SMOOTH",
"115 64 OFFCURVE",
"116 94 OFFCURVE",
"116 130 CURVE SMOOTH",
"116 528 LINE SMOOTH",
"116 564 OFFCURVE",
"115 594 OFFCURVE",
"109 612 CURVE SMOOTH",
"105 624 OFFCURVE",
"55 628 OFFCURVE",
"43 628 CURVE",
"39 634 OFFCURVE",
"39 655 OFFCURVE",
"43 661 CURVE",
"86 659 OFFCURVE",
"133 657 OFFCURVE",
"173 657 CURVE SMOOTH",
"213 657 OFFCURVE",
"263 660 OFFCURVE"
);
}
);
width = 609;
}
);
unicode = 0042;
userData = {
com.fontlab.hintData = {
hhints = (
{
position = -3;
width = 38;
},
{
position = 333;
width = 38;
},
{
position = 622;
width = 38;
}
);
vhints = (
{
position = 116;
width = 114;
},
{
position = 403;
width = 120;
},
{
position = 441;
width = 128;
}
);
};
};
},
{
glyphname = C;
lastChange = "2017-07-12 19:24:35 +0000";
layers = (
{
layerId = "7ECBB128-A556-4919-8826-F9D641050EDE";
paths = (
{
closed = 1;
nodes = (
"387 667 CURVE SMOOTH",
"453 667 OFFCURVE",
"531 661 OFFCURVE",
"597 647 CURVE",
"598 641 OFFCURVE",
"626 509 OFFCURVE",
"626 498 CURVE",
"626 490 OFFCURVE",
"613 482 OFFCURVE",
"602 482 CURVE",
"596 482 OFFCURVE",
"591 483 OFFCURVE",
"588 487 CURVE",
"580 522 OFFCURVE",
"548 627 OFFCURVE",
"394 627 CURVE SMOOTH",
"250 627 OFFCURVE",
"175 488 OFFCURVE",
"175 348 CURVE SMOOTH",
"175 192 OFFCURVE",
"250 34 OFFCURVE",
"412 34 CURVE SMOOTH",
"473 34 OFFCURVE",
"512 53 OFFCURVE",
"540 78 CURVE SMOOTH",
"581 114 OFFCURVE",
"602 178 OFFCURVE",
"606 198 CURVE",
"620 198 OFFCURVE",
"636 192 OFFCURVE",
"640 188 CURVE",
"640 172 OFFCURVE",
"615 49 OFFCURVE",
"601 40 CURVE",
"542 13 OFFCURVE",
"476 -6 OFFCURVE",
"384 -6 CURVE SMOOTH",
"191 -6 OFFCURVE",
"45 139 OFFCURVE",
"45 322 CURVE SMOOTH",
"45 512 OFFCURVE",
"193 667 OFFCURVE"
);
}
);
width = 676;
}
);
unicode = 0043;
userData = {
com.fontlab.hintData = {
hhints = (
{
position = -6;
width = 40;
},
{
position = 627;
width = 40;
}
);
vhints = (
{
position = 45;
width = 130;
},
{
position = 606;
width = 34;
}
);
};
};
},
{
glyphname = D;
lastChange = "2017-07-12 19:24:35 +0000";
layers = (
{
layerId = "7ECBB128-A556-4919-8826-F9D641050EDE";
paths = (
{
closed = 1;
nodes = (
"230 543 CURVE SMOOTH",
"230 130 LINE",
"230 120 OFFCURVE",
"231 67 OFFCURVE",
"237 54 CURVE SMOOTH",
"244 42 OFFCURVE",
"277 35 OFFCURVE",
"309 35 CURVE SMOOTH",
"461 35 OFFCURVE",
"561 124 OFFCURVE",
"561 319 CURVE SMOOTH",
"561 530 OFFCURVE",
"440 622 OFFCURVE",
"294 622 CURVE SMOOTH",
"276 622 OFFCURVE",
"239 620 OFFCURVE",
"235 610 CURVE SMOOTH",
"230 596 OFFCURVE",
"230 572 OFFCURVE"
);
},
{
closed = 1;
nodes = (
"322 659 CURVE SMOOTH",
"547 659 OFFCURVE",
"690 530 OFFCURVE",
"690 335 CURVE SMOOTH",
"690 133 OFFCURVE",
"561 -3 OFFCURVE",
"312 -3 CURVE SMOOTH",
"269 -3 OFFCURVE",
"82 -3 OFFCURVE",
"43 -3 CURVE",
"39 3 OFFCURVE",
"39 24 OFFCURVE",
"43 30 CURVE",
"55 30 OFFCURVE",
"105 34 OFFCURVE",
"109 46 CURVE SMOOTH",
"115 64 OFFCURVE",
"116 94 OFFCURVE",
"116 130 CURVE SMOOTH",
"116 528 LINE SMOOTH",
"116 564 OFFCURVE",
"115 594 OFFCURVE",
"109 612 CURVE SMOOTH",
"105 624 OFFCURVE",
"55 628 OFFCURVE",
"43 628 CURVE",
"39 634 OFFCURVE",
"39 655 OFFCURVE",
"43 661 CURVE",
"86 659 OFFCURVE",
"133 657 OFFCURVE",
"173 657 CURVE SMOOTH",
"213 657 OFFCURVE",
"270 659 OFFCURVE"
);
}
);
width = 736;
}
);
unicode = 0044;
userData = {
com.fontlab.hintData = {
hhints = (
{
position = -3;
width = 38;
},
{
position = 622;
width = 37;
}
);
vhints = (
{
position = 116;
width = 114;
},
{
position = 561;
width = 129;
}
);
};
};
},
{
glyphname = Eth;
lastChange = "2017-07-12 19:24:35 +0000";
layers = (
{
components = (
{
name = D;
transform = "{1, 0, 0, 1, 3, 0}";
}
);
layerId = "7ECBB128-A556-4919-8826-F9D641050EDE";
paths = (
{
closed = 1;
nodes = (
"375 310 CURVE",
"346 310 OFFCURVE",
"56 310 OFFCURVE",
"42 310 CURVE",
"38 310 OFFCURVE",
"37 339 OFFCURVE",
"43 348 CURVE",
"72 348 OFFCURVE",
"361 348 OFFCURVE",
"375 348 CURVE",
"379 348 OFFCURVE",
"379 319 OFFCURVE"
);
}
);
width = 739;
}
);
unicode = 00D0;
userData = {
com.fontlab.hintData = {
hhints = (
{
position = -3;
width = 38;
},
{
position = 310;
width = 38;
},
{
position = 622;
width = 37;
}
);
vhints = (
{
position = 119;
width = 114;
},
{
position = 564;
width = 129;
}
);
};
};
},
{
glyphname = E;
lastChange = "2017-07-12 19:24:35 +0000";
layers = (
{
layerId = "7ECBB128-A556-4919-8826-F9D641050EDE";
paths = (
{
closed = 1;
nodes = (
"173 656 CURVE SMOOTH",
"241 656 OFFCURVE",
"413 664 OFFCURVE",
"497 664 CURVE",
"504 614 OFFCURVE",
"517 567 OFFCURVE",
"526 522 CURVE",
"523 519 OFFCURVE",
"512 517 OFFCURVE",
"505 517 CURVE SMOOTH",
"498 517 OFFCURVE",
"492 519 OFFCURVE",
"490 524 CURVE SMOOTH",
"468 592 OFFCURVE",
"435 620 OFFCURVE",
"378 620 CURVE SMOOTH",
"294 620 LINE SMOOTH",
"276 620 OFFCURVE",
"238 619 OFFCURVE",
"234 609 CURVE SMOOTH",
"229 595 OFFCURVE",
"230 571 OFFCURVE",
"230 543 CURVE SMOOTH",
"230 362 LINE SMOOTH",
"230 356 OFFCURVE",
"250 353 OFFCURVE",
"272 353 CURVE SMOOTH",
"325 353 LINE SMOOTH",
"403 353 OFFCURVE",
"408 362 OFFCURVE",
"424 424 CURVE SMOOTH",
"425 429 OFFCURVE",
"431 432 OFFCURVE",
"438 432 CURVE SMOOTH",
"445 432 OFFCURVE",
"453 429 OFFCURVE",
"456 426 CURVE",
"456 236 LINE",
"454 234 OFFCURVE",
"446 232 OFFCURVE",
"439 232 CURVE SMOOTH",
"432 232 OFFCURVE",
"426 235 OFFCURVE",
"424 240 CURVE SMOOTH",
"410 292 OFFCURVE",
"401 299 OFFCURVE",
"392 304 CURVE SMOOTH",
"380 310 OFFCURVE",
"339 311 OFFCURVE",
"301 311 CURVE SMOOTH",
"273 311 OFFCURVE",
"230 310 OFFCURVE",
"230 300 CURVE SMOOTH",
"230 130 LINE SMOOTH",
"230 120 OFFCURVE",
"229 66 OFFCURVE",
"236 54 CURVE SMOOTH",
"246 42 OFFCURVE",
"270 40 OFFCURVE",
"304 40 CURVE",
"366 40 LINE SMOOTH",
"404 40 OFFCURVE",
"445 47 OFFCURVE",
"471 68 CURVE SMOOTH",
"494 87 OFFCURVE",
"513 117 OFFCURVE",
"529 166 CURVE SMOOTH",
"530 170 OFFCURVE",
"536 172 OFFCURVE",
"543 172 CURVE SMOOTH",
"553 172 OFFCURVE",
"568 169 OFFCURVE",
"571 166 CURVE",
"552 112 OFFCURVE",
"524 41 OFFCURVE",
"517 -3 CURVE",
"449 -3 OFFCURVE",
"308 -1 OFFCURVE",
"174 -1 CURVE SMOOTH",
"115 -1 OFFCURVE",
"69 -3 OFFCURVE",
"43 -3 CURVE",
"39 3 OFFCURVE",
"39 24 OFFCURVE",
"43 30 CURVE",
"55 30 OFFCURVE",
"105 34 OFFCURVE",
"109 46 CURVE SMOOTH",
"115 64 OFFCURVE",
"116 94 OFFCURVE",
"116 130 CURVE SMOOTH",
"116 528 LINE SMOOTH",
"116 564 OFFCURVE",
"115 594 OFFCURVE",
"109 612 CURVE SMOOTH",
"105 624 OFFCURVE",
"55 629 OFFCURVE",
"43 629 CURVE",
"39 635 OFFCURVE",
"39 656 OFFCURVE",
"43 662 CURVE",
"83 659 OFFCURVE",
"133 656 OFFCURVE"
);
}
);
width = 596;
}
);
unicode = 0045;
userData = {
com.fontlab.hintData = {
hhints = (
{
position = -3;
width = 33;
},
{
position = -1;
width = 41;
},
{
position = 311;
width = 42;
},
{
position = 620;
width = 44;
},
{
position = 620;
width = 36;
},
{
position = 629;
width = 33;
}
);
vhints = (
{
position = 116;
width = 114;
},
{
position = 424;
width = 32;
},
{
position = 490;
width = 36;
}
);
};
};
},
{
glyphname = Eogonek;
lastChange = "2017-07-12 19:24:35 +0000";
layers = (
{
layerId = "7ECBB128-A556-4919-8826-F9D641050EDE";
paths = (
{
closed = 1;
nodes = (
"173 656 CURVE SMOOTH",
"241 656 OFFCURVE",
"413 664 OFFCURVE",
"497 664 CURVE",
"504 614 OFFCURVE",
"517 567 OFFCURVE",
"526 522 CURVE",
"523 519 OFFCURVE",
"512 517 OFFCURVE",
"505 517 CURVE SMOOTH",
"498 517 OFFCURVE",
"492 519 OFFCURVE",
"490 524 CURVE SMOOTH",
"468 592 OFFCURVE",
"435 620 OFFCURVE",
"378 620 CURVE SMOOTH",
"294 620 LINE SMOOTH",
"276 620 OFFCURVE",
"238 619 OFFCURVE",
"234 609 CURVE SMOOTH",
"229 595 OFFCURVE",
"230 571 OFFCURVE",
"230 543 CURVE SMOOTH",
"230 362 LINE SMOOTH",
"230 356 OFFCURVE",
"250 353 OFFCURVE",
"272 353 CURVE SMOOTH",
"325 353 LINE SMOOTH",
"403 353 OFFCURVE",
"408 362 OFFCURVE",
"424 424 CURVE SMOOTH",
"425 429 OFFCURVE",
"431 432 OFFCURVE",
"438 432 CURVE SMOOTH",
"445 432 OFFCURVE",
"453 429 OFFCURVE",
"456 426 CURVE",
"456 236 LINE",
"454 234 OFFCURVE",
"446 232 OFFCURVE",
"439 232 CURVE SMOOTH",
"432 232 OFFCURVE",
"426 235 OFFCURVE",
"424 240 CURVE SMOOTH",
"410 292 OFFCURVE",
"401 299 OFFCURVE",
"392 304 CURVE SMOOTH",
"380 310 OFFCURVE",
"339 311 OFFCURVE",
"301 311 CURVE SMOOTH",
"273 311 OFFCURVE",
"230 310 OFFCURVE",
"230 300 CURVE SMOOTH",
"230 128 LINE SMOOTH",
"230 118 OFFCURVE",
"229 66 OFFCURVE",
"236 54 CURVE SMOOTH",
"246 42 OFFCURVE",
"270 40 OFFCURVE",
"304 40 CURVE SMOOTH",
"361 40 LINE SMOOTH",
"403 40 OFFCURVE",
"445 48 OFFCURVE",
"471 68 CURVE SMOOTH",
"497 88 OFFCURVE",
"513 122 OFFCURVE",
"529 166 CURVE SMOOTH",
"530 170 OFFCURVE",
"536 172 OFFCURVE",
"543 172 CURVE SMOOTH",
"553 172 OFFCURVE",
"568 169 OFFCURVE",
"571 166 CURVE",
"552 112 OFFCURVE",
"524 41 OFFCURVE",
"517 -3 CURVE",
"463 -9 OFFCURVE",
"393 -68 OFFCURVE",
"393 -112 CURVE SMOOTH",
"393 -130 OFFCURVE",
"402 -157 OFFCURVE",
"438 -157 CURVE SMOOTH",
"478 -157 OFFCURVE",
"508 -122 OFFCURVE",
"516 -118 CURVE",
"518 -118 OFFCURVE",
"521 -122 OFFCURVE",
"521 -130 CURVE SMOOTH",
"521 -135 OFFCURVE",
"518 -148 OFFCURVE",
"515 -152 CURVE SMOOTH",
"497 -176 OFFCURVE",
"451 -221 OFFCURVE",
"401 -221 CURVE SMOOTH",
"357 -221 OFFCURVE",
"329 -184 OFFCURVE",
"329 -144 CURVE SMOOTH",
"329 -91 OFFCURVE",
"389 -31 OFFCURVE",
"444 -3 CURVE",
"365 -2 OFFCURVE",
"264 -1 OFFCURVE",
"167 -1 CURVE SMOOTH",
"111 -1 OFFCURVE",
"69 -3 OFFCURVE",
"43 -3 CURVE",
"39 3 OFFCURVE",
"39 24 OFFCURVE",
"43 30 CURVE",
"55 30 OFFCURVE",
"105 34 OFFCURVE",
"109 46 CURVE SMOOTH",
"115 64 OFFCURVE",
"116 94 OFFCURVE",
"116 130 CURVE SMOOTH",
"116 528 LINE SMOOTH",
"116 564 OFFCURVE",
"115 594 OFFCURVE",
"109 612 CURVE SMOOTH",
"105 624 OFFCURVE",
"55 628 OFFCURVE",
"43 628 CURVE",
"39 634 OFFCURVE",
"39 655 OFFCURVE",
"43 661 CURVE",
"86 659 OFFCURVE",
"133 656 OFFCURVE"
);
}
);
width = 596;
}
);
unicode = 0118;
userData = {
com.fontlab.hintData = {
hhints = (
{
position = -221;
width = 64;
},
{
position = -3;
width = 33;
},
{
position = -1;
width = 41;
},
{
position = 311;
width = 42;
},
{
position = 620;
width = 44;
},
{
position = 620;
width = 36;
},
{
position = 628;
width = 33;
}
);
vhints = (
{
position = 116;
width = 114;
},
{
position = 329;
width = 64;
},
{
position = 424;
width = 32;
},
{
position = 490;
width = 36;
}
);
};
};
},
{
glyphname = F;
lastChange = "2017-07-12 19:24:35 +0000";
layers = (
{
layerId = "7ECBB128-A556-4919-8826-F9D641050EDE";
paths = (
{
closed = 1;
nodes = (
"173 656 CURVE SMOOTH",
"241 656 OFFCURVE",
"413 664 OFFCURVE",
"497 664 CURVE",
"504 614 OFFCURVE",
"517 567 OFFCURVE",
"526 522 CURVE",
"523 519 OFFCURVE",
"512 517 OFFCURVE",
"505 517 CURVE SMOOTH",
"498 517 OFFCURVE",
"492 519 OFFCURVE",
"490 524 CURVE SMOOTH",
"468 592 OFFCURVE",
"435 620 OFFCURVE",
"378 620 CURVE SMOOTH",
"294 620 LINE SMOOTH",
"276 620 OFFCURVE",
"238 619 OFFCURVE",
"234 609 CURVE SMOOTH",
"229 595 OFFCURVE",
"230 571 OFFCURVE",
"230 543 CURVE SMOOTH",
"230 360 LINE SMOOTH",
"230 354 OFFCURVE",
"250 351 OFFCURVE",
"272 351 CURVE SMOOTH",
"325 351 LINE SMOOTH",
"403 351 OFFCURVE",
"408 360 OFFCURVE",
"424 422 CURVE SMOOTH",
"425 427 OFFCURVE",
"431 430 OFFCURVE",
"438 430 CURVE SMOOTH",
"445 430 OFFCURVE",
"453 427 OFFCURVE",
"456 424 CURVE",
"456 234 LINE",
"454 232 OFFCURVE",
"446 230 OFFCURVE",
"439 230 CURVE SMOOTH",
"432 230 OFFCURVE",
"426 233 OFFCURVE",
"424 238 CURVE SMOOTH",
"410 290 OFFCURVE",
"401 297 OFFCURVE",
"392 302 CURVE SMOOTH",
"380 308 OFFCURVE",
"339 309 OFFCURVE",
"301 309 CURVE SMOOTH",
"273 309 OFFCURVE",
"230 308 OFFCURVE",
"230 298 CURVE SMOOTH",
"230 130 LINE SMOOTH",
"230 94 OFFCURVE",
"230 64 OFFCURVE",
"236 46 CURVE SMOOTH",
"240 34 OFFCURVE",
"300 29 OFFCURVE",
"312 29 CURVE",
"316 23 OFFCURVE",
"316 2 OFFCURVE",
"312 -4 CURVE",
"272 -1 OFFCURVE",
"212 2 OFFCURVE",
"172 2 CURVE SMOOTH",
"128 2 OFFCURVE",
"82 -2 OFFCURVE",
"43 -4 CURVE",
"39 2 OFFCURVE",
"39 23 OFFCURVE",
"43 29 CURVE",
"55 29 OFFCURVE",
"105 34 OFFCURVE",
"109 46 CURVE SMOOTH",
"115 64 OFFCURVE",
"116 94 OFFCURVE",
"116 130 CURVE SMOOTH",
"116 528 LINE SMOOTH",
"116 564 OFFCURVE",
"115 594 OFFCURVE",
"109 612 CURVE SMOOTH",
"105 624 OFFCURVE",
"55 628 OFFCURVE",
"43 628 CURVE",
"39 634 OFFCURVE",
"39 655 OFFCURVE",
"43 661 CURVE",
"86 659 OFFCURVE",
"133 656 OFFCURVE"
);
}
);
width = 543;
}
);
unicode = 0046;
userData = {
com.fontlab.hintData = {
hhints = (
{
position = -4;
width = 33;
},
{
position = 309;
width = 42;
},
{
position = 620;
width = 44;
},
{
position = 620;
width = 36;
},
{
position = 628;
width = 33;
}
);
vhints = (
{
position = 116;
width = 114;
},
{
position = 424;
width = 32;
},
{
position = 490;
width = 36;
}
);
};
};
},
{
glyphname = G;
lastChange = "2017-07-12 19:24:35 +0000";
layers = (
{
layerId = "7ECBB128-A556-4919-8826-F9D641050EDE";
paths = (
{
closed = 1;
nodes = (
"517 179 CURVE",
"517 204 OFFCURVE",
"518 223 OFFCURVE",
"512 242 CURVE SMOOTH",
"507 260 OFFCURVE",
"454 263 OFFCURVE",
"442 263 CURVE",
"438 265 OFFCURVE",
"436 291 OFFCURVE",
"441 296 CURVE",
"487 294 OFFCURVE",
"534 290 OFFCURVE",
"579 290 CURVE SMOOTH",
"619 290 OFFCURVE",
"657 294 OFFCURVE",
"697 296 CURVE",
"701 287 OFFCURVE",
"701 265 OFFCURVE",
"697 263 CURVE",
"687 263 OFFCURVE",
"644 257 OFFCURVE",
"637 248 CURVE SMOOTH",
"631 238 OFFCURVE",
"629 214 OFFCURVE",
"629 190 CURVE",
"629 172 OFFCURVE",
"629 123 OFFCURVE",
"629 101 CURVE SMOOTH",
"629 86 OFFCURVE",
"637 74 OFFCURVE",
"637 66 CURVE SMOOTH",
"637 58 OFFCURVE",
"624 51 OFFCURVE",
"609 44 CURVE SMOOTH",
"556 20 OFFCURVE",
"495 -6 OFFCURVE",
"383 -6 CURVE SMOOTH",
"189 -6 OFFCURVE",
"44 139 OFFCURVE",
"44 322 CURVE SMOOTH",
"44 509 OFFCURVE",
"192 667 OFFCURVE",
"386 667 CURVE SMOOTH",
"452 667 OFFCURVE",
"530 661 OFFCURVE",
"596 647 CURVE",
"597 641 OFFCURVE",
"624 509 OFFCURVE",
"624 498 CURVE",
"624 490 OFFCURVE",
"612 482 OFFCURVE",
"601 482 CURVE",
"595 482 OFFCURVE",
"590 483 OFFCURVE",
"587 487 CURVE",
"579 522 OFFCURVE",
"548 627 OFFCURVE",
"394 627 CURVE SMOOTH",
"246 627 OFFCURVE",
"174 485 OFFCURVE",
"174 345 CURVE SMOOTH",
"174 189 OFFCURVE",
"251 34 OFFCURVE",
"409 34 CURVE SMOOTH",
"454 34 OFFCURVE",
"485 44 OFFCURVE",
"509 56 CURVE SMOOTH",
"514 58 OFFCURVE",
"517 62 OFFCURVE",
"517 70 CURVE SMOOTH",
"517 91 OFFCURVE",
"517 155 OFFCURVE"
);
}
);
width = 722;
}
);
unicode = 0047;
userData = {
com.fontlab.hintData = {
hhints = (
{
position = -6;
width = 40;
},
{
position = 263;
width = 33;
},
{
position = 627;
width = 40;
}
);
vhints = (
{
position = 44;
width = 130;
},
{
position = 517;
width = 112;
},
{
position = 587;
width = 37;
}
);
};
};
},
{
glyphname = H;
lastChange = "2017-07-12 19:24:35 +0000";
layers = (
{
layerId = "7ECBB128-A556-4919-8826-F9D641050EDE";
paths = (
{
closed = 1;
nodes = (
"173 656 CURVE SMOOTH",
"213 656 OFFCURVE",
"262 659 OFFCURVE",
"302 662 CURVE",
"306 656 OFFCURVE",
"306 634 OFFCURVE",
"302 628 CURVE",
"290 628 OFFCURVE",
"240 622 OFFCURVE",
"236 610 CURVE SMOOTH",
"230 592 OFFCURVE",
"230 562 OFFCURVE",
"230 526 CURVE SMOOTH",
"230 368 LINE",
"230 366 OFFCURVE",
"231 365 OFFCURVE",
"231 365 CURVE",
"275 364 OFFCURVE",
"320 362 OFFCURVE",
"370 362 CURVE SMOOTH",
"412 362 OFFCURVE",
"465 364 OFFCURVE",
"505 365 CURVE",
"505 365 OFFCURVE",
"507 367 OFFCURVE",
"507 369 CURVE SMOOTH",
"507 526 LINE SMOOTH",
"507 562 OFFCURVE",
"506 592 OFFCURVE",
"500 610 CURVE SMOOTH",
"496 622 OFFCURVE",
"446 628 OFFCURVE",
"434 628 CURVE",
"430 634 OFFCURVE",
"430 656 OFFCURVE",
"434 662 CURVE",
"474 659 OFFCURVE",
"524 656 OFFCURVE",
"564 656 CURVE SMOOTH",
"604 656 OFFCURVE",
"653 659 OFFCURVE",
"693 662 CURVE",
"697 656 OFFCURVE",
"697 634 OFFCURVE",
"693 628 CURVE",
"681 628 OFFCURVE",
"631 622 OFFCURVE",
"627 610 CURVE SMOOTH",
"621 592 OFFCURVE",
"621 562 OFFCURVE",
"621 526 CURVE SMOOTH",
"621 132 LINE SMOOTH",
"621 96 OFFCURVE",
"621 66 OFFCURVE",
"627 48 CURVE SMOOTH",
"631 36 OFFCURVE",
"681 30 OFFCURVE",
"693 30 CURVE",
"697 24 OFFCURVE",
"697 2 OFFCURVE",
"693 -4 CURVE",
"653 -1 OFFCURVE",
"603 2 OFFCURVE",
"563 2 CURVE SMOOTH",
"523 2 OFFCURVE",
"474 -1 OFFCURVE",
"434 -4 CURVE",
"430 2 OFFCURVE",
"430 24 OFFCURVE",
"434 30 CURVE",
"446 30 OFFCURVE",
"496 36 OFFCURVE",
"500 48 CURVE SMOOTH",
"506 66 OFFCURVE",
"507 96 OFFCURVE",
"507 132 CURVE SMOOTH",
"507 314 LINE",
"507 316 OFFCURVE",
"505 318 OFFCURVE",
"505 318 CURVE",
"463 319 OFFCURVE",
"416 321 OFFCURVE",
"370 321 CURVE SMOOTH",
"245 321 OFFCURVE",
"234 318 OFFCURVE",
"230 316 CURVE",
"229 315 OFFCURVE",
"230 313 OFFCURVE",
"230 313 CURVE",
"230 132 LINE SMOOTH",
"230 96 OFFCURVE",
"230 66 OFFCURVE",
"236 48 CURVE SMOOTH",
"240 36 OFFCURVE",
"290 30 OFFCURVE",
"302 30 CURVE",
"306 24 OFFCURVE",
"306 2 OFFCURVE",
"302 -4 CURVE",
"262 -1 OFFCURVE",
"212 2 OFFCURVE",
"172 2 CURVE SMOOTH",
"132 2 OFFCURVE",
"83 -1 OFFCURVE",
"43 -4 CURVE",
"39 2 OFFCURVE",
"39 24 OFFCURVE",
"43 30 CURVE",
"55 30 OFFCURVE",
"105 36 OFFCURVE",
"109 48 CURVE SMOOTH",
"115 66 OFFCURVE",
"116 96 OFFCURVE",
"116 132 CURVE SMOOTH",
"116 526 LINE SMOOTH",
"116 562 OFFCURVE",
"115 592 OFFCURVE",
"109 610 CURVE SMOOTH",
"105 622 OFFCURVE",
"55 628 OFFCURVE",
"43 628 CURVE",
"39 634 OFFCURVE",
"39 656 OFFCURVE",
"43 662 CURVE",
"83 659 OFFCURVE",
"133 656 OFFCURVE"
);
}
);
width = 736;
}
);
unicode = 0048;
userData = {
com.fontlab.hintData = {
hhints = (
{
position = -4;
width = 34;
},
{
position = 321;
width = 41;
},
{
position = 628;
width = 34;
}
);
vhints = (
{
position = 116;
width = 114;
},
{
position = 507;
width = 114;
}
);
};
};
},
{
glyphname = Hbar;
lastChange = "2017-07-12 19:24:35 +0000";
layers = (
{
components = (
{
name = H;
}
);
layerId = "7ECBB128-A556-4919-8826-F9D641050EDE";
paths = (
{
closed = 1;
nodes = (
"676 488 CURVE",
"647 488 OFFCURVE",
"62 488 OFFCURVE",
"48 488 CURVE",
"44 488 OFFCURVE",
"43 517 OFFCURVE",
"49 526 CURVE",
"78 526 OFFCURVE",
"662 526 OFFCURVE",
"676 526 CURVE",
"680 526 OFFCURVE",
"680 497 OFFCURVE"
);
}
);
width = 736;
}
);
unicode = 0126;
userData = {
com.fontlab.hintData = {
hhints = (
{
position = -4;
width = 34;
},
{
position = 321;
width = 41;
},
{
position = 488;
width = 38;
},
{
position = 628;
width = 34;
}
);
vhints = (
{
position = 116;
width = 114;
},
{
position = 507;
width = 114;
}
);
};
};
},
{
glyphname = I;
lastChange = "2017-07-12 19:24:35 +0000";
layers = (
{
layerId = "7ECBB128-A556-4919-8826-F9D641050EDE";
paths = (
{
closed = 1;
nodes = (
"173 656 CURVE SMOOTH",
"213 656 OFFCURVE",
"262 659 OFFCURVE",
"302 662 CURVE",
"306 656 OFFCURVE",
"306 635 OFFCURVE",
"302 629 CURVE",
"290 629 OFFCURVE",
"240 624 OFFCURVE",
"236 612 CURVE SMOOTH",
"230 594 OFFCURVE",
"230 564 OFFCURVE",
"230 528 CURVE SMOOTH",
"230 130 LINE SMOOTH",
"230 94 OFFCURVE",
"230 64 OFFCURVE",
"236 46 CURVE SMOOTH",
"240 34 OFFCURVE",
"290 29 OFFCURVE",
"302 29 CURVE",
"306 23 OFFCURVE",
"306 2 OFFCURVE",
"302 -4 CURVE",
"262 -1 OFFCURVE",
"212 2 OFFCURVE",
"172 2 CURVE SMOOTH",
"132 2 OFFCURVE",
"83 -1 OFFCURVE",
"43 -4 CURVE",
"39 2 OFFCURVE",
"39 23 OFFCURVE",
"43 29 CURVE",
"55 29 OFFCURVE",
"105 34 OFFCURVE",
"109 46 CURVE SMOOTH",
"115 64 OFFCURVE",
"116 94 OFFCURVE",
"116 130 CURVE SMOOTH",
"116 528 LINE SMOOTH",
"116 564 OFFCURVE",
"115 594 OFFCURVE",
"109 612 CURVE SMOOTH",
"105 624 OFFCURVE",
"55 629 OFFCURVE",
"43 629 CURVE",
"39 635 OFFCURVE",
"39 656 OFFCURVE",
"43 662 CURVE",
"83 659 OFFCURVE",
"133 656 OFFCURVE"
);
}
);
width = 345;
}
);
unicode = 0049;
userData = {
com.fontlab.hintData = {
hhints = (
{
position = -4;
width = 33;
},
{
position = 629;
width = 33;
}
);
vhints = (
{
position = 116;
width = 114;
}
);
};
};
},
{
glyphname = Iogonek;
lastChange = "2017-07-12 19:24:35 +0000";
layers = (
{
layerId = "7ECBB128-A556-4919-8826-F9D641050EDE";
paths = (
{
closed = 1;
nodes = (
"173 656 CURVE SMOOTH",
"213 656 OFFCURVE",
"262 659 OFFCURVE",
"302 662 CURVE",
"306 656 OFFCURVE",
"306 635 OFFCURVE",
"302 629 CURVE",
"290 629 OFFCURVE",
"240 624 OFFCURVE",
"236 612 CURVE SMOOTH",
"230 594 OFFCURVE",
"230 564 OFFCURVE",
"230 528 CURVE SMOOTH",
"230 130 LINE SMOOTH",
"230 94 OFFCURVE",
"230 64 OFFCURVE",
"236 46 CURVE SMOOTH",
"240 34 OFFCURVE",
"290 29 OFFCURVE",
"302 29 CURVE",
"306 23 OFFCURVE",
"306 2 OFFCURVE",
"302 -4 CURVE",
"274 -2 OFFCURVE",
"241 1 OFFCURVE",
"210 2 CURVE",
"171 -36 OFFCURVE",
"150 -71 OFFCURVE",
"150 -112 CURVE SMOOTH",
"150 -130 OFFCURVE",
"159 -157 OFFCURVE",
"195 -157 CURVE SMOOTH",
"235 -157 OFFCURVE",
"265 -122 OFFCURVE",
"273 -118 CURVE SMOOTH",
"275 -118 OFFCURVE",
"278 -122 OFFCURVE",
"278 -130 CURVE SMOOTH",
"278 -135 OFFCURVE",
"275 -148 OFFCURVE",
"272 -152 CURVE SMOOTH",
"254 -176 OFFCURVE",
"208 -221 OFFCURVE",
"158 -221 CURVE SMOOTH",
"114 -221 OFFCURVE",
"86 -184 OFFCURVE",
"86 -144 CURVE SMOOTH",
"86 -99 OFFCURVE",
"129 -33 OFFCURVE",
"163 2 CURVE",
"124 2 OFFCURVE",
"80 -1 OFFCURVE",
"43 -4 CURVE",
"39 2 OFFCURVE",
"39 23 OFFCURVE",
"43 29 CURVE",
"55 29 OFFCURVE",
"105 34 OFFCURVE",
"109 46 CURVE SMOOTH",
"115 64 OFFCURVE",
"116 94 OFFCURVE",
"116 130 CURVE SMOOTH",
"116 528 LINE SMOOTH",
"116 564 OFFCURVE",
"115 594 OFFCURVE",
"109 612 CURVE SMOOTH",
"105 624 OFFCURVE",
"55 629 OFFCURVE",
"43 629 CURVE",
"39 635 OFFCURVE",
"39 656 OFFCURVE",
"43 662 CURVE",
"83 659 OFFCURVE",
"133 656 OFFCURVE"
);
}
);
width = 345;
}
);
unicode = 012E;
userData = {
com.fontlab.hintData = {
hhints = (
{
position = -221;
width = 64;
},
{
position = -4;
width = 33;
},
{
position = 629;
width = 33;
}
);
vhints = (
{
position = 86;
width = 64;
},
{
position = 116;
width = 114;
}
);
};
};
},
{
glyphname = J;
lastChange = "2017-07-12 19:24:35 +0000";
layers = (
{
layerId = "7ECBB128-A556-4919-8826-F9D641050EDE";
paths = (
{
closed = 1;
nodes = (
"167 656 CURVE SMOOTH",
"207 656 OFFCURVE",
"255 659 OFFCURVE",
"295 662 CURVE",
"299 656 OFFCURVE",
"299 635 OFFCURVE",
"295 629 CURVE",
"283 629 OFFCURVE",
"233 624 OFFCURVE",
"229 612 CURVE SMOOTH",
"223 594 OFFCURVE",
"223 564 OFFCURVE",
"223 528 CURVE SMOOTH",
"223 130 LINE SMOOTH",
"223 -88 OFFCURVE",
"121 -222 OFFCURVE",
"-43 -222 CURVE",
"-63 -222 OFFCURVE",
"-93 -212 OFFCURVE",
"-103 -204 CURVE",
"-109 -196 OFFCURVE",
"-115 -186 OFFCURVE",
"-115 -172 CURVE",
"-115 -140 OFFCURVE",
"-91 -110 OFFCURVE",
"-59 -110 CURVE",
"-39 -110 OFFCURVE",
"-22 -126 OFFCURVE",
"-7 -141 CURVE SMOOTH",
"7 -155 OFFCURVE",
"23 -168 OFFCURVE",
"37 -168 CURVE",
"85 -168 OFFCURVE",
"109 -78 OFFCURVE",
"109 126 CURVE SMOOTH",
"109 528 LINE SMOOTH",
"109 564 OFFCURVE",
"109 594 OFFCURVE",
"103 612 CURVE SMOOTH",
"99 624 OFFCURVE",
"48 629 OFFCURVE",
"36 629 CURVE",
"32 635 OFFCURVE",
"32 656 OFFCURVE",
"36 662 CURVE",
"76 659 OFFCURVE",
"127 656 OFFCURVE"
);
}
);
width = 331;
}
);
unicode = 004A;
userData = {
com.fontlab.hintData = {
hhints = (
{
position = -222;
width = 54;
},
{
position = 629;
width = 33;
}
);
vhints = (
{
position = 109;
width = 114;
}
);
};
};
},
{
glyphname = K;
lastChange = "2017-07-12 19:24:35 +0000";
layers = (
{
layerId = "7ECBB128-A556-4919-8826-F9D641050EDE";
paths = (
{
closed = 1;
nodes = (
"173 656 CURVE SMOOTH",
"213 656 OFFCURVE",
"262 659 OFFCURVE",
"302 662 CURVE",
"306 656 OFFCURVE",
"306 634 OFFCURVE",
"302 628 CURVE",
"290 628 OFFCURVE",
"240 622 OFFCURVE",
"236 610 CURVE SMOOTH",
"230 592 OFFCURVE",
"230 562 OFFCURVE",
"230 526 CURVE SMOOTH",
"230 340 LINE",
"262 364 OFFCURVE",
"306 403 OFFCURVE",
"338 435 CURVE SMOOTH",
"407 504 OFFCURVE",
"422 516 OFFCURVE",
"466 574 CURVE SMOOTH",
"474 584 OFFCURVE",
"478 598 OFFCURVE",
"478 606 CURVE SMOOTH",
"478 629 OFFCURVE",
"434 628 OFFCURVE",
"422 628 CURVE",
"418 635 OFFCURVE",
"418 653 OFFCURVE",
"421 662 CURVE",
"458 660 OFFCURVE",
"507 656 OFFCURVE",
"544 656 CURVE SMOOTH",
"588 656 OFFCURVE",
"622 659 OFFCURVE",
"660 662 CURVE",
"662 656 OFFCURVE",
"663 632 OFFCURVE",
"658 629 CURVE",
"649 628 OFFCURVE",
"587 624 OFFCURVE",
"552 588 CURVE",
"509 541 OFFCURVE",
"424 460 OFFCURVE",
"343 378 CURVE SMOOTH",
"337 372 OFFCURVE",
"339 367 OFFCURVE",
"343 362 CURVE SMOOTH",
"427 257 OFFCURVE",
"521 137 OFFCURVE",
"559 101 CURVE",
"609 43 OFFCURVE",
"664 32 OFFCURVE",
"696 30 CURVE",
"701 24 OFFCURVE",
"697 -2 OFFCURVE",
"696 -4 CURVE",
"648 -5 OFFCURVE",
"589 -4 OFFCURVE",
"559 0 CURVE SMOOTH",
"513 2 OFFCURVE",
"475 28 OFFCURVE",
"449 59 CURVE SMOOTH",
"425 87 OFFCURVE",
"326 209 OFFCURVE",
"248 303 CURVE SMOOTH",
"246 306 OFFCURVE",
"242 306 OFFCURVE",
"239 306 CURVE SMOOTH",
"235 306 OFFCURVE",
"232 304 OFFCURVE",
"230 302 CURVE",
"230 132 LINE SMOOTH",
"230 96 OFFCURVE",
"230 66 OFFCURVE",
"236 48 CURVE SMOOTH",
"240 36 OFFCURVE",
"290 30 OFFCURVE",
"302 30 CURVE",
"306 24 OFFCURVE",
"306 2 OFFCURVE",
"302 -4 CURVE",
"262 -1 OFFCURVE",
"212 2 OFFCURVE",
"172 2 CURVE SMOOTH",
"132 2 OFFCURVE",
"83 -1 OFFCURVE",
"43 -4 CURVE",
"39 2 OFFCURVE",
"39 24 OFFCURVE",
"43 30 CURVE",
"55 30 OFFCURVE",
"105 36 OFFCURVE",
"109 48 CURVE SMOOTH",
"115 66 OFFCURVE",
"116 96 OFFCURVE",
"116 132 CURVE SMOOTH",
"116 526 LINE SMOOTH",
"116 562 OFFCURVE",
"115 592 OFFCURVE",
"109 610 CURVE SMOOTH",
"105 622 OFFCURVE",
"55 628 OFFCURVE",
"43 628 CURVE",
"39 634 OFFCURVE",
"39 656 OFFCURVE",
"43 662 CURVE",
"83 659 OFFCURVE",
"133 656 OFFCURVE"
);
}
);
width = 690;
}
);
unicode = 004B;
userData = {
com.fontlab.hintData = {
hhints = (
{
position = -4;
width = 34;
},
{
position = 628;
width = 34;
}
);
vhints = (
{
position = 116;
width = 114;
}
);
};
};
},
{
glyphname = L;
lastChange = "2017-07-12 19:24:35 +0000";
layers = (
{
layerId = "7ECBB128-A556-4919-8826-F9D641050EDE";
paths = (
{
closed = 1;
nodes = (
"230 130 LINE SMOOTH",
"230 120 OFFCURVE",
"229 66 OFFCURVE",
"236 54 CURVE SMOOTH",
"246 42 OFFCURVE",
"270 40 OFFCURVE",
"304 40 CURVE",
"366 40 LINE SMOOTH",
"404 40 OFFCURVE",
"445 47 OFFCURVE",
"471 68 CURVE SMOOTH",
"494 87 OFFCURVE",
"513 117 OFFCURVE",
"529 166 CURVE SMOOTH",
"530 170 OFFCURVE",
"536 172 OFFCURVE",
"543 172 CURVE SMOOTH",
"553 172 OFFCURVE",
"568 169 OFFCURVE",
"571 166 CURVE",
"552 112 OFFCURVE",
"524 41 OFFCURVE",
"517 -3 CURVE",
"449 -3 OFFCURVE",
"308 -1 OFFCURVE",
"174 -1 CURVE SMOOTH",
"115 -1 OFFCURVE",
"69 -3 OFFCURVE",
"43 -3 CURVE",
"39 3 OFFCURVE",
"39 24 OFFCURVE",
"43 30 CURVE",
"55 30 OFFCURVE",
"105 34 OFFCURVE",
"109 46 CURVE SMOOTH",
"115 64 OFFCURVE",
"116 94 OFFCURVE",
"116 130 CURVE SMOOTH",
"116 528 LINE SMOOTH",
"116 564 OFFCURVE",
"115 594 OFFCURVE",
"109 612 CURVE SMOOTH",
"105 624 OFFCURVE",
"55 629 OFFCURVE",
"43 629 CURVE",
"39 635 OFFCURVE",
"39 656 OFFCURVE",
"43 662 CURVE",
"83 659 OFFCURVE",
"133 656 OFFCURVE",
"173 656 CURVE SMOOTH",
"213 656 OFFCURVE",
"262 659 OFFCURVE",
"302 662 CURVE",
"306 656 OFFCURVE",
"306 635 OFFCURVE",
"302 629 CURVE",
"290 629 OFFCURVE",
"240 624 OFFCURVE",
"236 612 CURVE SMOOTH",
"230 594 OFFCURVE",
"230 564 OFFCURVE",
"230 528 CURVE SMOOTH"
);
}
);
width = 572;
}
);
unicode = 004C;
userData = {
com.fontlab.hintData = {
hhints = (
{
position = -3;
width = 33;
},
{
position = -1;
width = 41;
},
{
position = 629;
width = 33;
}
);
vhints = (
{
position = 116;
width = 114;
}
);
};
};
},
{
glyphname = Lslash;
lastChange = "2017-07-12 19:24:35 +0000";
layers = (
{
components = (
{
name = L;
transform = "{1, 0, 0, 1, 4, 0}";
}
);
layerId = "7ECBB128-A556-4919-8826-F9D641050EDE";
paths = (
{
closed = 1;
nodes = (
"25 183 LINE SMOOTH",
"20 179 OFFCURVE",
"20 227 OFFCURVE",
"25 232 CURVE SMOOTH",
"148 312.877 LINE",
"190 329.493 LINE",
"390 461 LINE SMOOTH",
"396 465 OFFCURVE",
"395 416 OFFCURVE",
"390 412 CURVE SMOOTH",
"205 287.356 LINE",
"156 267.137 LINE"
);
}
);
width = 575;
}
);
unicode = 0141;
userData = {
com.fontlab.hintData = {
hhints = (
{
position = 210;
width = 66;
}
);
vhints = (
{
position = 57;
width = 262;
}
);
};
};
},
{
glyphname = M;
lastChange = "2017-07-12 19:24:35 +0000";
layers = (
{
layerId = "7ECBB128-A556-4919-8826-F9D641050EDE";
paths = (
{
closed = 1;
nodes = (
"168 656 CURVE SMOOTH",
"202 656 OFFCURVE",
"230 660 OFFCURVE",
"261 662 CURVE",
"285 598 OFFCURVE",
"388 366 OFFCURVE",
"461 192 CURVE",
"461 191 OFFCURVE",
"464 190 OFFCURVE",
"465 190 CURVE SMOOTH",
"466 190 OFFCURVE",
"470 193 OFFCURVE",
"470 195 CURVE",
"500 271 OFFCURVE",
"554 410 OFFCURVE",
"605 544 CURVE SMOOTH",
"622 588 OFFCURVE",
"644 660 OFFCURVE",
"644 660 CURVE",
"664 658 OFFCURVE",
"718 656 OFFCURVE",
"737 656 CURVE SMOOTH",
"771 656 OFFCURVE",
"820 660 OFFCURVE",
"852 662 CURVE",
"854 658 OFFCURVE",
"857 632 OFFCURVE",
"855 628 CURVE",
"844 628 OFFCURVE",
"802 622 OFFCURVE",
"794 614 CURVE SMOOTH",
"787 606 OFFCURVE",
"785 594 OFFCURVE",
"785 574 CURVE SMOOTH",
"787 504 OFFCURVE",
"793 275 OFFCURVE",
"797 146 CURVE SMOOTH",
"799 107 OFFCURVE",
"799 72 OFFCURVE",
"809 47 CURVE SMOOTH",
"815 33 OFFCURVE",
"868 30 OFFCURVE",
"876 30 CURVE",
"880 21 OFFCURVE",
"880 2 OFFCURVE",
"878 -4 CURVE",
"838 -2 OFFCURVE",
"794 3 OFFCURVE",
"750 3 CURVE SMOOTH",
"704 3 OFFCURVE",
"658 -2 OFFCURVE",
"612 -4 CURVE",
"609 -1 OFFCURVE",
"607 22 OFFCURVE",
"611 30 CURVE",
"623 30 OFFCURVE",
"668 34 OFFCURVE",
"678 44 CURVE SMOOTH",
"684 50 OFFCURVE",
"687 71 OFFCURVE",
"687 83 CURVE SMOOTH",
"687 95 OFFCURVE",
"685 126 OFFCURVE",
"685 142 CURVE",
"683 214 OFFCURVE",
"677 450 OFFCURVE",
"674 531 CURVE",
"674 534 OFFCURVE",
"673 554 OFFCURVE",
"666 554 CURVE SMOOTH",
"664 554 OFFCURVE",
"663 552 OFFCURVE",
"661 547 CURVE",
"620 444 OFFCURVE",
"505 140 OFFCURVE",
"467 44 CURVE",
"463 35 OFFCURVE",
"441 -1 OFFCURVE",
"427 -2 CURVE SMOOTH",
"424 -2 OFFCURVE",
"421 -1 OFFCURVE",
"418 0 CURVE",
"184 554 LINE",
"178 341 OFFCURVE",
"174 188 OFFCURVE",
"171 104 CURVE SMOOTH",
"171 88 OFFCURVE",
"173 62 OFFCURVE",
"175 54 CURVE SMOOTH",
"181 36 OFFCURVE",
"250 30 OFFCURVE",
"258 30 CURVE",
"262 24 OFFCURVE",
"262 2 OFFCURVE",
"260 -4 CURVE",
"220 -2 OFFCURVE",
"189 3 OFFCURVE",
"145 3 CURVE SMOOTH",
"99 3 OFFCURVE",
"70 -2 OFFCURVE",
"24 -4 CURVE",
"21 0 OFFCURVE",
"20 19 OFFCURVE",
"24 28 CURVE",
"36 28 OFFCURVE",
"97 36 OFFCURVE",
"107 56 CURVE SMOOTH",
"113 68 OFFCURVE",
"118 107 OFFCURVE",
"119 125 CURVE SMOOTH",
"127 303 OFFCURVE",
"133 544 OFFCURVE",
"134 576 CURVE SMOOTH",
"134 586 OFFCURVE",
"135 599 OFFCURVE",
"130 608 CURVE SMOOTH",
"124 620 OFFCURVE",
"76 629 OFFCURVE",
"62 629 CURVE",
"58 633 OFFCURVE",
"60 660 OFFCURVE",
"62 662 CURVE",
"108 660 OFFCURVE",
"122 656 OFFCURVE"
);
}
);
width = 908;
}
);
unicode = 004D;
userData = {
com.fontlab.hintData = {
hhints = (
{
position = -4;
width = 34;
},
{
position = 629;
width = 33;
}
);
};
};
},
{
glyphname = N;
lastChange = "2017-07-12 19:24:35 +0000";
layers = (
{
layerId = "7ECBB128-A556-4919-8826-F9D641050EDE";
paths = (
{
closed = 1;
nodes = (
"148 658 CURVE SMOOTH",
"180 658 OFFCURVE",
"217 660 OFFCURVE",
"240 662 CURVE",
"284 583 OFFCURVE",
"480 361 OFFCURVE",
"597 207 CURVE",
"598 211 OFFCURVE",
"598 249 OFFCURVE",
"598 256 CURVE",
"598 510 LINE",
"598 547 OFFCURVE",
"595 593 OFFCURVE",
"587 609 CURVE SMOOTH",
"580 623 OFFCURVE",
"523 630 OFFCURVE",
"509 630 CURVE",
"505 634 OFFCURVE",
"504 655 OFFCURVE",
"508 663 CURVE",
"551 661 OFFCURVE",
"581 656 OFFCURVE",
"626 656 CURVE SMOOTH",
"671 656 OFFCURVE",
"701 661 OFFCURVE",
"744 663 CURVE",
"746 657 OFFCURVE",
"749 640 OFFCURVE",
"743 630 CURVE",
"733 630 OFFCURVE",
"670 624 OFFCURVE",
"662 608 CURVE SMOOTH",
"655 594 OFFCURVE",
"652 549 OFFCURVE",
"652 512 CURVE SMOOTH",
"652 139 LINE SMOOTH",
"652 81 OFFCURVE",
"654 51 OFFCURVE",
"656 -1 CURVE",
"653 -4 OFFCURVE",
"637 -5 OFFCURVE",
"634 -5 CURVE SMOOTH",
"625 -5 OFFCURVE",
"612 4 OFFCURVE",
"602 18 CURVE SMOOTH",
"181 544 LINE",
"181 136 LINE SMOOTH",
"181 100 OFFCURVE",
"183 68 OFFCURVE",
"191 53 CURVE SMOOTH",
"197 39 OFFCURVE",
"258 30 OFFCURVE",
"270 30 CURVE",
"276 22 OFFCURVE",
"274 2 OFFCURVE",
"272 -4 CURVE",
"232 -2 OFFCURVE",
"196 3 OFFCURVE",
"152 3 CURVE SMOOTH",
"106 3 OFFCURVE",
"82 -2 OFFCURVE",
"36 -4 CURVE",
"32 3 OFFCURVE",
"32 23 OFFCURVE",
"36 29 CURVE",
"48 29 OFFCURVE",
"107 37 OFFCURVE",
"115 52 CURVE SMOOTH",
"123 67 OFFCURVE",
"126 99 OFFCURVE",
"126 137 CURVE",
"126 203 OFFCURVE",
"126 465 OFFCURVE",
"126 531 CURVE",
"126 564 OFFCURVE",
"123 593 OFFCURVE",
"112 610 CURVE SMOOTH",
"104 622 OFFCURVE",
"52 630 OFFCURVE",
"40 630 CURVE",
"35 636 OFFCURVE",
"35 658 OFFCURVE",
"39 663 CURVE",
"77 661 OFFCURVE",
"108 658 OFFCURVE"
);
}
);
width = 769;
}
);
unicode = 004E;
userData = {
com.fontlab.hintData = {
hhints = (
{
position = -4;
width = 33;
},
{
position = 630;
width = 33;
}
);
vhints = (
{
position = 126;
width = 55;
},
{
position = 598;
width = 54;
}
);
};
};
},
{
glyphname = Eng;
lastChange = "2017-07-12 19:24:35 +0000";
layers = (
{
layerId = "7ECBB128-A556-4919-8826-F9D641050EDE";
paths = (
{
closed = 1;
nodes = (
"652 130 LINE SMOOTH",
"652 -87 OFFCURVE",
"551 -222 OFFCURVE",
"387 -222 CURVE SMOOTH",
"367 -222 OFFCURVE",
"337 -212 OFFCURVE",
"327 -204 CURVE",
"321 -196 OFFCURVE",
"315 -186 OFFCURVE",
"315 -172 CURVE SMOOTH",
"315 -140 OFFCURVE",
"338 -110 OFFCURVE",
"370 -110 CURVE SMOOTH",
"390 -110 OFFCURVE",
"407 -126 OFFCURVE",
"422 -141 CURVE SMOOTH",
"436 -155 OFFCURVE",
"452 -168 OFFCURVE",
"466 -168 CURVE SMOOTH",
"509 -168 OFFCURVE",
"561 -88 OFFCURVE",
"572 56 CURVE",
"181 544 LINE",
"181 136 LINE SMOOTH",
"181 100 OFFCURVE",
"183 68 OFFCURVE",
"191 53 CURVE SMOOTH",
"197 39 OFFCURVE",
"258 30 OFFCURVE",
"270 30 CURVE",
"276 22 OFFCURVE",
"274 2 OFFCURVE",
"272 -4 CURVE",
"232 -2 OFFCURVE",
"196 3 OFFCURVE",
"152 3 CURVE SMOOTH",
"106 3 OFFCURVE",
"82 -2 OFFCURVE",
"36 -4 CURVE",
"32 3 OFFCURVE",
"32 23 OFFCURVE",
"36 29 CURVE",
"48 29 OFFCURVE",
"107 37 OFFCURVE",
"115 52 CURVE SMOOTH",
"123 67 OFFCURVE",
"126 99 OFFCURVE",
"126 137 CURVE SMOOTH",
"126 203 OFFCURVE",
"126 465 OFFCURVE",
"126 531 CURVE SMOOTH",
"126 564 OFFCURVE",
"123 593 OFFCURVE",
"112 610 CURVE SMOOTH",
"104 622 OFFCURVE",
"52 630 OFFCURVE",
"40 630 CURVE",
"35 636 OFFCURVE",
"35 658 OFFCURVE",
"39 663 CURVE",
"77 661 OFFCURVE",
"108 658 OFFCURVE",
"148 658 CURVE SMOOTH",
"180 658 OFFCURVE",
"217 660 OFFCURVE",
"240 662 CURVE",
"284 583 OFFCURVE",
"480 361 OFFCURVE",
"597 207 CURVE",
"598 211 OFFCURVE",
"598 249 OFFCURVE",
"598 256 CURVE SMOOTH",
"598 510 LINE SMOOTH",
"598 547 OFFCURVE",
"595 593 OFFCURVE",
"587 609 CURVE SMOOTH",
"580 623 OFFCURVE",
"523 630 OFFCURVE",
"509 630 CURVE",
"505 634 OFFCURVE",
"504 655 OFFCURVE",
"508 663 CURVE",
"551 661 OFFCURVE",
"581 656 OFFCURVE",
"626 656 CURVE SMOOTH",
"671 656 OFFCURVE",
"701 661 OFFCURVE",
"744 663 CURVE",
"746 657 OFFCURVE",
"749 640 OFFCURVE",
"743 630 CURVE",
"733 630 OFFCURVE",
"670 624 OFFCURVE",
"662 608 CURVE SMOOTH",
"655 594 OFFCURVE",
"652 550 OFFCURVE",
"652 512 CURVE SMOOTH"
);
}
);
width = 768;
}
);
unicode = 014A;
userData = {
com.fontlab.hintData = {
hhints = (
{
position = -222;
width = 54;
},
{
position = -4;
width = 33;
},
{
position = 630;
width = 33;
}
);
vhints = (
{
position = 126;
width = 55;
},
{
position = 598;
width = 54;
}
);
};
};
},
{
glyphname = O;
lastChange = "2017-07-12 19:24:35 +0000";
layers = (
{
layerId = "7ECBB128-A556-4919-8826-F9D641050EDE";
paths = (
{
closed = 1;
nodes = (
"357 627 CURVE",
"223 627 OFFCURVE",
"174 484 OFFCURVE",
"174 356 CURVE",
"174 202 OFFCURVE",
"243 30 OFFCURVE",
"395 30 CURVE",
"529 30 OFFCURVE",
"579 172 OFFCURVE",
"579 300 CURVE",
"579 454 OFFCURVE",
"509 627 OFFCURVE"
);
},
{
closed = 1;
nodes = (
"376 667 CURVE SMOOTH",
"552 667 OFFCURVE",
"709 521 OFFCURVE",
"709 328 CURVE SMOOTH",
"709 141 OFFCURVE",
"552 -10 OFFCURVE",
"376 -10 CURVE SMOOTH",
"200 -10 OFFCURVE",
"44 136 OFFCURVE",
"44 328 CURVE SMOOTH",
"44 515 OFFCURVE",
"200 667 OFFCURVE"
);
}
);
width = 752;
}
);
unicode = 004F;
userData = {
com.fontlab.hintData = {
hhints = (
{
position = -10;
width = 40;
},
{
position = 627;
width = 40;
}
);
vhints = (
{
position = 44;
width = 130;
},
{
position = 579;
width = 130;
}
);
};
};
},
{
glyphname = Oslash;
lastChange = "2017-07-12 19:24:35 +0000";
layers = (
{
components = (
{
name = O;
}
);
layerId = "7ECBB128-A556-4919-8826-F9D641050EDE";
paths = (
{
closed = 1;
nodes = (
"554 672 LINE",
"562 670 OFFCURVE",
"590 656 OFFCURVE",
"587 650 CURVE",
"190 -16 LINE",
"182 -13 OFFCURVE",
"153 1 OFFCURVE",
"156 7 CURVE"
);
}
);
width = 752;
}
);
unicode = 00D8;
userData = {
com.fontlab.hintData = {
hhints = (
{
position = -10;
width = 40;
},
{
position = 627;
width = 40;
}
);
vhints = (
{
position = 44;
width = 130;
},
{
position = 579;
width = 130;
}
);
};
};
},
{
glyphname = OE;
lastChange = "2017-07-12 19:24:35 +0000";
layers = (
{
layerId = "7ECBB128-A556-4919-8826-F9D641050EDE";
paths = (
{
closed = 1;
nodes = (
"593 656 CURVE SMOOTH",
"661 656 OFFCURVE",
"833 664 OFFCURVE",
"917 664 CURVE",
"924 614 OFFCURVE",
"938 567 OFFCURVE",
"947 522 CURVE",
"944 519 OFFCURVE",
"932 517 OFFCURVE",
"925 517 CURVE SMOOTH",
"918 517 OFFCURVE",
"913 519 OFFCURVE",
"911 524 CURVE SMOOTH",
"889 592 OFFCURVE",
"856 620 OFFCURVE",
"799 620 CURVE SMOOTH",
"714 620 LINE SMOOTH",
"696 620 OFFCURVE",
"659 619 OFFCURVE",
"655 609 CURVE SMOOTH",
"650 595 OFFCURVE",
"650 571 OFFCURVE",
"650 543 CURVE SMOOTH",
"650 362 LINE SMOOTH",
"650 356 OFFCURVE",
"671 353 OFFCURVE",
"693 353 CURVE SMOOTH",
"745 353 LINE SMOOTH",
"823 353 OFFCURVE",
"829 362 OFFCURVE",
"845 424 CURVE SMOOTH",
"846 429 OFFCURVE",
"851 432 OFFCURVE",
"858 432 CURVE SMOOTH",
"865 432 OFFCURVE",
"874 429 OFFCURVE",
"877 426 CURVE",
"877 236 LINE",
"875 234 OFFCURVE",
"866 232 OFFCURVE",
"859 232 CURVE SMOOTH",
"852 232 OFFCURVE",
"846 235 OFFCURVE",
"844 240 CURVE SMOOTH",
"830 292 OFFCURVE",
"822 299 OFFCURVE",
"813 304 CURVE SMOOTH",
"801 310 OFFCURVE",
"759 311 OFFCURVE",
"721 311 CURVE SMOOTH",
"693 311 OFFCURVE",
"650 310 OFFCURVE",
"650 300 CURVE SMOOTH",
"650 128 LINE SMOOTH",
"650 118 OFFCURVE",
"650 66 OFFCURVE",
"657 54 CURVE SMOOTH",
"667 42 OFFCURVE",
"691 39 OFFCURVE",
"725 39 CURVE",
"781 39 LINE SMOOTH",
"819 39 OFFCURVE",
"865 49 OFFCURVE",
"891 68 CURVE SMOOTH",
"911 84 OFFCURVE",
"933 117 OFFCURVE",
"949 166 CURVE SMOOTH",
"950 170 OFFCURVE",
"956 172 OFFCURVE",
"963 172 CURVE SMOOTH",
"973 172 OFFCURVE",
"988 169 OFFCURVE",
"991 166 CURVE",
"972 112 OFFCURVE",
"944 41 OFFCURVE",
"937 -3 CURVE",
"869 -3 OFFCURVE",
"725 -1 OFFCURVE",
"591 -1 CURVE SMOOTH",
"534 -1 OFFCURVE",
"484 -2 OFFCURVE",
"463 -3 CURVE",
"445 -3 OFFCURVE",
"471 -5 OFFCURVE",
"371 -5 CURVE SMOOTH",
"195 -5 OFFCURVE",
"45 141 OFFCURVE",
"45 328 CURVE SMOOTH",
"45 515 OFFCURVE",
"201 665 OFFCURVE",
"373 665 CURVE SMOOTH",
"435 665 OFFCURVE",
"539 656 OFFCURVE"
);
},
{
closed = 1;
nodes = (
"354 626 CURVE SMOOTH",
"222 626 OFFCURVE",
"170 484 OFFCURVE",
"170 356 CURVE",
"170 202 OFFCURVE",
"241 32 OFFCURVE",
"393 32 CURVE",
"437 32 OFFCURVE",
"492 39 OFFCURVE",
"513 68 CURVE SMOOTH",
"532 94 OFFCURVE",
"536 122 OFFCURVE",
"536 170 CURVE SMOOTH",
"536 484 LINE SMOOTH",
"536 523 OFFCURVE",
"528 560 OFFCURVE",
"502 584 CURVE SMOOTH",
"474 611 OFFCURVE",
"428 626 OFFCURVE"
);
}
);
width = 1016;
}
);
unicode = 0152;
userData = {
com.fontlab.hintData = {
hhints = (
{
position = -1;
width = 40;
},
{
position = 311;
width = 42;
},
{
position = 620;
width = 36;
},
{
position = 626;
width = 39;
}
);
vhints = (
{
position = 45;
width = 125;
},
{
position = 536;
width = 114;
},
{
position = 845;
width = 32;
},
{
position = 911;
width = 36;
}
);
};
};
},
{
glyphname = P;
lastChange = "2017-07-12 19:24:35 +0000";
layers = (
{
layerId = "7ECBB128-A556-4919-8826-F9D641050EDE";
paths = (
{
closed = 1;
nodes = (
"542 484 CURVE SMOOTH",
"542 358 OFFCURVE",
"450 280 OFFCURVE",
"334 280 CURVE SMOOTH",
"304 280 OFFCURVE",
"285 290 OFFCURVE",
"277 296 CURVE SMOOTH",
"274 299 OFFCURVE",
"265 313 OFFCURVE",
"265 320 CURVE SMOOTH",
"265 324 OFFCURVE",
"267 328 OFFCURVE",
"269 328 CURVE",
"279 325 OFFCURVE",
"293 324 OFFCURVE",
"308 324 CURVE SMOOTH",
"372 324 OFFCURVE",
"422 377 OFFCURVE",
"422 465 CURVE SMOOTH",
"422 554 OFFCURVE",
"373 622 OFFCURVE",
"284 622 CURVE SMOOTH",
"266 622 OFFCURVE",
"238 621 OFFCURVE",
"234 611 CURVE SMOOTH",
"229 599 OFFCURVE",
"230 573 OFFCURVE",
"230 543 CURVE SMOOTH",
"230 130 LINE SMOOTH",
"230 94 OFFCURVE",
"230 64 OFFCURVE",
"236 46 CURVE SMOOTH",
"240 34 OFFCURVE",
"290 29 OFFCURVE",
"302 29 CURVE",
"306 23 OFFCURVE",
"306 2 OFFCURVE",
"302 -4 CURVE",
"262 -1 OFFCURVE",
"212 2 OFFCURVE",
"172 2 CURVE SMOOTH",
"132 2 OFFCURVE",
"83 -1 OFFCURVE",
"43 -4 CURVE",
"39 2 OFFCURVE",
"39 23 OFFCURVE",
"43 29 CURVE",
"55 29 OFFCURVE",
"105 34 OFFCURVE",
"109 46 CURVE SMOOTH",
"115 64 OFFCURVE",
"116 94 OFFCURVE",
"116 130 CURVE SMOOTH",
"116 528 LINE SMOOTH",
"116 564 OFFCURVE",
"115 594 OFFCURVE",
"109 612 CURVE SMOOTH",
"105 624 OFFCURVE",
"55 628 OFFCURVE",
"43 628 CURVE",
"39 634 OFFCURVE",
"39 655 OFFCURVE",
"43 661 CURVE",
"86 659 OFFCURVE",
"135 657 OFFCURVE",
"175 657 CURVE SMOOTH",
"215 657 OFFCURVE",
"264 660 OFFCURVE",
"323 660 CURVE SMOOTH",
"431 660 OFFCURVE",
"542 598 OFFCURVE"
);
}
);
width = 567;
}
);
unicode = 0050;
userData = {
com.fontlab.hintData = {
hhints = (
{
position = -4;
width = 33;
},
{
position = 280;
width = 44;
},
{
position = 622;
width = 38;
}
);
vhints = (
{
position = 116;
width = 114;
},
{
position = 422;
width = 120;
}
);
};
};
},
{
glyphname = Thorn;
lastChange = "2017-07-12 19:24:35 +0000";
layers = (
{
layerId = "7ECBB128-A556-4919-8826-F9D641050EDE";
paths = (
{
closed = 1;
nodes = (
"173 656 CURVE SMOOTH",
"213 656 OFFCURVE",
"262 659 OFFCURVE",
"302 662 CURVE",
"306 656 OFFCURVE",
"306 635 OFFCURVE",
"302 629 CURVE",
"290 629 OFFCURVE",
"240 624 OFFCURVE",
"236 612 CURVE SMOOTH",
"230 596 OFFCURVE",
"229 571 OFFCURVE",
"229 541 CURVE",
"229 538 OFFCURVE",
"230 513 OFFCURVE",
"230 509 CURVE",
"253 514 OFFCURVE",
"287 515 OFFCURVE",
"311 515 CURVE SMOOTH",
"429 515 OFFCURVE",
"532 442 OFFCURVE",
"532 334 CURVE SMOOTH",
"532 222 OFFCURVE",
"444 135 OFFCURVE",
"328 135 CURVE SMOOTH",
"298 135 OFFCURVE",
"279 146 OFFCURVE",
"271 152 CURVE SMOOTH",
"268 155 OFFCURVE",
"259 168 OFFCURVE",
"259 175 CURVE SMOOTH",
"259 179 OFFCURVE",
"261 182 OFFCURVE",
"263 182 CURVE",
"273 179 OFFCURVE",
"287 179 OFFCURVE",
"302 179 CURVE SMOOTH",
"366 179 OFFCURVE",
"415 233 OFFCURVE",
"415 316 CURVE SMOOTH",
"415 402 OFFCURVE",
"368 477 OFFCURVE",
"281 477 CURVE SMOOTH",
"263 477 OFFCURVE",
"238 474 OFFCURVE",
"234 464 CURVE SMOOTH",
"229 452 OFFCURVE",
"230 411 OFFCURVE",
"230 396 CURVE",
"230 130 LINE SMOOTH",
"230 94 OFFCURVE",
"230 64 OFFCURVE",
"236 46 CURVE SMOOTH",
"240 34 OFFCURVE",
"290 29 OFFCURVE",
"302 29 CURVE",
"306 23 OFFCURVE",
"306 2 OFFCURVE",
"302 -4 CURVE",
"262 -1 OFFCURVE",
"212 2 OFFCURVE",
"172 2 CURVE SMOOTH",
"132 2 OFFCURVE",
"83 -1 OFFCURVE",
"43 -4 CURVE",
"39 2 OFFCURVE",
"39 23 OFFCURVE",
"43 29 CURVE",
"55 29 OFFCURVE",
"105 34 OFFCURVE",
"109 46 CURVE SMOOTH",
"115 64 OFFCURVE",
"116 94 OFFCURVE",
"116 130 CURVE SMOOTH",
"116 528 LINE SMOOTH",
"116 564 OFFCURVE",
"115 594 OFFCURVE",
"109 612 CURVE SMOOTH",
"105 624 OFFCURVE",
"55 629 OFFCURVE",
"43 629 CURVE",
"39 635 OFFCURVE",
"39 656 OFFCURVE",
"43 662 CURVE",
"83 659 OFFCURVE",
"133 656 OFFCURVE"
);
}
);
width = 558;
}
);
unicode = 00DE;
userData = {
com.fontlab.hintData = {
hhints = (
{
position = -4;
width = 33;
},
{
position = 2;
width = 180;
},
{
position = 135;
width = 44;
},
{
position = 477;
width = 38;
},
{
position = 629;
width = 33;
}
);
vhints = (
{
position = 116;
width = 114;
},
{
position = 415;
width = 117;
}
);
};
};
},
{
glyphname = Q;
lastChange = "2017-07-12 19:24:35 +0000";
layers = (
{
layerId = "7ECBB128-A556-4919-8826-F9D641050EDE";
paths = (
{
closed = 1;
nodes = (
"376 667 CURVE SMOOTH",
"552 667 OFFCURVE",
"709 521 OFFCURVE",
"709 328 CURVE SMOOTH",
"709 176 OFFCURVE",
"605 49 OFFCURVE",
"473 6 CURVE",
"567 -40 OFFCURVE",
"593 -78 OFFCURVE",
"695 -78 CURVE SMOOTH",
"735 -78 OFFCURVE",
"758 -71 OFFCURVE",
"765 -70 CURVE",
"771 -70 OFFCURVE",
"782 -74 OFFCURVE",
"786 -80 CURVE SMOOTH",
"787 -82 OFFCURVE",
"787 -83 OFFCURVE",
"787 -84 CURVE",
"732 -113 OFFCURVE",
"663 -140 OFFCURVE",
"602 -140 CURVE SMOOTH",
"494 -140 OFFCURVE",
"416 -33 OFFCURVE",
"297 0 CURVE SMOOTH",
"155 36 OFFCURVE",
"44 166 OFFCURVE",
"44 328 CURVE SMOOTH",
"44 515 OFFCURVE",
"200 667 OFFCURVE"
);
},
{
closed = 1;
nodes = (
"357 627 CURVE SMOOTH",
"223 627 OFFCURVE",
"174 484 OFFCURVE",
"174 356 CURVE SMOOTH",
"174 202 OFFCURVE",
"243 30 OFFCURVE",
"395 30 CURVE SMOOTH",
"529 30 OFFCURVE",
"579 172 OFFCURVE",
"579 300 CURVE SMOOTH",
"579 454 OFFCURVE",
"509 627 OFFCURVE"
);
}
);
width = 753;
}
);
unicode = 0051;
userData = {
com.fontlab.hintData = {
hhints = (
{
position = -140;
width = 62;
},
{
position = 627;
width = 40;
}
);
vhints = (
{
position = 44;
width = 130;
},
{
position = 579;
width = 130;
}
);
};
};
},
{
glyphname = R;
lastChange = "2017-07-12 19:24:35 +0000";
layers = (
{
layerId = "7ECBB128-A556-4919-8826-F9D641050EDE";
paths = (
{
closed = 1;
nodes = (
"323 660 CURVE SMOOTH",
"431 660 OFFCURVE",
"532 599 OFFCURVE",
"532 482 CURVE SMOOTH",
"532 405 OFFCURVE",
"453 338 OFFCURVE",
"395 320 CURVE",
"458 227 OFFCURVE",
"516 152 OFFCURVE",
"549 108 CURVE",
"601 42 OFFCURVE",
"657 31 OFFCURVE",
"689 29 CURVE",
"694 23 OFFCURVE",
"689 -2 OFFCURVE",
"688 -4 CURVE",
"640 -5 OFFCURVE",
"587 -4 OFFCURVE",
"557 0 CURVE SMOOTH",
"511 2 OFFCURVE",
"472 28 OFFCURVE",
"448 60 CURVE SMOOTH",
"440 70 OFFCURVE",
"319 238 OFFCURVE",
"287 287 CURVE SMOOTH",
"284 291 OFFCURVE",
"274 300 OFFCURVE",
"263 300 CURVE SMOOTH",
"260 300 OFFCURVE",
"234 300 OFFCURVE",
"230 300 CURVE",
"230 130 LINE",
"230 94 OFFCURVE",
"230 64 OFFCURVE",
"236 46 CURVE SMOOTH",
"240 34 OFFCURVE",
"290 29 OFFCURVE",
"302 29 CURVE",
"306 23 OFFCURVE",
"306 2 OFFCURVE",
"302 -4 CURVE",
"262 -1 OFFCURVE",
"212 2 OFFCURVE",
"172 2 CURVE SMOOTH",
"132 2 OFFCURVE",
"83 -1 OFFCURVE",
"43 -4 CURVE",
"39 2 OFFCURVE",
"39 23 OFFCURVE",
"43 29 CURVE",
"55 29 OFFCURVE",
"105 34 OFFCURVE",
"109 46 CURVE SMOOTH",
"115 64 OFFCURVE",
"116 94 OFFCURVE",
"116 130 CURVE SMOOTH",
"116 528 LINE SMOOTH",
"116 564 OFFCURVE",
"115 594 OFFCURVE",
"109 612 CURVE SMOOTH",
"105 624 OFFCURVE",
"55 628 OFFCURVE",
"43 628 CURVE",
"39 634 OFFCURVE",
"39 655 OFFCURVE",
"43 661 CURVE",
"86 659 OFFCURVE",
"135 657 OFFCURVE",
"175 657 CURVE SMOOTH",
"215 657 OFFCURVE",
"264 660 OFFCURVE"
);
},
{
closed = 1;
nodes = (
"412 465 CURVE SMOOTH",
"412 549 OFFCURVE",
"380 622 OFFCURVE",
"284 622 CURVE SMOOTH",
"266 622 OFFCURVE",
"238 621 OFFCURVE",
"234 611 CURVE SMOOTH",
"229 599 OFFCURVE",
"230 573 OFFCURVE",
"230 543 CURVE SMOOTH",
"230 335 LINE",
"230 335 OFFCURVE",
"269 335 OFFCURVE",
"279 335 CURVE SMOOTH",
"350 335 OFFCURVE",
"412 388 OFFCURVE"
);
}
);
width = 659;
}
);
unicode = 0052;
userData = {
com.fontlab.hintData = {
hhints = (
{
position = -4;
width = 33;
},
{
position = 300;
width = 35;
},
{
position = 622;
width = 38;
}
);
vhints = (
{
position = 116;
width = 114;
},
{
position = 412;
width = 120;
}
);
};
};
},
{
glyphname = S;
lastChange = "2017-07-12 19:24:35 +0000";
layers = (
{
layerId = "7ECBB128-A556-4919-8826-F9D641050EDE";
paths = (
{
closed = 1;
nodes = (
"264 668 CURVE SMOOTH",
"324 668 OFFCURVE",
"360 654 OFFCURVE",
"424 640 CURVE",
"430 588 OFFCURVE",
"433 530 OFFCURVE",
"435 486 CURVE",
"434 481 OFFCURVE",
"428 479 OFFCURVE",
"424 479 CURVE SMOOTH",
"420 479 OFFCURVE",
"398 479 OFFCURVE",
"396 488 CURVE SMOOTH",
"389 541 OFFCURVE",
"341 628 OFFCURVE",
"263 628 CURVE SMOOTH",
"199 628 OFFCURVE",
"166 589 OFFCURVE",
"166 531 CURVE SMOOTH",
"166 460 OFFCURVE",
"244 416 OFFCURVE",
"308 374 CURVE SMOOTH",
"374 331 OFFCURVE",
"469 283 OFFCURVE",
"469 174 CURVE SMOOTH",
"469 64 OFFCURVE",
"364 -10 OFFCURVE",
"256 -10 CURVE SMOOTH",
"192 -10 OFFCURVE",
"124 6 OFFCURVE",
"70 18 CURVE",
"59 70 OFFCURVE",
"49 160 OFFCURVE",
"48 180 CURVE",
"51 185 OFFCURVE",
"70 193 OFFCURVE",
"76 193 CURVE SMOOTH",
"82 193 OFFCURVE",
"87 190 OFFCURVE",
"88 184 CURVE SMOOTH",
"96 138 OFFCURVE",
"141 30 OFFCURVE",
"252 30 CURVE SMOOTH",
"308 30 OFFCURVE",
"360 64 OFFCURVE",
"360 138 CURVE SMOOTH",
"360 215 OFFCURVE",
"280 254 OFFCURVE",
"220 291 CURVE SMOOTH",
"145 338 OFFCURVE",
"60 388 OFFCURVE",
"60 490 CURVE SMOOTH",
"60 594 OFFCURVE",
"162 668 OFFCURVE"
);
}
);
width = 512;
}
);
unicode = 0053;
userData = {
com.fontlab.hintData = {
hhints = (
{
position = -10;
width = 40;
},
{
position = 628;
width = 40;
}
);
vhints = (
{
position = 48;
width = 40;
},
{
position = 60;
width = 106;
},
{
position = 360;
width = 109;
},
{
position = 396;
width = 39;
}
);
};
};
},
{
glyphname = T;
lastChange = "2017-07-12 19:24:35 +0000";
layers = (
{
layerId = "7ECBB128-A556-4919-8826-F9D641050EDE";
paths = (
{
closed = 1;
nodes = (
"495 658 CURVE SMOOTH",
"539 658 OFFCURVE",
"562 673 OFFCURVE",
"577 676 CURVE SMOOTH",
"586 678 OFFCURVE",
"588 678 OFFCURVE",
"593 676 CURVE",
"597 646 OFFCURVE",
"613 524 OFFCURVE",
"619 498 CURVE",
"616 495 OFFCURVE",
"604 490 OFFCURVE",
"595 490 CURVE SMOOTH",
"590 490 OFFCURVE",
"585 492 OFFCURVE",
"583 496 CURVE",
"571 564 OFFCURVE",
"532 618 OFFCURVE",
"482 618 CURVE SMOOTH",
"373 618 LINE",
"373 130 LINE SMOOTH",
"373 94 OFFCURVE",
"373 64 OFFCURVE",
"379 46 CURVE SMOOTH",
"383 34 OFFCURVE",
"433 29 OFFCURVE",
"445 29 CURVE",
"449 23 OFFCURVE",
"449 2 OFFCURVE",
"445 -4 CURVE",
"405 -1 OFFCURVE",
"355 2 OFFCURVE",
"315 2 CURVE SMOOTH",
"275 2 OFFCURVE",
"225 -1 OFFCURVE",
"185 -4 CURVE",
"181 2 OFFCURVE",
"181 23 OFFCURVE",
"185 29 CURVE",
"197 29 OFFCURVE",
"248 34 OFFCURVE",
"252 46 CURVE SMOOTH",
"258 64 OFFCURVE",
"259 94 OFFCURVE",
"259 130 CURVE SMOOTH",
"259 618 LINE",
"147 618 LINE SMOOTH",
"97 618 OFFCURVE",
"58 564 OFFCURVE",
"46 496 CURVE",
"44 492 OFFCURVE",
"40 490 OFFCURVE",
"35 490 CURVE SMOOTH",
"26 490 OFFCURVE",
"13 495 OFFCURVE",
"10 498 CURVE",
"16 524 OFFCURVE",
"33 646 OFFCURVE",
"37 676 CURVE",
"42 678 OFFCURVE",
"47 678 OFFCURVE",
"54 676 CURVE SMOOTH",
"69 673 OFFCURVE",
"90 658 OFFCURVE",
"134 658 CURVE SMOOTH",
"222 658 OFFCURVE",
"404 658 OFFCURVE"
);
}
);
width = 629;
}
);
unicode = 0054;
userData = {
com.fontlab.hintData = {
hhints = (
{
position = -4;
width = 33;
},
{
position = 618;
width = 40;
}
);
vhints = (
{
position = 10;
width = 36;
},
{
position = 259;
width = 114;
},
{
position = 583;
width = 36;
}
);
};
};
},
{
glyphname = Tbar;
lastChange = "2017-07-12 19:24:35 +0000";
layers = (
{
components = (
{
name = T;
}
);
layerId = "7ECBB128-A556-4919-8826-F9D641050EDE";
paths = (
{
closed = 1;
nodes = (
"480 310 CURVE",
"451 310 OFFCURVE",
"161 310 OFFCURVE",
"147 310 CURVE",
"143 310 OFFCURVE",
"142 339 OFFCURVE",
"148 348 CURVE",
"177 348 OFFCURVE",
"466 348 OFFCURVE",
"480 348 CURVE",
"484 348 OFFCURVE",
"484 319 OFFCURVE"
);
}
);
width = 629;
}
);
unicode = 0166;
userData = {
com.fontlab.hintData = {
hhints = (
{
position = -4;
width = 33;
},
{
position = 310;
width = 38;
},
{
position = 618;
width = 40;
}
);
vhints = (
{
position = 10;
width = 36;
},
{
position = 259;
width = 114;
},
{
position = 583;
width = 36;
}
);
};
};
},
{
glyphname = U;
lastChange = "2017-07-12 19:24:35 +0000";
layers = (
{
layerId = "7ECBB128-A556-4919-8826-F9D641050EDE";
paths = (
{
closed = 1;
nodes = (
"158 656 CURVE SMOOTH",
"198 656 OFFCURVE",
"247 659 OFFCURVE",
"287 662 CURVE",
"291 656 OFFCURVE",
"291 635 OFFCURVE",
"287 629 CURVE",
"275 629 OFFCURVE",
"224 624 OFFCURVE",
"220 612 CURVE SMOOTH",
"214 594 OFFCURVE",
"214 564 OFFCURVE",
"214 528 CURVE SMOOTH",
"214 313 LINE SMOOTH",
"214 237 OFFCURVE",
"223 182 OFFCURVE",
"251 136 CURVE SMOOTH",
"286 72 OFFCURVE",
"346 59 OFFCURVE",
"395 59 CURVE SMOOTH",
"487 59 OFFCURVE",
"571 118 OFFCURVE",
"573 292 CURVE SMOOTH",
"573 512 LINE SMOOTH",
"573 552 OFFCURVE",
"570 590 OFFCURVE",
"561 608 CURVE SMOOTH",
"554 622 OFFCURVE",
"502 630 OFFCURVE",
"488 630 CURVE",
"483 637 OFFCURVE",
"484 656 OFFCURVE",
"487 662 CURVE",
"531 659 OFFCURVE",
"560 656 OFFCURVE",
"605 656 CURVE SMOOTH",
"650 656 OFFCURVE",
"674 660 OFFCURVE",
"718 662 CURVE",
"722 656 OFFCURVE",
"723 639 OFFCURVE",
"718 630 CURVE",
"706 630 OFFCURVE",
"648 624 OFFCURVE",
"640 608 CURVE SMOOTH",
"632 590 OFFCURVE",
"628 553 OFFCURVE",
"628 513 CURVE SMOOTH",
"628 281 LINE SMOOTH",
"628 79 OFFCURVE",
"510 -6 OFFCURVE",
"360 -6 CURVE SMOOTH",
"282 -6 OFFCURVE",
"211 19 OFFCURVE",
"165 70 CURVE SMOOTH",
"122 117 OFFCURVE",
"100 184 OFFCURVE",
"100 276 CURVE SMOOTH",
"100 528 LINE SMOOTH",
"100 564 OFFCURVE",
"101 594 OFFCURVE",
"94 612 CURVE SMOOTH",
"90 624 OFFCURVE",
"39 629 OFFCURVE",
"27 629 CURVE",
"23 635 OFFCURVE",
"23 656 OFFCURVE",
"27 662 CURVE",
"67 659 OFFCURVE",
"118 656 OFFCURVE"
);
}
);
width = 728;
}
);
unicode = 0055;
userData = {
com.fontlab.hintData = {
hhints = (
{
position = -6;
width = 65;
},
{
position = 629;
width = 33;
}
);
vhints = (
{
position = 100;
width = 114;
},
{
position = 573;
width = 55;
}
);
};
};
},
{
glyphname = Uogonek;
lastChange = "2017-07-12 19:24:35 +0000";
layers = (
{
layerId = "7ECBB128-A556-4919-8826-F9D641050EDE";
paths = (
{
closed = 1;
nodes = (
"422 -112 CURVE SMOOTH",
"422 -130 OFFCURVE",
"431 -157 OFFCURVE",
"467 -157 CURVE SMOOTH",
"507 -157 OFFCURVE",
"537 -122 OFFCURVE",
"545 -118 CURVE SMOOTH",
"547 -118 OFFCURVE",
"550 -122 OFFCURVE",
"550 -130 CURVE SMOOTH",
"550 -135 OFFCURVE",
"547 -148 OFFCURVE",
"544 -152 CURVE SMOOTH",
"526 -176 OFFCURVE",
"480 -221 OFFCURVE",
"430 -221 CURVE SMOOTH",
"386 -221 OFFCURVE",
"358 -184 OFFCURVE",
"358 -144 CURVE SMOOTH",
"358 -99 OFFCURVE",
"400 -34 OFFCURVE",
"434 1 CURVE",
"410 -4 OFFCURVE",
"386 -6 OFFCURVE",
"360 -6 CURVE SMOOTH",
"282 -6 OFFCURVE",
"211 19 OFFCURVE",
"165 70 CURVE SMOOTH",
"123 117 OFFCURVE",
"100 184 OFFCURVE",
"100 276 CURVE SMOOTH",
"100 528 LINE SMOOTH",
"100 564 OFFCURVE",
"101 594 OFFCURVE",
"94 612 CURVE SMOOTH",
"90 624 OFFCURVE",
"39 629 OFFCURVE",
"27 629 CURVE",
"23 635 OFFCURVE",
"23 656 OFFCURVE",
"27 662 CURVE",
"67 659 OFFCURVE",
"118 656 OFFCURVE",
"158 656 CURVE SMOOTH",
"198 656 OFFCURVE",
"247 659 OFFCURVE",
"287 662 CURVE",
"291 656 OFFCURVE",
"291 635 OFFCURVE",
"287 629 CURVE",
"275 629 OFFCURVE",
"224 624 OFFCURVE",
"220 612 CURVE SMOOTH",
"214 594 OFFCURVE",
"214 564 OFFCURVE",
"214 528 CURVE SMOOTH",
"214 313 LINE SMOOTH",
"214 237 OFFCURVE",
"223 182 OFFCURVE",
"251 136 CURVE",
"286 72 OFFCURVE",
"346 59 OFFCURVE",
"395 59 CURVE SMOOTH",
"487 59 OFFCURVE",
"571 118 OFFCURVE",
"573 292 CURVE",
"573 512 LINE SMOOTH",
"573 552 OFFCURVE",
"570 590 OFFCURVE",
"561 608 CURVE SMOOTH",
"554 622 OFFCURVE",
"502 630 OFFCURVE",
"488 630 CURVE",
"483 637 OFFCURVE",
"484 656 OFFCURVE",
"487 662 CURVE",
"531 659 OFFCURVE",
"560 656 OFFCURVE",
"605 656 CURVE SMOOTH",
"650 656 OFFCURVE",
"674 660 OFFCURVE",
"718 662 CURVE",
"722 656 OFFCURVE",
"723 639 OFFCURVE",
"718 630 CURVE",
"706 630 OFFCURVE",
"648 624 OFFCURVE",
"640 608 CURVE SMOOTH",
"632 590 OFFCURVE",
"628 553 OFFCURVE",
"628 513 CURVE SMOOTH",
"628 281 LINE SMOOTH",
"628 161 OFFCURVE",
"583 83 OFFCURVE",
"521 38 CURVE SMOOTH",
"483 10 OFFCURVE",
"422 -61 OFFCURVE"
);
}
);
width = 728;
}
);
unicode = 0172;
userData = {
com.fontlab.hintData = {
hhints = (
{
position = -221;
width = 64;
},
{
position = -6;
width = 65;
},
{
position = 629;
width = 33;
}
);
vhints = (
{
position = 100;
width = 114;
},
{
position = 358;
width = 64;
},
{
position = 573;
width = 55;
}
);
};
};
},
{
glyphname = V;
lastChange = "2017-07-12 19:24:35 +0000";
layers = (
{
layerId = "7ECBB128-A556-4919-8826-F9D641050EDE";
paths = (
{
closed = 1;
nodes = (
"126 656 CURVE SMOOTH",
"169 656 OFFCURVE",
"219 659 OFFCURVE",
"259 662 CURVE",
"262 656 OFFCURVE",
"262 633 OFFCURVE",
"258 629 CURVE",
"248 629 OFFCURVE",
"197 625 OFFCURVE",
"197 599 CURVE SMOOTH",
"197 586 OFFCURVE",
"206 559 OFFCURVE",
"218 528 CURVE SMOOTH",
"263 416 OFFCURVE",
"363 163 OFFCURVE",
"365 159 CURVE",
"368 166 OFFCURVE",
"477 431 OFFCURVE",
"512 522 CURVE SMOOTH",
"521 546 OFFCURVE",
"532 578 OFFCURVE",
"532 598 CURVE SMOOTH",
"532 623 OFFCURVE",
"471 629 OFFCURVE",
"459 629 CURVE",
"454 633 OFFCURVE",
"455 656 OFFCURVE",
"459 662 CURVE",
"501 659 OFFCURVE",
"529 656 OFFCURVE",
"571 656 CURVE SMOOTH",
"616 656 OFFCURVE",
"636 660 OFFCURVE",
"676 662 CURVE",
"680 656 OFFCURVE",
"679 633 OFFCURVE",
"675 629 CURVE",
"665 629 OFFCURVE",
"622 625 OFFCURVE",
"608 607 CURVE SMOOTH",
"594 590 OFFCURVE",
"577 551 OFFCURVE",
"563 515 CURVE SMOOTH",
"485 323 OFFCURVE",
"440 217 OFFCURVE",
"362 31 CURVE SMOOTH",
"352 9 OFFCURVE",
"331 -6 OFFCURVE",
"319 -6 CURVE SMOOTH",
"313 -6 OFFCURVE",
"311 2 OFFCURVE",
"307 8 CURVE",
"273 97 OFFCURVE",
"141 416 OFFCURVE",
"103 512 CURVE",
"89 546 OFFCURVE",
"76 578 OFFCURVE",
"63 601 CURVE SMOOTH",
"51 622 OFFCURVE",
"9 629 OFFCURVE",
"-3 629 CURVE",
"-6 633 OFFCURVE",
"-6 658 OFFCURVE",
"-3 662 CURVE",
"39 659 OFFCURVE",
"82 656 OFFCURVE"
);
}
);
width = 663;
}
);
unicode = 0056;
userData = {
com.fontlab.hintData = {
hhints = (
{
position = -6;
width = 21;
},
{
position = 629;
width = 33;
}
);
};
};
},
{
glyphname = W;
lastChange = "2017-07-12 19:24:35 +0000";
layers = (
{
layerId = "7ECBB128-A556-4919-8826-F9D641050EDE";
paths = (
{
closed = 1;
nodes = (
"131 656 CURVE SMOOTH",
"174 656 OFFCURVE",
"216 659 OFFCURVE",
"256 662 CURVE",
"259 656 OFFCURVE",
"259 633 OFFCURVE",
"255 629 CURVE",
"245 629 OFFCURVE",
"194 625 OFFCURVE",
"194 599 CURVE",
"194 588 OFFCURVE",
"204 561 OFFCURVE",
"214 529 CURVE SMOOTH",
"247 426 OFFCURVE",
"298 273 OFFCURVE",
"319 202 CURVE",
"343 280 OFFCURVE",
"432 545 OFFCURVE",
"459 627 CURVE SMOOTH",
"465 646 OFFCURVE",
"481 662 OFFCURVE",
"492 662 CURVE SMOOTH",
"496 662 OFFCURVE",
"500 657 OFFCURVE",
"504 646 CURVE",
"540 551 OFFCURVE",
"639 282 OFFCURVE",
"673 182 CURVE",
"695 258 OFFCURVE",
"751 436 OFFCURVE",
"775 522 CURVE SMOOTH",
"782 547 OFFCURVE",
"791 578 OFFCURVE",
"791 598 CURVE SMOOTH",
"791 623 OFFCURVE",
"730 629 OFFCURVE",
"718 629 CURVE",
"713 633 OFFCURVE",
"714 656 OFFCURVE",
"718 662 CURVE",
"760 659 OFFCURVE",
"789 656 OFFCURVE",
"831 656 CURVE SMOOTH",
"876 656 OFFCURVE",
"896 660 OFFCURVE",
"936 662 CURVE",
"940 656 OFFCURVE",
"939 633 OFFCURVE",
"935 629 CURVE",
"925 629 OFFCURVE",
"884 623 OFFCURVE",
"868 607 CURVE SMOOTH",
"854 591 OFFCURVE",
"842 566 OFFCURVE",
"830 528 CURVE SMOOTH",
"772 339 OFFCURVE",
"733 218 OFFCURVE",
"675 36 CURVE SMOOTH",
"668 14 OFFCURVE",
"648 -6 OFFCURVE",
"636 -6 CURVE SMOOTH",
"630 -6 OFFCURVE",
"624 2 OFFCURVE",
"621 8 CURVE",
"589 102 OFFCURVE",
"489 362 OFFCURVE",
"455 460 CURVE",
"427 368 OFFCURVE",
"369 198 OFFCURVE",
"318 38 CURVE SMOOTH",
"314 24 OFFCURVE",
"294 -6 OFFCURVE",
"282 -6 CURVE SMOOTH",
"276 -6 OFFCURVE",
"270 2 OFFCURVE",
"267 8 CURVE",
"238 100 OFFCURVE",
"128 423 OFFCURVE",
"97 521 CURVE",
"86 556 OFFCURVE",
"76 583 OFFCURVE",
"62 602 CURVE SMOOTH",
"49 622 OFFCURVE",
"12 629 OFFCURVE",
"-1 629 CURVE",
"-5 633 OFFCURVE",
"-4 658 OFFCURVE",
"-1 662 CURVE",
"42 659 OFFCURVE",
"87 656 OFFCURVE"
);
}
);
width = 928;
}
);
unicode = 0057;
userData = {
com.fontlab.hintData = {
hhints = (
{
position = -6;
width = 21;
},
{
position = 629;
width = 33;
}
);
};
};
},
{
glyphname = X;
lastChange = "2017-07-12 19:24:35 +0000";
layers = (
{
layerId = "7ECBB128-A556-4919-8826-F9D641050EDE";
paths = (
{
closed = 1;
nodes = (
"168 656 CURVE SMOOTH",
"217 656 OFFCURVE",
"264 660 OFFCURVE",
"304 662 CURVE",
"306 656 OFFCURVE",
"307 629 OFFCURVE",
"302 629 CURVE",
"288 629 OFFCURVE",
"245 622 OFFCURVE",
"245 602 CURVE SMOOTH",
"245 595 OFFCURVE",
"249 585 OFFCURVE",
"255 576 CURVE SMOOTH",
"369 403 LINE",
"421 471 OFFCURVE",
"490 557 OFFCURVE",
"505 588 CURVE SMOOTH",
"506 592 OFFCURVE",
"509 597 OFFCURVE",
"509 601 CURVE SMOOTH",
"509 613 OFFCURVE",
"483 628 OFFCURVE",
"438 628 CURVE",
"434 628 OFFCURVE",
"432 656 OFFCURVE",
"436 662 CURVE",
"474 658 OFFCURVE",
"519 656 OFFCURVE",
"556 656 CURVE SMOOTH",
"608 656 OFFCURVE",
"645 659 OFFCURVE",
"671 662 CURVE",
"674 656 OFFCURVE",
"676 631 OFFCURVE",
"670 628 CURVE",
"662 628 OFFCURVE",
"606 626 OFFCURVE",
"570 582 CURVE",
"532 534 OFFCURVE",
"429 413 OFFCURVE",
"393 365 CURVE",
"435 301 OFFCURVE",
"583 79 OFFCURVE",
"591 71 CURVE",
"615 39 OFFCURVE",
"665 29 OFFCURVE",
"689 29 CURVE",
"693 22 OFFCURVE",
"693 1 OFFCURVE",
"690 -4 CURVE",
"650 -2 OFFCURVE",
"599 2 OFFCURVE",
"558 2 CURVE SMOOTH",
"502 2 OFFCURVE",
"462 -2 OFFCURVE",
"406 -4 CURVE",
"401 1 OFFCURVE",
"402 29 OFFCURVE",
"407 29 CURVE SMOOTH",
"418 29 OFFCURVE",
"464 40 OFFCURVE",
"464 58 CURVE SMOOTH",
"464 61 OFFCURVE",
"462 66 OFFCURVE",
"460 69 CURVE SMOOTH",
"318 286 LINE",
"280 236 OFFCURVE",
"189 112 OFFCURVE",
"167 74 CURVE SMOOTH",
"164 68 OFFCURVE",
"160 62 OFFCURVE",
"160 58 CURVE SMOOTH",
"160 43 OFFCURVE",
"196 29 OFFCURVE",
"239 29 CURVE",
"243 23 OFFCURVE",
"244 3 OFFCURVE",
"242 -4 CURVE",
"207 -2 OFFCURVE",
"156 2 OFFCURVE",
"119 2 CURVE SMOOTH",
"67 2 OFFCURVE",
"34 -2 OFFCURVE",
"-6 -4 CURVE",
"-10 2 OFFCURVE",
"-8 24 OFFCURVE",
"-5 29 CURVE",
"3 29 OFFCURVE",
"70 32 OFFCURVE",
"100 72 CURVE",
"138 120 OFFCURVE",
"254 279 OFFCURVE",
"290 327 CURVE",
"270 357 OFFCURVE",
"149 542 OFFCURVE",
"149 542 CURVE SMOOTH",
"129 574 OFFCURVE",
"110 601 OFFCURVE",
"89 614 CURVE SMOOTH",
"73 624 OFFCURVE",
"39 629 OFFCURVE",
"27 629 CURVE",
"22 629 OFFCURVE",
"22 657 OFFCURVE",
"27 662 CURVE",
"76 660 OFFCURVE",
"119 656 OFFCURVE"
);
}
);
width = 690;
}
);
unicode = 0058;
userData = {
com.fontlab.hintData = {
hhints = (
{
position = -4;
width = 33;
},
{
position = 629;
width = 33;
}
);
};
};
},
{
glyphname = Y;
lastChange = "2017-07-12 19:24:35 +0000";
layers = (
{
layerId = "7ECBB128-A556-4919-8826-F9D641050EDE";
paths = (
{
closed = 1;
nodes = (
"247 130 CURVE SMOOTH",
"247 276 LINE SMOOTH",
"247 283 OFFCURVE",
"244 291 OFFCURVE",
"240 300 CURVE SMOOTH",
"198 380 OFFCURVE",
"136 489 OFFCURVE",
"107 542 CURVE",
"89 574 OFFCURVE",
"78 586 OFFCURVE",
"58 604 CURVE SMOOTH",
"42 622 OFFCURVE",
"8 629 OFFCURVE",
"-4 629 CURVE",
"-9 633 OFFCURVE",
"-8 656 OFFCURVE",
"-4 662 CURVE",
"40 659 OFFCURVE",
"84 656 OFFCURVE",
"130 656 CURVE SMOOTH",
"175 656 OFFCURVE",
"225 659 OFFCURVE",
"265 662 CURVE",
"268 656 OFFCURVE",
"269 633 OFFCURVE",
"264 629 CURVE",
"250 629 OFFCURVE",
"203 626 OFFCURVE",
"203 600 CURVE SMOOTH",
"203 594 OFFCURVE",
"207 586 OFFCURVE",
"213 576 CURVE SMOOTH",
"341 348 LINE",
"368 390 OFFCURVE",
"442 529 OFFCURVE",
"470 585 CURVE SMOOTH",
"472 591 OFFCURVE",
"474 598 OFFCURVE",
"474 604 CURVE SMOOTH",
"474 616 OFFCURVE",
"435 628 OFFCURVE",
"401 628 CURVE",
"397 632 OFFCURVE",
"397 658 OFFCURVE",
"400 662 CURVE",
"442 659 OFFCURVE",
"466 656 OFFCURVE",
"508 656 CURVE SMOOTH",
"556 656 OFFCURVE",
"579 660 OFFCURVE",
"619 662 CURVE",
"622 656 OFFCURVE",
"622 632 OFFCURVE",
"618 628 CURVE",
"608 628 OFFCURVE",
"556 628 OFFCURVE",
"537 596 CURVE SMOOTH",
"508 548 OFFCURVE",
"402 370 OFFCURVE",
"366 300 CURVE SMOOTH",
"361 291 OFFCURVE",
"361 282 OFFCURVE",
"361 274 CURVE SMOOTH",
"361 130 LINE SMOOTH",
"361 94 OFFCURVE",
"361 64 OFFCURVE",
"367 46 CURVE SMOOTH",
"371 34 OFFCURVE",
"421 29 OFFCURVE",
"433 29 CURVE",
"437 23 OFFCURVE",
"437 2 OFFCURVE",
"433 -4 CURVE",
"393 -1 OFFCURVE",
"343 2 OFFCURVE",
"303 2 CURVE SMOOTH",
"263 2 OFFCURVE",
"214 -1 OFFCURVE",
"174 -4 CURVE",
"170 2 OFFCURVE",
"170 23 OFFCURVE",
"174 29 CURVE",
"186 29 OFFCURVE",
"236 34 OFFCURVE",
"240 46 CURVE SMOOTH",
"246 64 OFFCURVE",
"247 94 OFFCURVE"
);
}
);
width = 611;
}
);
unicode = 0059;
userData = {
com.fontlab.hintData = {
hhints = (
{
position = -4;
width = 33;
},
{
position = 629;
width = 33;
}
);
vhints = (
{
position = 247;
width = 114;
}
);
};
};
},
{
glyphname = Z;
lastChange = "2017-07-12 19:24:35 +0000";
layers = (
{
layerId = "7ECBB128-A556-4919-8826-F9D641050EDE";
paths = (
{
closed = 1;
nodes = (
"224 617 LINE SMOOTH",
"137 617 OFFCURVE",
"107 555 OFFCURVE",
"84 483 CURVE",
"82 480 OFFCURVE",
"79 478 OFFCURVE",
"71 478 CURVE SMOOTH",
"61 478 OFFCURVE",
"47 481 OFFCURVE",
"44 484 CURVE",
"58 536 OFFCURVE",
"70 600 OFFCURVE",
"78 666 CURVE",
"96 662 OFFCURVE",
"165 658 OFFCURVE",
"185 658 CURVE",
"352 658 LINE SMOOTH",
"436 658 OFFCURVE",
"489 662 OFFCURVE",
"573 668 CURVE",
"577 667 OFFCURVE",
"587 650 OFFCURVE",
"587 641 CURVE",
"585 633 OFFCURVE",
"181 42 OFFCURVE",
"181 42 CURVE",
"419 42 LINE SMOOTH",
"459 42 OFFCURVE",
"492 56 OFFCURVE",
"514 78 CURVE SMOOTH",
"539 103 OFFCURVE",
"552 134 OFFCURVE",
"566 171 CURVE SMOOTH",
"567 174 OFFCURVE",
"574 176 OFFCURVE",
"580 176 CURVE SMOOTH",
"590 176 OFFCURVE",
"603 172 OFFCURVE",
"607 168 CURVE",
"587 102 OFFCURVE",
"566 47 OFFCURVE",
"556 0 CURVE",
"535 0 OFFCURVE",
"146 0 OFFCURVE",
"49 0 CURVE",
"37 0 OFFCURVE",
"24 13 OFFCURVE",
"27 18 CURVE SMOOTH",
"437 617 LINE"
);
}
);
width = 636;
}
);
unicode = 005A;
userData = {
com.fontlab.hintData = {
hhints = (
{
position = 0;
width = 42;
},
{
position = 617;
width = 41;
},
{
position = 646;
width = 20;
}
);
vhints = (
{
position = 44;
width = 40;
}
);
};
};
},
{
glyphname = a;
lastChange = "2017-07-12 19:24:35 +0000";
layers = (
{
layerId = "7ECBB128-A556-4919-8826-F9D641050EDE";
paths = (
{
closed = 1;
nodes = (
"207 54 CURVE SMOOTH",
"237 54 OFFCURVE",
"271 77 OFFCURVE",
"271 85 CURVE SMOOTH",
"271 223 LINE",
"247 214 OFFCURVE",
"210 202 OFFCURVE",
"191 192 CURVE SMOOTH",
"159 176 OFFCURVE",
"142 150 OFFCURVE",
"142 120 CURVE SMOOTH",
"142 80 OFFCURVE",
"175 54 OFFCURVE"
);
},
{
closed = 1;
nodes = (
"244 442 CURVE SMOOTH",
"314 442 OFFCURVE",
"374 382 OFFCURVE",
"374 298 CURVE SMOOTH",
"374 101 LINE SMOOTH",
"374 74 OFFCURVE",
"383 57 OFFCURVE",
"401 57 CURVE SMOOTH",
"417 57 OFFCURVE",
"428 66 OFFCURVE",
"432 68 CURVE",
"436 67 OFFCURVE",
"437 60 OFFCURVE",
"437 56 CURVE",
"437 50 OFFCURVE",
"436 44 OFFCURVE",
"433 39 CURVE",
"420 27 OFFCURVE",
"376 -6 OFFCURVE",
"344 -6 CURVE SMOOTH",
"313 -6 OFFCURVE",
"283 24 OFFCURVE",
"275 52 CURVE",
"265 42 OFFCURVE",
"193 -8 OFFCURVE",
"157 -8 CURVE SMOOTH",
"86 -8 OFFCURVE",
"33 48 OFFCURVE",
"33 110 CURVE SMOOTH",
"33 150 OFFCURVE",
"61 182 OFFCURVE",
"85 190 CURVE SMOOTH",
"132 206 OFFCURVE",
"225 241 OFFCURVE",
"265 257 CURVE",
"270 263 OFFCURVE",
"271 268 OFFCURVE",
"271 280 CURVE SMOOTH",
"271 306 LINE SMOOTH",
"271 354 OFFCURVE",
"240 404 OFFCURVE",
"198 404 CURVE SMOOTH",
"162 404 OFFCURVE",
"149 374 OFFCURVE",
"141 332 CURVE SMOOTH",
"135 304 OFFCURVE",
"120 286 OFFCURVE",
"90 286 CURVE SMOOTH",
"66 286 OFFCURVE",
"47 306 OFFCURVE",
"47 330 CURVE SMOOTH",
"47 338 OFFCURVE",
"51 353 OFFCURVE",
"57 363 CURVE",
"79 384 OFFCURVE",
"164 442 OFFCURVE"
);
}
);
width = 452;
}
);
unicode = 0061;
userData = {
com.fontlab.hintData = {
hhints = (
{
position = -8;
width = 62;
},
{
position = 404;
width = 38;
}
);
vhints = (
{
position = 33;
width = 109;
},
{
position = 47;
width = 94;
},
{
position = 271;
width = 103;
}
);
};
};
},
{
glyphname = aogonek;
lastChange = "2017-07-12 19:24:35 +0000";
layers = (
{
layerId = "7ECBB128-A556-4919-8826-F9D641050EDE";
paths = (
{
closed = 1;
nodes = (
"433 39 CURVE",
"425 32 OFFCURVE",
"405 16 OFFCURVE",
"385 6 CURVE SMOOTH",
"331 -22 OFFCURVE",
"268 -64 OFFCURVE",
"268 -108 CURVE SMOOTH",
"268 -126 OFFCURVE",
"277 -154 OFFCURVE",
"313 -154 CURVE SMOOTH",
"353 -154 OFFCURVE",
"383 -119 OFFCURVE",
"391 -115 CURVE SMOOTH",
"393 -115 OFFCURVE",
"396 -119 OFFCURVE",
"396 -127 CURVE SMOOTH",
"396 -132 OFFCURVE",
"393 -144 OFFCURVE",
"390 -148 CURVE SMOOTH",
"372 -172 OFFCURVE",
"326 -218 OFFCURVE",
"276 -218 CURVE SMOOTH",
"232 -218 OFFCURVE",
"204 -180 OFFCURVE",
"204 -140 CURVE SMOOTH",
"204 -87 OFFCURVE",
"264 -28 OFFCURVE",
"319 0 CURVE",
"298 10 OFFCURVE",
"280 32 OFFCURVE",
"275 52 CURVE",
"265 42 OFFCURVE",
"193 -8 OFFCURVE",
"157 -8 CURVE SMOOTH",
"86 -8 OFFCURVE",
"33 48 OFFCURVE",
"33 110 CURVE SMOOTH",
"33 150 OFFCURVE",
"61 182 OFFCURVE",
"85 190 CURVE SMOOTH",
"132 206 OFFCURVE",
"225 241 OFFCURVE",
"265 257 CURVE",
"270 263 OFFCURVE",
"271 268 OFFCURVE",
"271 280 CURVE SMOOTH",
"271 306 LINE SMOOTH",
"271 354 OFFCURVE",
"240 404 OFFCURVE",
"198 404 CURVE SMOOTH",
"162 404 OFFCURVE",
"149 374 OFFCURVE",
"141 332 CURVE SMOOTH",
"135 304 OFFCURVE",
"120 286 OFFCURVE",
"90 286 CURVE SMOOTH",
"66 286 OFFCURVE",
"47 306 OFFCURVE",
"47 330 CURVE SMOOTH",
"47 338 OFFCURVE",
"51 353 OFFCURVE",
"57 363 CURVE",
"79 384 OFFCURVE",
"164 442 OFFCURVE",
"244 442 CURVE SMOOTH",
"314 442 OFFCURVE",
"374 382 OFFCURVE",
"374 298 CURVE SMOOTH",
"374 101 LINE SMOOTH",
"374 74 OFFCURVE",
"383 57 OFFCURVE",
"401 57 CURVE SMOOTH",
"417 57 OFFCURVE",
"428 66 OFFCURVE",
"432 68 CURVE",
"436 67 OFFCURVE",
"437 60 OFFCURVE",
"437 56 CURVE SMOOTH",
"437 50 OFFCURVE",
"436 44 OFFCURVE"
);
},
{
closed = 1;
nodes = (
"207 54 CURVE SMOOTH",
"237 54 OFFCURVE",
"271 77 OFFCURVE",
"271 85 CURVE SMOOTH",
"271 223 LINE",
"247 214 OFFCURVE",
"210 202 OFFCURVE",
"191 192 CURVE SMOOTH",
"159 176 OFFCURVE",
"142 150 OFFCURVE",
"142 120 CURVE SMOOTH",
"143 80 OFFCURVE",
"175 54 OFFCURVE"
);
}
);
width = 452;
}
);
unicode = 0105;
userData = {
com.fontlab.hintData = {
hhints = (
{
position = -218;
width = 64;
},
{
position = -8;
width = 62;
},
{
position = 404;
width = 38;
}
);
vhints = (
{
position = 33;
width = 109;
},
{
position = 47;
width = 94;
},
{
position = 204;
width = 64;
},
{
position = 271;
width = 103;
}
);
};
};
},
{
glyphname = ae;
lastChange = "2017-07-12 19:24:35 +0000";
layers = (
{
layerId = "7ECBB128-A556-4919-8826-F9D641050EDE";
paths = (
{
closed = 1;
nodes = (
"191 192 CURVE SMOOTH",
"159 176 OFFCURVE",
"142 150 OFFCURVE",
"142 120 CURVE SMOOTH",
"142 80 OFFCURVE",
"175 54 OFFCURVE",
"207 54 CURVE SMOOTH",
"237 54 OFFCURVE",
"287 79 OFFCURVE",
"287 103 CURVE",
"279 123 OFFCURVE",
"272 162 OFFCURVE",
"270 194 CURVE SMOOTH",
"269 205 OFFCURVE",
"270 211 OFFCURVE",
"270 222 CURVE",
"248 214 OFFCURVE",
"209 202 OFFCURVE"
);
},
{
closed = 1;
nodes = (
"461 404 CURVE",
"389 404 OFFCURVE",
"368 300 OFFCURVE",
"369 283 CURVE",
"378 283 OFFCURVE",
"498 285 OFFCURVE",
"515 287 CURVE SMOOTH",
"527 287 OFFCURVE",
"533 295 OFFCURVE",
"533 307 CURVE",
"533 342 OFFCURVE",
"514 404 OFFCURVE"
);
},
{
closed = 1;
nodes = (
"475 442 CURVE SMOOTH",
"601 442 OFFCURVE",
"637 348 OFFCURVE",
"637 299 CURVE SMOOTH",
"637 273 OFFCURVE",
"628 255 OFFCURVE",
"611 254 CURVE SMOOTH",
"561 250 OFFCURVE",
"408 246 OFFCURVE",
"365 245 CURVE",
"363 111 OFFCURVE",
"451 66 OFFCURVE",
"517 66 CURVE SMOOTH",
"573 66 OFFCURVE",
"611 98 OFFCURVE",
"628 117 CURVE",
"632 116 OFFCURVE",
"638 108 OFFCURVE",
"638 101 CURVE",
"638 95 OFFCURVE",
"635 86 OFFCURVE",
"633 82 CURVE SMOOTH",
"615 54 OFFCURVE",
"556 -8 OFFCURVE",
"470 -8 CURVE SMOOTH",
"406 -8 OFFCURVE",
"341 18 OFFCURVE",
"307 70 CURVE",
"269 37 OFFCURVE",
"191 -8 OFFCURVE",
"157 -8 CURVE SMOOTH",
"86 -8 OFFCURVE",
"33 48 OFFCURVE",
"33 110 CURVE SMOOTH",
"33 150 OFFCURVE",
"59 180 OFFCURVE",
"83 190 CURVE SMOOTH",
"126 208 OFFCURVE",
"227 244 OFFCURVE",
"267 260 CURVE",
"274 264 OFFCURVE",
"276 270 OFFCURVE",
"277 278 CURVE SMOOTH",
"278 289 OFFCURVE",
"278 298 OFFCURVE",
"277 310 CURVE SMOOTH",
"272 361 OFFCURVE",
"240 404 OFFCURVE",
"198 404 CURVE SMOOTH",
"162 404 OFFCURVE",
"149 373 OFFCURVE",
"141 331 CURVE SMOOTH",
"135 303 OFFCURVE",
"120 286 OFFCURVE",
"90 286 CURVE SMOOTH",
"66 286 OFFCURVE",
"47 306 OFFCURVE",
"47 330 CURVE SMOOTH",
"47 340 OFFCURVE",
"51 354 OFFCURVE",
"57 363 CURVE",
"75 381 OFFCURVE",
"163 442 OFFCURVE",
"243 442 CURVE SMOOTH",
"288 442 OFFCURVE",
"326 418 OFFCURVE",
"348 384 CURVE",
"378 413 OFFCURVE",
"423 442 OFFCURVE"
);
}
);
width = 674;
}
);
unicode = 00E6;
userData = {
com.fontlab.hintData = {
hhints = (
{
position = -8;
width = 74;
},
{
position = -8;
width = 62;
},
{
position = 245;
width = 38;
},
{
position = 254;
width = 33;
},
{
position = 404;
width = 38;
}
);
vhints = (
{
position = 33;
width = 109;
},
{
position = 47;
width = 94;
},
{
position = 270;
width = 95;
},
{
position = 533;
width = 104;
}
);
};
};
},
{
glyphname = b;
lastChange = "2017-07-12 19:24:35 +0000";
layers = (
{
layerId = "7ECBB128-A556-4919-8826-F9D641050EDE";
paths = (
{
closed = 1;
nodes = (
"226 -8 CURVE SMOOTH",
"192 -8 OFFCURVE",
"149 9 OFFCURVE",
"126 12 CURVE SMOOTH",
"106 15 OFFCURVE",
"90 17 OFFCURVE",
"75 11 CURVE",
"71 11 OFFCURVE",
"57 28 OFFCURVE",
"57 34 CURVE",
"65 53 OFFCURVE",
"69 88 OFFCURVE",
"69 131 CURVE SMOOTH",
"69 558 LINE SMOOTH",
"69 573 OFFCURVE",
"69 594 OFFCURVE",
"63 608 CURVE SMOOTH",
"57 621 OFFCURVE",
"22 626 OFFCURVE",
"2 626 CURVE",
"0 626 OFFCURVE",
"-1 653 OFFCURVE",
"3 655 CURVE",
"84 663 OFFCURVE",
"148 684 OFFCURVE",
"170 694 CURVE",
"176 694 OFFCURVE",
"183 684 OFFCURVE",
"183 678 CURVE",
"183 678 OFFCURVE",
"172 640 OFFCURVE",
"172 584 CURVE SMOOTH",
"172 404 LINE SMOOTH",
"172 399 OFFCURVE",
"172 388 OFFCURVE",
"178 393 CURVE SMOOTH",
"193 405 OFFCURVE",
"252 443 OFFCURVE",
"288 443 CURVE SMOOTH",
"406 443 OFFCURVE",
"484 341 OFFCURVE",
"484 234 CURVE SMOOTH",
"484 88 OFFCURVE",
"362 -8 OFFCURVE"
);
},
{
closed = 1;
nodes = (
"239 377 CURVE SMOOTH",
"212 377 OFFCURVE",
"185 362 OFFCURVE",
"176 352 CURVE SMOOTH",
"173 349 OFFCURVE",
"172 346 OFFCURVE",
"172 342 CURVE SMOOTH",
"172 98 LINE SMOOTH",
"172 60 OFFCURVE",
"209 31 OFFCURVE",
"252 31 CURVE SMOOTH",
"320 31 OFFCURVE",
"370 117 OFFCURVE",
"370 195 CURVE SMOOTH",
"370 321 OFFCURVE",
"315 377 OFFCURVE"
);
}
);
width = 520;
}
);
unicode = 0062;
userData = {
com.fontlab.hintData = {
hhints = (
{
position = -8;
width = 39;
},
{
position = 377;
width = 66;
},
{
position = 626;
width = 29;
},
{
position = 674;
width = 20;
}
);
vhints = (
{
position = 69;
width = 103;
},
{
position = 370;
width = 114;
}
);
};
};
},
{
glyphname = c;
lastChange = "2017-07-12 19:24:35 +0000";
layers = (
{
layerId = "7ECBB128-A556-4919-8826-F9D641050EDE";
paths = (
{
closed = 1;
nodes = (
"397 384 CURVE SMOOTH",
"397 352 OFFCURVE",
"375 329 OFFCURVE",
"349 329 CURVE",
"325 329 OFFCURVE",
"307 356 OFFCURVE",
"291 370 CURVE SMOOTH",
"272 386 OFFCURVE",
"254 395 OFFCURVE",
"228 395 CURVE SMOOTH",
"180 395 OFFCURVE",
"137 325 OFFCURVE",
"137 242 CURVE SMOOTH",
"137 114 OFFCURVE",
"213 67 OFFCURVE",
"290 67 CURVE SMOOTH",
"346 67 OFFCURVE",
"382 98 OFFCURVE",
"399 117 CURVE",
"403 116 OFFCURVE",
"409 108 OFFCURVE",
"409 101 CURVE",
"409 95 OFFCURVE",
"407 86 OFFCURVE",
"405 82 CURVE SMOOTH",
"387 54 OFFCURVE",
"327 -8 OFFCURVE",
"241 -8 CURVE SMOOTH",
"125 -8 OFFCURVE",
"35 79 OFFCURVE",
"35 197 CURVE SMOOTH",
"35 331 OFFCURVE",
"166 443 OFFCURVE",
"287 443 CURVE SMOOTH",
"332 443 OFFCURVE",
"365 434 OFFCURVE",
"383 422 CURVE",
"389 415 OFFCURVE",
"397 402 OFFCURVE"
);
}
);
width = 434;
}
);
unicode = 0063;
userData = {
com.fontlab.hintData = {
hhints = (
{
position = -8;
width = 75;
},
{
position = 395;
width = 48;
}
);
vhints = (
{
position = 35;
width = 102;
}
);
};
};
},
{
glyphname = d;
lastChange = "2017-07-12 19:24:35 +0000";
layers = (
{
layerId = "7ECBB128-A556-4919-8826-F9D641050EDE";
paths = (
{
closed = 1;
nodes = (
"286 442 CURVE SMOOTH",
"307 442 OFFCURVE",
"332 438 OFFCURVE",
"341 436 CURVE",
"345 436 OFFCURVE",
"346 448 OFFCURVE",
"346 458 CURVE",
"346 470 OFFCURVE",
"346 542 OFFCURVE",
"346 558 CURVE",
"346 574 OFFCURVE",
"346 594 OFFCURVE",
"340 608 CURVE SMOOTH",
"334 621 OFFCURVE",
"300 626 OFFCURVE",
"280 626 CURVE",
"278 626 OFFCURVE",
"276 653 OFFCURVE",
"280 655 CURVE",
"361 663 OFFCURVE",
"426 684 OFFCURVE",
"448 694 CURVE",
"454 694 OFFCURVE",
"460 684 OFFCURVE",
"460 678 CURVE",
"460 678 OFFCURVE",
"450 640 OFFCURVE",
"450 584 CURVE SMOOTH",
"450 136 LINE SMOOTH",
"450 109 OFFCURVE",
"450 80 OFFCURVE",
"458 68 CURVE SMOOTH",
"466 54 OFFCURVE",
"504 54 OFFCURVE",
"510 54 CURVE",
"512 52 OFFCURVE",
"512 46 OFFCURVE",
"512 41 CURVE SMOOTH",
"512 37 OFFCURVE",
"510 27 OFFCURVE",
"506 24 CURVE",
"450 20 OFFCURVE",
"361 -8 OFFCURVE",
"354 -8 CURVE SMOOTH",
"349 -8 OFFCURVE",
"346 3 OFFCURVE",
"346 14 CURVE SMOOTH",
"346 40 LINE SMOOTH",
"346 44 OFFCURVE",
"345 47 OFFCURVE",
"343 45 CURVE SMOOTH",
"327 31 OFFCURVE",
"265 -8 OFFCURVE",
"215 -8 CURVE SMOOTH",
"121 -8 OFFCURVE",
"36 83 OFFCURVE",
"36 203 CURVE SMOOTH",
"36 353 OFFCURVE",
"196 442 OFFCURVE"
);
},
{
closed = 1;
nodes = (
"254 396 CURVE SMOOTH",
"184 396 OFFCURVE",
"149 318 OFFCURVE",
"149 236 CURVE SMOOTH",
"149 134 OFFCURVE",
"194 55 OFFCURVE",
"270 55 CURVE SMOOTH",
"306 55 OFFCURVE",
"346 80 OFFCURVE",
"346 94 CURVE SMOOTH",
"346 348 LINE SMOOTH",
"346 368 OFFCURVE",
"303 396 OFFCURVE"
);
}
);
width = 533;
}
);
unicode = 0064;
userData = {
com.fontlab.hintData = {
hhints = (
{
position = -8;
width = 63;
},
{
position = 24;
width = 30;
},
{
position = 396;
width = 46;
},
{
position = 626;
width = 29;
},
{
position = 674;
width = 20;
}
);
vhints = (
{
position = 36;
width = 113;
},
{
position = 346;
width = 104;
}
);
};
};
},
{
glyphname = eth;
lastChange = "2017-07-12 19:24:35 +0000";
layers = (
{
layerId = "7ECBB128-A556-4919-8826-F9D641050EDE";
paths = (
{
closed = 1;
nodes = (
"247 444 CURVE SMOOTH",
"274 444 OFFCURVE",
"301 440 OFFCURVE",
"321 432 CURVE",
"306.598 472.806 OFFCURVE",
"282.113 524.415 OFFCURVE",
"231.122 573.429 CURVE",
"131 506 LINE",
"125 512 OFFCURVE",
"107 533 OFFCURVE",
"113 539 CURVE SMOOTH",
"201.68 598.968 LINE",
"171.841 622.364 OFFCURVE",
"134.928 644.569 OFFCURVE",
"89 664 CURVE",
"88 673 OFFCURVE",
"91 687 OFFCURVE",
"99 690 CURVE",
"141.652 681.798 OFFCURVE",
"194.172 660.737 OFFCURVE",
"245.768 628.782 CURVE",
"357 704 LINE",
"363 698 OFFCURVE",
"382 677 OFFCURVE",
"376 671 CURVE SMOOTH",
"279.623 606.093 LINE",
"310.448 583.788 OFFCURVE",
"340.05 557.609 OFFCURVE",
"366 528 CURVE SMOOTH",
"429 456 OFFCURVE",
"476 364 OFFCURVE",
"476 253 CURVE SMOOTH",
"476 96 OFFCURVE",
"377 -6 OFFCURVE",
"259 -6 CURVE SMOOTH",
"138 -6 OFFCURVE",
"37 74 OFFCURVE",
"37 214 CURVE SMOOTH",
"37 346 OFFCURVE",
"129 444 OFFCURVE"
);
},
{
closed = 1;
nodes = (
"249 406 CURVE SMOOTH",
"173 406 OFFCURVE",
"149 312 OFFCURVE",
"149 220 CURVE SMOOTH",
"149 113 OFFCURVE",
"202 32 OFFCURVE",
"262 32 CURVE SMOOTH",
"335 32 OFFCURVE",
"363 120 OFFCURVE",
"363 214 CURVE SMOOTH",
"363 267 OFFCURVE",
"354 320 OFFCURVE",
"338 352 CURVE SMOOTH",
"318 387 OFFCURVE",
"290 406 OFFCURVE"
);
}
);
width = 530;
}
);
unicode = 00F0;
userData = {
com.fontlab.hintData = {
hhints = (
{
position = -6;
width = 38;
},
{
position = 406;
width = 38;
},
{
position = 664;
width = 26;
}
);
vhints = (
{
position = 37;
width = 112;
},
{
position = 363;
width = 113;
}
);
};
};
},
{
glyphname = dcroat;
lastChange = "2017-07-12 19:24:35 +0000";
layers = (
{
components = (
{
name = d;
}
);
layerId = "7ECBB128-A556-4919-8826-F9D641050EDE";
paths = (
{
closed = 1;
nodes = (
"204 562 CURVE",
"233 562 OFFCURVE",
"487 562 OFFCURVE",
"501 562 CURVE",
"504 562 OFFCURVE",
"506 558 OFFCURVE",
"506 554 CURVE",
"506 547 OFFCURVE",
"504 533 OFFCURVE",
"501 526 CURVE",
"472 526 OFFCURVE",
"218 526 OFFCURVE",
"204 526 CURVE",
"201 526 OFFCURVE",
"199 532 OFFCURVE",
"199 536 CURVE",
"199 543 OFFCURVE",
"200 556 OFFCURVE"
);
}
);
width = 533;
}
);
unicode = 0111;
userData = {
com.fontlab.hintData = {
hhints = (
{
position = -8;
width = 63;
},
{
position = 24;
width = 30;
},
{
position = 396;
width = 46;
},
{
position = 526;
width = 36;
},
{
position = 626;
width = 29;
},
{
position = 674;
width = 20;
}
);
vhints = (
{
position = 36;
width = 113;
},
{
position = 346;
width = 104;
}
);
};
};
},
{
glyphname = e;
lastChange = "2017-07-12 19:24:35 +0000";
layers = (
{
layerId = "7ECBB128-A556-4919-8826-F9D641050EDE";
paths = (
{
closed = 1;
nodes = (
"140 283 CURVE",
"149 283 OFFCURVE",
"269 285 OFFCURVE",
"286 287 CURVE SMOOTH",
"298 287 OFFCURVE",
"304 295 OFFCURVE",
"304 307 CURVE",
"304 342 OFFCURVE",
"285 404 OFFCURVE",
"232 404 CURVE",
"160 404 OFFCURVE",
"139 300 OFFCURVE"
);
},
{
closed = 1;
nodes = (
"136 245 CURVE",
"134 111 OFFCURVE",
"222 66 OFFCURVE",
"288 66 CURVE SMOOTH",
"344 66 OFFCURVE",
"383 98 OFFCURVE",
"400 117 CURVE",
"404 116 OFFCURVE",
"410 108 OFFCURVE",
"410 101 CURVE",
"410 95 OFFCURVE",
"407 86 OFFCURVE",
"405 82 CURVE SMOOTH",
"387 54 OFFCURVE",
"328 -8 OFFCURVE",
"242 -8 CURVE SMOOTH",
"127 -8 OFFCURVE",
"36 76 OFFCURVE",
"36 200 CURVE SMOOTH",
"36 330 OFFCURVE",
"144 442 OFFCURVE",
"246 442 CURVE SMOOTH",
"372 442 OFFCURVE",
"408 348 OFFCURVE",
"408 299 CURVE SMOOTH",
"408 273 OFFCURVE",
"400 255 OFFCURVE",
"383 254 CURVE SMOOTH",
"333 250 OFFCURVE",
"179 246 OFFCURVE"
);
}
);
width = 445;
}
);
unicode = 0065;
userData = {
com.fontlab.hintData = {
hhints = (
{
position = -8;
width = 74;
},
{
position = 245;
width = 38;
},
{
position = 254;
width = 33;
},
{
position = 404;
width = 38;
}
);
vhints = (
{
position = 36;
width = 100;
},
{
position = 304;
width = 104;
}
);
};
};
},
{
glyphname = eogonek;
lastChange = "2017-07-12 19:24:35 +0000";
layers = (
{
layerId = "7ECBB128-A556-4919-8826-F9D641050EDE";
paths = (
{
closed = 1;
nodes = (
"356 31 CURVE SMOOTH",
"295 -18 OFFCURVE",
"262 -61 OFFCURVE",
"262 -112 CURVE SMOOTH",
"262 -130 OFFCURVE",
"272 -157 OFFCURVE",
"308 -157 CURVE SMOOTH",
"348 -157 OFFCURVE",
"378 -122 OFFCURVE",
"386 -118 CURVE",
"388 -118 OFFCURVE",
"390 -122 OFFCURVE",
"390 -130 CURVE SMOOTH",
"390 -135 OFFCURVE",
"388 -148 OFFCURVE",
"385 -152 CURVE SMOOTH",
"367 -176 OFFCURVE",
"321 -221 OFFCURVE",
"271 -221 CURVE SMOOTH",
"227 -221 OFFCURVE",
"198 -184 OFFCURVE",
"198 -144 CURVE SMOOTH",
"198 -96 OFFCURVE",
"236 -39 OFFCURVE",
"271 -6 CURVE",
"262 -8 OFFCURVE",
"252 -8 OFFCURVE",
"242 -8 CURVE SMOOTH",
"127 -8 OFFCURVE",
"36 76 OFFCURVE",
"36 200 CURVE SMOOTH",
"36 330 OFFCURVE",
"144 442 OFFCURVE",
"246 442 CURVE SMOOTH",
"372 442 OFFCURVE",
"408 348 OFFCURVE",
"408 299 CURVE SMOOTH",
"408 273 OFFCURVE",
"400 255 OFFCURVE",
"383 254 CURVE SMOOTH",
"333 250 OFFCURVE",
"179 246 OFFCURVE",
"136 245 CURVE",
"134 111 OFFCURVE",
"222 66 OFFCURVE",
"288 66 CURVE SMOOTH",
"344 66 OFFCURVE",
"383 98 OFFCURVE",
"400 117 CURVE",
"404 116 OFFCURVE",
"410 108 OFFCURVE",
"410 101 CURVE SMOOTH",
"410 95 OFFCURVE",
"407 86 OFFCURVE",
"405 82 CURVE SMOOTH",
"397 69 OFFCURVE",
"379 49 OFFCURVE"
);
},
{
closed = 1;
nodes = (
"140 283 CURVE",
"149 283 OFFCURVE",
"269 285 OFFCURVE",
"286 287 CURVE SMOOTH",
"298 287 OFFCURVE",
"304 295 OFFCURVE",
"304 307 CURVE SMOOTH",
"304 342 OFFCURVE",
"285 404 OFFCURVE",
"232 404 CURVE SMOOTH",
"160 404 OFFCURVE",
"139 300 OFFCURVE"
);
}
);
width = 446;
}
);
unicode = 0119;
userData = {
com.fontlab.hintData = {
hhints = (
{
position = -221;
width = 64;
},
{
position = -8;
width = 74;
},
{
position = 245;
width = 38;
},
{
position = 254;
width = 33;
},
{
position = 404;
width = 38;
}
);
vhints = (
{
position = 36;
width = 100;
},
{
position = 198;
width = 64;
},
{
position = 304;
width = 104;
}
);
};
};
},
{
glyphname = f;
lastChange = "2017-07-12 19:24:35 +0000";
layers = (
{
layerId = "7ECBB128-A556-4919-8826-F9D641050EDE";
paths = (
{
closed = 1;
nodes = (
"288 698 CURVE SMOOTH",
"319 698 OFFCURVE",
"330 693 OFFCURVE",
"344 686 CURVE",
"354 680 OFFCURVE",
"368 667 OFFCURVE",
"368 650 CURVE",
"368 616 OFFCURVE",
"346 595 OFFCURVE",
"323 595 CURVE",
"303 595 OFFCURVE",
"290 610 OFFCURVE",
"275 620 CURVE SMOOTH",
"264 628 OFFCURVE",
"255 632 OFFCURVE",
"241 632 CURVE SMOOTH",
"217 632 OFFCURVE",
"198 598 OFFCURVE",
"198 544 CURVE",
"198 521 OFFCURVE",
"199 446 OFFCURVE",
"200 430 CURVE",
"204 430 OFFCURVE",
"302 430 OFFCURVE",
"318 430 CURVE",
"322 430 OFFCURVE",
"323 424 OFFCURVE",
"323 418 CURVE SMOOTH",
"323 409 OFFCURVE",
"315 394 OFFCURVE",
"305 386 CURVE",
"290 386 OFFCURVE",
"218 386 OFFCURVE",
"202 386 CURVE",
"202 130 LINE SMOOTH",
"202 94 OFFCURVE",
"202 64 OFFCURVE",
"208 46 CURVE SMOOTH",
"212 34 OFFCURVE",
"262 29 OFFCURVE",
"274 29 CURVE",
"278 23 OFFCURVE",
"278 2 OFFCURVE",
"274 -4 CURVE",
"234 -1 OFFCURVE",
"190 2 OFFCURVE",
"150 2 CURVE SMOOTH",
"110 2 OFFCURVE",
"68 -1 OFFCURVE",
"28 -4 CURVE",
"24 2 OFFCURVE",
"24 23 OFFCURVE",
"28 29 CURVE",
"40 29 OFFCURVE",
"88 34 OFFCURVE",
"92 46 CURVE SMOOTH",
"98 64 OFFCURVE",
"98 94 OFFCURVE",
"98 130 CURVE SMOOTH",
"98 130 OFFCURVE",
"98 342 OFFCURVE",
"98 386 CURVE",
"84 386 OFFCURVE",
"47 386 OFFCURVE",
"34 386 CURVE",
"30 387 OFFCURVE",
"29 393 OFFCURVE",
"29 397 CURVE",
"34 406 OFFCURVE",
"52 424 OFFCURVE",
"58 430 CURVE",
"73 430 OFFCURVE",
"88 430 OFFCURVE",
"98 430 CURVE",
"98 440 LINE SMOOTH",
"98 581 OFFCURVE",
"220 698 OFFCURVE"
);
}
);
width = 332;
}
);
unicode = 0066;
userData = {
com.fontlab.hintData = {
hhints = (
{
position = -4;
width = 33;
},
{
position = 386;
width = 44;
},
{
position = 632;
width = 66;
}
);
vhints = (
{
position = 98;
width = 104;
}
);
};
};
},
{
glyphname = g;
lastChange = "2017-07-12 19:24:35 +0000";
layers = (
{
layerId = "7ECBB128-A556-4919-8826-F9D641050EDE";
paths = (
{
closed = 1;
nodes = (
"215 408 CURVE",
"161 408 OFFCURVE",
"144 351 OFFCURVE",
"144 300 CURVE",
"144 242 OFFCURVE",
"171 176 OFFCURVE",
"227 176 CURVE",
"281 176 OFFCURVE",
"295 233 OFFCURVE",
"295 283 CURVE",
"295 341 OFFCURVE",
"272 408 OFFCURVE"
);
},
{
closed = 1;
nodes = (
"257 -9 CURVE SMOOTH",
"229 -9 OFFCURVE",
"169 -10 OFFCURVE",
"156 -12 CURVE",
"141 -22 OFFCURVE",
"117 -43 OFFCURVE",
"117 -67 CURVE SMOOTH",
"117 -133 OFFCURVE",
"167 -174 OFFCURVE",
"245 -174 CURVE SMOOTH",
"327 -174 OFFCURVE",
"379 -124 OFFCURVE",
"379 -80 CURVE SMOOTH",
"379 -44 OFFCURVE",
"337 -9 OFFCURVE"
);
},
{
closed = 1;
nodes = (
"313 81 CURVE SMOOTH",
"399 79 OFFCURVE",
"457 19 OFFCURVE",
"457 -26 CURVE SMOOTH",
"457 -128 OFFCURVE",
"331 -222 OFFCURVE",
"193 -222 CURVE SMOOTH",
"103 -222 OFFCURVE",
"23 -179 OFFCURVE",
"23 -104 CURVE SMOOTH",
"23 -62 OFFCURVE",
"83 -22 OFFCURVE",
"119 -4 CURVE",
"85 6 OFFCURVE",
"48 46 OFFCURVE",
"48 92 CURVE",
"56 111 OFFCURVE",
"105 146 OFFCURVE",
"133 162 CURVE",
"80 187 OFFCURVE",
"45 238 OFFCURVE",
"45 291 CURVE SMOOTH",
"45 372 OFFCURVE",
"120 442 OFFCURVE",
"219 442 CURVE SMOOTH",
"263 442 OFFCURVE",
"296 431 OFFCURVE",
"319 418 CURVE SMOOTH",
"330 413 OFFCURVE",
"327 413 OFFCURVE",
"333 412 CURVE",
"449 426 LINE",
"454 424 OFFCURVE",
"459 421 OFFCURVE",
"459 416 CURVE SMOOTH",
"459 408 OFFCURVE",
"445 376 OFFCURVE",
"435 370 CURVE",
"411 372 OFFCURVE",
"388 373 OFFCURVE",
"375 375 CURVE",
"373 375 OFFCURVE",
"369 374 OFFCURVE",
"369 372 CURVE",
"379 358 OFFCURVE",
"394 329 OFFCURVE",
"394 292 CURVE SMOOTH",
"394 216 OFFCURVE",
"319 142 OFFCURVE",
"219 142 CURVE SMOOTH",
"201 142 OFFCURVE",
"178 146 OFFCURVE",
"165 150 CURVE",
"151 140 OFFCURVE",
"135 125 OFFCURVE",
"135 112 CURVE SMOOTH",
"135 100 OFFCURVE",
"157 82 OFFCURVE",
"189 82 CURVE SMOOTH",
"241 82 OFFCURVE",
"273 82 OFFCURVE"
);
}
);
width = 471;
}
);
unicode = 0067;
userData = {
com.fontlab.hintData = {
hhints = (
{
position = -222;
width = 48;
},
{
position = -9;
width = 91;
},
{
position = 142;
width = 34;
},
{
position = 370;
width = 56;
},
{
position = 408;
width = 34;
}
);
vhints = (
{
position = 23;
width = 94;
},
{
position = 45;
width = 99;
},
{
position = 295;
width = 99;
},
{
position = 379;
width = 78;
}
);
};
};
},
{
glyphname = h;
lastChange = "2017-07-12 19:24:35 +0000";
layers = (
{
layerId = "7ECBB128-A556-4919-8826-F9D641050EDE";
paths = (
{
closed = 1;
nodes = (
"338 442 CURVE SMOOTH",
"449 442 OFFCURVE",
"471 370 OFFCURVE",
"471 218 CURVE SMOOTH",
"471 130 LINE SMOOTH",
"471 94 OFFCURVE",
"471 64 OFFCURVE",
"477 46 CURVE SMOOTH",
"481 34 OFFCURVE",
"529 29 OFFCURVE",
"541 29 CURVE",
"545 23 OFFCURVE",
"545 2 OFFCURVE",
"541 -4 CURVE",
"501 -1 OFFCURVE",
"459 2 OFFCURVE",
"419 2 CURVE SMOOTH",
"379 2 OFFCURVE",
"343 -1 OFFCURVE",
"303 -4 CURVE",
"299 2 OFFCURVE",
"299 23 OFFCURVE",
"303 29 CURVE",
"315 29 OFFCURVE",
"357 34 OFFCURVE",
"361 46 CURVE SMOOTH",
"367 64 OFFCURVE",
"367 94 OFFCURVE",
"367 130 CURVE SMOOTH",
"367 220 LINE SMOOTH",
"367 318 OFFCURVE",
"351 372 OFFCURVE",
"285 372 CURVE SMOOTH",
"247 372 OFFCURVE",
"194 331 OFFCURVE",
"194 317 CURVE SMOOTH",
"194 130 LINE SMOOTH",
"194 96 OFFCURVE",
"194 64 OFFCURVE",
"200 46 CURVE SMOOTH",
"204 34 OFFCURVE",
"248 29 OFFCURVE",
"260 29 CURVE",
"264 23 OFFCURVE",
"264 2 OFFCURVE",
"260 -4 CURVE",
"220 -1 OFFCURVE",
"181 2 OFFCURVE",
"141 2 CURVE SMOOTH",
"100 2 OFFCURVE",
"60 -1 OFFCURVE",
"20 -4 CURVE",
"16 2 OFFCURVE",
"16 23 OFFCURVE",
"20 29 CURVE",
"32 29 OFFCURVE",
"79 34 OFFCURVE",
"83 46 CURVE SMOOTH",
"89 64 OFFCURVE",
"90 94 OFFCURVE",
"90 130 CURVE SMOOTH",
"90 558 LINE SMOOTH",
"90 573 OFFCURVE",
"90 594 OFFCURVE",
"84 608 CURVE SMOOTH",
"78 621 OFFCURVE",
"43 626 OFFCURVE",
"23 626 CURVE",
"21 626 OFFCURVE",
"20 653 OFFCURVE",
"24 655 CURVE",
"105 663 OFFCURVE",
"169 684 OFFCURVE",
"191 694 CURVE",
"197 694 OFFCURVE",
"204 684 OFFCURVE",
"204 678 CURVE",
"204 678 OFFCURVE",
"194 632 OFFCURVE",
"194 584 CURVE",
"194 584 OFFCURVE",
"194 372 OFFCURVE",
"194 368 CURVE SMOOTH",
"194 366 OFFCURVE",
"193 364 OFFCURVE",
"195 364 CURVE",
"197 364 OFFCURVE",
"198 366 OFFCURVE",
"200 368 CURVE SMOOTH",
"224 395 OFFCURVE",
"291 442 OFFCURVE"
);
}
);
width = 553;
}
);
unicode = 0068;
userData = {
com.fontlab.hintData = {
hhints = (
{
position = -4;
width = 33;
},
{
position = 372;
width = 70;
},
{
position = 626;
width = 29;
},
{
position = 674;
width = 20;
}
);
vhints = (
{
position = 90;
width = 104;
},
{
position = 367;
width = 104;
}
);
};
};
},
{
glyphname = hbar;
lastChange = "2017-07-12 19:24:35 +0000";
layers = (
{
components = (
{
name = h;
}
);
layerId = "7ECBB128-A556-4919-8826-F9D641050EDE";
paths = (
{
closed = 1;
nodes = (
"32 562 CURVE",
"61 562 OFFCURVE",
"315 562 OFFCURVE",
"329 562 CURVE",
"332 562 OFFCURVE",
"334 558 OFFCURVE",
"334 554 CURVE",
"334 547 OFFCURVE",
"332 533 OFFCURVE",
"329 526 CURVE",
"300 526 OFFCURVE",
"46 526 OFFCURVE",
"32 526 CURVE",
"29 526 OFFCURVE",
"27 532 OFFCURVE",
"27 536 CURVE",
"27 543 OFFCURVE",
"28 556 OFFCURVE"
);
}
);
width = 553;
}
);
unicode = 0127;
userData = {
com.fontlab.hintData = {
hhints = (
{
position = -4;
width = 33;
},
{
position = 372;
width = 70;
},
{
position = 526;
width = 36;
},
{
position = 626;
width = 29;
},
{
position = 674;
width = 20;
}
);
vhints = (
{
position = 90;
width = 104;
},
{
position = 367;
width = 104;
}
);
};
};
},
{
glyphname = i;
lastChange = "2017-07-12 19:24:35 +0000";
layers = (
{
layerId = "7ECBB128-A556-4919-8826-F9D641050EDE";
paths = (
{
closed = 1;
nodes = (
"206 317 CURVE",
"206 130 LINE SMOOTH",
"206 96 OFFCURVE",
"206 64 OFFCURVE",
"212 46 CURVE SMOOTH",
"216 34 OFFCURVE",
"260 29 OFFCURVE",
"272 29 CURVE",
"276 23 OFFCURVE",
"276 2 OFFCURVE",
"272 -4 CURVE",
"232 -1 OFFCURVE",
"193 2 OFFCURVE",
"153 2 CURVE SMOOTH",
"112 2 OFFCURVE",
"72 -1 OFFCURVE",
"32 -4 CURVE",
"28 2 OFFCURVE",
"28 23 OFFCURVE",
"32 29 CURVE",
"44 29 OFFCURVE",
"91 34 OFFCURVE",
"95 46 CURVE SMOOTH",
"102 64 OFFCURVE",
"102 94 OFFCURVE",
"102 130 CURVE SMOOTH",
"102 282 LINE SMOOTH",
"102 294 OFFCURVE",
"102 335 OFFCURVE",
"95 349 CURVE SMOOTH",
"87 365 OFFCURVE",
"38 368 OFFCURVE",
"31 368 CURVE",
"29 370 OFFCURVE",
"27 394 OFFCURVE",
"31 396 CURVE",
"95 402 OFFCURVE",
"161 424 OFFCURVE",
"200 444 CURVE",
"206 443 OFFCURVE",
"214 431 OFFCURVE",
"214 427 CURVE",
"212 419 OFFCURVE",
"206 377 OFFCURVE",
"206 365 CURVE",
"206 354 OFFCURVE",
"206 320 OFFCURVE"
);
},
{
closed = 1;
nodes = (
"84 604 CURVE SMOOTH",
"84 638 OFFCURVE",
"111 666 OFFCURVE",
"145 666 CURVE SMOOTH",
"179 666 OFFCURVE",
"207 638 OFFCURVE",
"207 604 CURVE SMOOTH",
"207 570 OFFCURVE",
"179 544 OFFCURVE",
"145 544 CURVE SMOOTH",
"111 544 OFFCURVE",
"84 570 OFFCURVE"
);
}
);
width = 294;
}
);
unicode = 0069;
userData = {
com.fontlab.hintData = {
hhints = (
{
position = -4;
width = 33;
},
{
position = 368;
width = 28;
},
{
position = 424;
width = 20;
},
{
position = 544;
width = 122;
}
);
vhints = (
{
position = 84;
width = 123;
},
{
position = 102;
width = 104;
}
);
};
};
},
{
glyphname = dotlessi;
lastChange = "2017-07-12 19:24:35 +0000";
layers = (
{
layerId = "7ECBB128-A556-4919-8826-F9D641050EDE";
paths = (
{
closed = 1;
nodes = (
"206 317 CURVE",
"206 130 LINE SMOOTH",
"206 96 OFFCURVE",
"206 64 OFFCURVE",
"212 46 CURVE SMOOTH",
"216 34 OFFCURVE",
"260 29 OFFCURVE",
"272 29 CURVE",
"276 23 OFFCURVE",
"276 2 OFFCURVE",
"272 -4 CURVE",
"232 -1 OFFCURVE",
"193 2 OFFCURVE",
"153 2 CURVE SMOOTH",
"113 2 OFFCURVE",
"72 -1 OFFCURVE",
"32 -4 CURVE",
"28 2 OFFCURVE",
"28 23 OFFCURVE",
"32 29 CURVE",
"44 29 OFFCURVE",
"91 34 OFFCURVE",
"95 46 CURVE SMOOTH",
"101 64 OFFCURVE",
"102 94 OFFCURVE",
"102 130 CURVE SMOOTH",
"102 282 LINE SMOOTH",
"102 294 OFFCURVE",
"101 335 OFFCURVE",
"95 349 CURVE SMOOTH",
"87 365 OFFCURVE",
"38 368 OFFCURVE",
"31 368 CURVE",
"29 370 OFFCURVE",
"27 394 OFFCURVE",
"31 396 CURVE",
"95 402 OFFCURVE",
"161 424 OFFCURVE",
"200 444 CURVE",
"206 443 OFFCURVE",
"214 431 OFFCURVE",
"214 427 CURVE",
"212 419 OFFCURVE",
"206 377 OFFCURVE",
"206 365 CURVE",
"206 354 OFFCURVE",
"206 320 OFFCURVE"
);
}
);
width = 294;
}
);
unicode = 0131;
userData = {
com.fontlab.hintData = {
hhints = (
{
position = -4;
width = 33;
},
{
position = 368;
width = 28;
},
{
position = 424;
width = 20;
}
);
vhints = (
{
position = 102;
width = 104;
}
);
};
};
},
{
glyphname = iogonek;
lastChange = "2017-07-12 19:24:35 +0000";
layers = (
{
layerId = "7ECBB128-A556-4919-8826-F9D641050EDE";
paths = (
{
closed = 1;
nodes = (
"84 604 CURVE SMOOTH",
"84 638 OFFCURVE",
"111 666 OFFCURVE",
"145 666 CURVE SMOOTH",
"179 666 OFFCURVE",
"207 638 OFFCURVE",
"207 604 CURVE SMOOTH",
"207 570 OFFCURVE",
"179 544 OFFCURVE",
"145 544 CURVE SMOOTH",
"111 544 OFFCURVE",
"84 570 OFFCURVE"
);
},
{
closed = 1;
nodes = (
"206 317 CURVE SMOOTH",
"206 130 LINE SMOOTH",
"206 96 OFFCURVE",
"206 64 OFFCURVE",
"212 46 CURVE SMOOTH",
"216 34 OFFCURVE",
"260 29 OFFCURVE",
"272 29 CURVE",
"276 23 OFFCURVE",
"276 2 OFFCURVE",
"272 -4 CURVE",
"244 -2 OFFCURVE",
"217 1 OFFCURVE",
"190 2 CURVE",
"151 -35 OFFCURVE",
"130 -71 OFFCURVE",
"130 -112 CURVE SMOOTH",
"130 -130 OFFCURVE",
"139 -157 OFFCURVE",
"175 -157 CURVE SMOOTH",
"215 -157 OFFCURVE",
"245 -122 OFFCURVE",
"253 -118 CURVE SMOOTH",
"255 -118 OFFCURVE",
"258 -122 OFFCURVE",
"258 -130 CURVE SMOOTH",
"258 -135 OFFCURVE",
"255 -148 OFFCURVE",
"252 -152 CURVE SMOOTH",
"234 -176 OFFCURVE",
"188 -221 OFFCURVE",
"138 -221 CURVE SMOOTH",
"94 -221 OFFCURVE",
"66 -184 OFFCURVE",
"66 -144 CURVE SMOOTH",
"66 -99 OFFCURVE",
"109 -33 OFFCURVE",
"143 2 CURVE",
"106 2 OFFCURVE",
"69 -1 OFFCURVE",
"32 -4 CURVE",
"28 2 OFFCURVE",
"28 23 OFFCURVE",
"32 29 CURVE",
"44 29 OFFCURVE",
"91 34 OFFCURVE",
"95 46 CURVE SMOOTH",
"102 64 OFFCURVE",
"102 94 OFFCURVE",
"102 130 CURVE SMOOTH",
"102 279 LINE SMOOTH",
"102 291 OFFCURVE",
"102 332 OFFCURVE",
"95 346 CURVE SMOOTH",
"87 362 OFFCURVE",
"38 365 OFFCURVE",
"31 365 CURVE",
"29 367 OFFCURVE",
"27 391 OFFCURVE",
"31 393 CURVE",
"95 399 OFFCURVE",
"161 421 OFFCURVE",
"200 441 CURVE",
"206 440 OFFCURVE",
"214 428 OFFCURVE",
"214 424 CURVE",
"212 416 OFFCURVE",
"207 377 OFFCURVE",
"206 365 CURVE SMOOTH",
"206 354 OFFCURVE",
"206 320 OFFCURVE"
);
}
);
width = 294;
}
);
unicode = 012F;
userData = {
com.fontlab.hintData = {
hhints = (
{
position = -221;
width = 64;
},
{
position = -4;
width = 33;
},
{
position = 365;
width = 28;
},
{
position = 421;
width = 20;
},
{
position = 544;
width = 122;
}
);
vhints = (
{
position = 66;
width = 64;
},
{
position = 84;
width = 123;
},
{
position = 102;
width = 104;
}
);
};
};
},
{
glyphname = j;
lastChange = "2017-07-12 19:24:35 +0000";
layers = (
{
layerId = "7ECBB128-A556-4919-8826-F9D641050EDE";
paths = (
{
closed = 1;
nodes = (
"-14 -202 CURVE",
"16 -180 OFFCURVE",
"90 -132 OFFCURVE",
"90 54 CURVE SMOOTH",
"90 282 LINE SMOOTH",
"90 294 OFFCURVE",
"89 335 OFFCURVE",
"83 349 CURVE SMOOTH",
"75 365 OFFCURVE",
"26 368 OFFCURVE",
"19 368 CURVE",
"17 370 OFFCURVE",
"16 394 OFFCURVE",
"20 396 CURVE",
"84 402 OFFCURVE",
"150 424 OFFCURVE",
"189 444 CURVE",
"195 443 OFFCURVE",
"203 431 OFFCURVE",
"203 427 CURVE",
"201 419 OFFCURVE",
"194 379 OFFCURVE",
"194 365 CURVE",
"194 354 OFFCURVE",
"194 319 OFFCURVE",
"194 316 CURVE",
"194 94 LINE",
"194 -44 OFFCURVE",
"139 -128 OFFCURVE",
"85 -172 CURVE SMOOTH",
"53 -198 OFFCURVE",
"7 -217 OFFCURVE",
"-8 -217 CURVE",
"-12 -214 OFFCURVE",
"-14 -206 OFFCURVE"
);
},
{
closed = 1;
nodes = (
"69 604 CURVE SMOOTH",
"69 638 OFFCURVE",
"97 666 OFFCURVE",
"131 666 CURVE SMOOTH",
"165 666 OFFCURVE",
"193 638 OFFCURVE",
"193 604 CURVE SMOOTH",
"193 570 OFFCURVE",
"165 542 OFFCURVE",
"131 542 CURVE SMOOTH",
"97 542 OFFCURVE",
"69 570 OFFCURVE"
);
}
);
width = 263;
}
);
unicode = 006A;
userData = {
com.fontlab.hintData = {
hhints = (
{
position = 368;
width = 28;
},
{
position = 424;
width = 20;
},
{
position = 542;
width = 124;
}
);
vhints = (
{
position = 69;
width = 124;
},
{
position = 90;
width = 104;
}
);
};
};
},
{
glyphname = uni0237;
lastChange = "2017-07-12 19:24:35 +0000";
layers = (
{
layerId = "7ECBB128-A556-4919-8826-F9D641050EDE";
paths = (
{
closed = 1;
nodes = (
"-17 -202 CURVE",
"13 -180 OFFCURVE",
"87 -132 OFFCURVE",
"87 54 CURVE SMOOTH",
"87 282 LINE SMOOTH",
"87 294 OFFCURVE",
"86 335 OFFCURVE",
"80 349 CURVE SMOOTH",
"72 365 OFFCURVE",
"23 368 OFFCURVE",
"16 368 CURVE",
"14 370 OFFCURVE",
"13 394 OFFCURVE",
"17 396 CURVE",
"81 402 OFFCURVE",
"147 424 OFFCURVE",
"186 444 CURVE",
"192 443 OFFCURVE",
"200 431 OFFCURVE",
"200 427 CURVE",
"198 419 OFFCURVE",
"191 379 OFFCURVE",
"191 365 CURVE",
"191 354 OFFCURVE",
"191 319 OFFCURVE",
"191 316 CURVE",
"191 94 LINE",
"191 -44 OFFCURVE",
"136 -128 OFFCURVE",
"82 -172 CURVE SMOOTH",
"50 -198 OFFCURVE",
"4 -217 OFFCURVE",
"-11 -217 CURVE",
"-15 -214 OFFCURVE",
"-17 -206 OFFCURVE"
);
}
);
width = 257;
}
);
unicode = 0237;
userData = {
com.fontlab.hintData = {
hhints = (
{
position = 368;
width = 28;
},
{
position = 424;
width = 20;
}
);
vhints = (
{
position = 87;
width = 104;
}
);
};
};
},
{
glyphname = k;
lastChange = "2017-07-12 19:24:35 +0000";
layers = (
{
layerId = "7ECBB128-A556-4919-8826-F9D641050EDE";
paths = (
{
closed = 1;
nodes = (
"194 130 LINE SMOOTH",
"194 94 OFFCURVE",
"194 64 OFFCURVE",
"200 46 CURVE SMOOTH",
"204 34 OFFCURVE",
"251 29 OFFCURVE",
"263 29 CURVE",
"267 23 OFFCURVE",
"267 2 OFFCURVE",
"263 -4 CURVE",
"223 -1 OFFCURVE",
"181 2 OFFCURVE",
"141 2 CURVE SMOOTH",
"100 2 OFFCURVE",
"60 -1 OFFCURVE",
"20 -4 CURVE",
"16 2 OFFCURVE",
"16 23 OFFCURVE",
"20 29 CURVE",
"32 29 OFFCURVE",
"79 34 OFFCURVE",
"83 46 CURVE SMOOTH",
"89 64 OFFCURVE",
"90 94 OFFCURVE",
"90 130 CURVE SMOOTH",
"90 558 LINE SMOOTH",
"90 574 OFFCURVE",
"90 594 OFFCURVE",
"84 608 CURVE SMOOTH",
"78 621 OFFCURVE",
"43 626 OFFCURVE",
"23 626 CURVE",
"21 626 OFFCURVE",
"20 653 OFFCURVE",
"24 655 CURVE",
"105 663 OFFCURVE",
"169 684 OFFCURVE",
"191 694 CURVE",
"197 694 OFFCURVE",
"204 684 OFFCURVE",
"204 678 CURVE",
"204 678 OFFCURVE",
"194 632 OFFCURVE",
"194 584 CURVE",
"193 236 LINE",
"210 242 OFFCURVE",
"237 262 OFFCURVE",
"271 292 CURVE SMOOTH",
"332 344 OFFCURVE",
"361 369 OFFCURVE",
"361 381 CURVE SMOOTH",
"361 395 OFFCURVE",
"319 399 OFFCURVE",
"305 400 CURVE",
"301 408 OFFCURVE",
"302 430 OFFCURVE",
"307 432 CURVE",
"321 430 OFFCURVE",
"384 428 OFFCURVE",
"421 428 CURVE SMOOTH",
"456 428 OFFCURVE",
"486 430 OFFCURVE",
"520 432 CURVE",
"525 424 OFFCURVE",
"523 404 OFFCURVE",
"519 400 CURVE",
"497 398 OFFCURVE",
"455 390 OFFCURVE",
"431 374 CURVE SMOOTH",
"415 362 OFFCURVE",
"344 304 OFFCURVE",
"284 252 CURVE",
"357 170 OFFCURVE",
"405 118 OFFCURVE",
"445 76 CURVE SMOOTH",
"485 35 OFFCURVE",
"521 31 OFFCURVE",
"550 31 CURVE",
"554 24 OFFCURVE",
"553 8 OFFCURVE",
"551 4 CURVE",
"539 0 OFFCURVE",
"500 -5 OFFCURVE",
"468 -5 CURVE SMOOTH",
"410 -5 OFFCURVE",
"360 20 OFFCURVE",
"338 46 CURVE SMOOTH",
"338 46 OFFCURVE",
"260 130 OFFCURVE",
"207 192 CURVE SMOOTH",
"203 198 OFFCURVE",
"194 202 OFFCURVE",
"194 202 CURVE"
);
}
);
width = 554;
}
);
unicode = 006B;
userData = {
com.fontlab.hintData = {
hhints = (
{
position = -4;
width = 33;
},
{
position = 4;
width = 27;
},
{
position = 400;
width = 32;
},
{
position = 626;
width = 29;
},
{
position = 674;
width = 20;
}
);
vhints = (
{
position = 90;
width = 104;
}
);
};
};
},
{
glyphname = kgreenlandic;
lastChange = "2017-07-12 19:24:35 +0000";
layers = (
{
layerId = "7ECBB128-A556-4919-8826-F9D641050EDE";
paths = (
{
closed = 1;
nodes = (
"103 130 CURVE SMOOTH",
"102 282 LINE SMOOTH",
"102 293 OFFCURVE",
"101 335 OFFCURVE",
"95 349 CURVE SMOOTH",
"87 365 OFFCURVE",
"38 368 OFFCURVE",
"31 368 CURVE",
"29 370 OFFCURVE",
"28 394 OFFCURVE",
"32 396 CURVE",
"96 402 OFFCURVE",
"161 424 OFFCURVE",
"200 444 CURVE",
"206 443 OFFCURVE",
"214 431 OFFCURVE",
"214 427 CURVE",
"212 419 OFFCURVE",
"206 377 OFFCURVE",
"206 365 CURVE",
"206 354 OFFCURVE",
"206 320 OFFCURVE",
"206 317 CURVE",
"206 236 LINE",
"223 242 OFFCURVE",
"250 262 OFFCURVE",
"284 292 CURVE SMOOTH",
"345 344 OFFCURVE",
"374 369 OFFCURVE",
"374 381 CURVE SMOOTH",
"374 395 OFFCURVE",
"332 399 OFFCURVE",
"318 400 CURVE",
"314 408 OFFCURVE",
"315 430 OFFCURVE",
"320 432 CURVE",
"334 430 OFFCURVE",
"397 428 OFFCURVE",
"434 428 CURVE SMOOTH",
"469 428 OFFCURVE",
"499 430 OFFCURVE",
"533 432 CURVE",
"538 424 OFFCURVE",
"536 404 OFFCURVE",
"532 400 CURVE",
"510 398 OFFCURVE",
"468 390 OFFCURVE",
"444 374 CURVE SMOOTH",
"428 362 OFFCURVE",
"357 304 OFFCURVE",
"297 252 CURVE",
"370 170 OFFCURVE",
"418 118 OFFCURVE",
"458 76 CURVE SMOOTH",
"498 35 OFFCURVE",
"534 31 OFFCURVE",
"563 31 CURVE",
"567 24 OFFCURVE",
"566 8 OFFCURVE",
"564 4 CURVE",
"552 0 OFFCURVE",
"513 -5 OFFCURVE",
"481 -5 CURVE SMOOTH",
"423 -5 OFFCURVE",
"373 20 OFFCURVE",
"351 46 CURVE SMOOTH",
"351 46 OFFCURVE",
"273 130 OFFCURVE",
"220 192 CURVE SMOOTH",
"216 198 OFFCURVE",
"207 202 OFFCURVE",
"207 202 CURVE",
"207 130 LINE SMOOTH",
"207 94 OFFCURVE",
"207 64 OFFCURVE",
"213 46 CURVE SMOOTH",
"217 34 OFFCURVE",
"264 29 OFFCURVE",
"276 29 CURVE",
"280 23 OFFCURVE",
"280 2 OFFCURVE",
"276 -4 CURVE",
"236 -1 OFFCURVE",
"194 2 OFFCURVE",
"154 2 CURVE SMOOTH",
"114 2 OFFCURVE",
"73 -1 OFFCURVE",
"33 -4 CURVE",
"29 2 OFFCURVE",
"29 23 OFFCURVE",
"33 29 CURVE",
"45 29 OFFCURVE",
"92 34 OFFCURVE",
"96 46 CURVE SMOOTH",
"103 64 OFFCURVE",
"103 94 OFFCURVE"
);
}
);
width = 567;
}
);
unicode = 0138;
userData = {
com.fontlab.hintData = {
hhints = (
{
position = -4;
width = 33;
},
{
position = 4;
width = 27;
},
{
position = 368;
width = 28;
},
{
position = 400;
width = 32;
},
{
position = 424;
width = 20;
}
);
vhints = (
{
position = 102;
width = 104;
}
);
};
};
},
{
glyphname = l;
lastChange = "2017-07-12 19:24:35 +0000";
layers = (
{
layerId = "7ECBB128-A556-4919-8826-F9D641050EDE";
paths = (
{
closed = 1;
nodes = (
"90 558 LINE SMOOTH",
"90 574 OFFCURVE",
"90 594 OFFCURVE",
"84 608 CURVE SMOOTH",
"78 621 OFFCURVE",
"43 626 OFFCURVE",
"23 626 CURVE",
"21 626 OFFCURVE",
"20 653 OFFCURVE",
"24 655 CURVE",
"105 663 OFFCURVE",
"169 684 OFFCURVE",
"191 694 CURVE",
"197 694 OFFCURVE",
"204 684 OFFCURVE",
"204 678 CURVE",
"204 678 OFFCURVE",
"194 632 OFFCURVE",
"194 584 CURVE",
"194 130 LINE SMOOTH",
"194 94 OFFCURVE",
"194 64 OFFCURVE",
"200 46 CURVE SMOOTH",
"204 34 OFFCURVE",
"251 29 OFFCURVE",
"263 29 CURVE",
"267 23 OFFCURVE",
"267 2 OFFCURVE",
"263 -4 CURVE",
"223 -1 OFFCURVE",
"181 2 OFFCURVE",
"141 2 CURVE SMOOTH",
"100 2 OFFCURVE",
"60 -1 OFFCURVE",
"20 -4 CURVE",
"16 2 OFFCURVE",
"16 23 OFFCURVE",
"20 29 CURVE",
"32 29 OFFCURVE",
"79 34 OFFCURVE",
"83 46 CURVE SMOOTH",
"89 64 OFFCURVE",
"90 94 OFFCURVE",
"90 130 CURVE SMOOTH"
);
}
);
width = 283;
}
);
unicode = 006C;
userData = {
com.fontlab.hintData = {
hhints = (
{
position = -4;
width = 33;
},
{
position = 626;
width = 29;
},
{
position = 674;
width = 20;
}
);
vhints = (
{
position = 90;
width = 104;
}
);
};
};
},
{
glyphname = lslash;
lastChange = "2017-07-12 19:24:35 +0000";
layers = (
{
components = (
{
name = l;
}
);
layerId = "7ECBB128-A556-4919-8826-F9D641050EDE";
paths = (
{
closed = 1;
nodes = (
"34 235 LINE",
"28 241 OFFCURVE",
"14 261 OFFCURVE",
"18 265 CURVE",
"259 433 LINE",
"265 427 OFFCURVE",
"281 408 OFFCURVE",
"277 404 CURVE"
);
}
);
width = 280;
}
);
unicode = 0142;
userData = {
com.fontlab.hintData = {
hhints = (
{
position = -4;
width = 33;
},
{
position = 626;
width = 29;
},
{
position = 674;
width = 20;
}
);
vhints = (
{
position = 18;
width = 259;
},
{
position = 90;
width = 104;
}
);
};
};
},
{
glyphname = m;
lastChange = "2017-07-12 19:24:35 +0000";
layers = (
{
layerId = "7ECBB128-A556-4919-8826-F9D641050EDE";
paths = (
{
closed = 1;
nodes = (
"349 442 CURVE SMOOTH",
"411 442 OFFCURVE",
"447 420 OFFCURVE",
"467 358 CURVE",
"511 400 OFFCURVE",
"576 442 OFFCURVE",
"623 442 CURVE SMOOTH",
"734 442 OFFCURVE",
"756 370 OFFCURVE",
"756 218 CURVE SMOOTH",
"756 130 LINE SMOOTH",
"756 94 OFFCURVE",
"756 64 OFFCURVE",
"762 46 CURVE SMOOTH",
"766 34 OFFCURVE",
"813 29 OFFCURVE",
"825 29 CURVE",
"829 23 OFFCURVE",
"829 2 OFFCURVE",
"825 -4 CURVE",
"785 -1 OFFCURVE",
"743 2 OFFCURVE",
"703 2 CURVE SMOOTH",
"663 2 OFFCURVE",
"628 -1 OFFCURVE",
"588 -4 CURVE",
"584 2 OFFCURVE",
"584 23 OFFCURVE",
"588 29 CURVE",
"600 29 OFFCURVE",
"641 34 OFFCURVE",
"645 46 CURVE SMOOTH",
"651 64 OFFCURVE",
"652 94 OFFCURVE",
"652 130 CURVE SMOOTH",
"652 224 LINE SMOOTH",
"652 310 OFFCURVE",
"638 372 OFFCURVE",
"571 372 CURVE SMOOTH",
"527 372 OFFCURVE",
"475 330 OFFCURVE",
"475 316 CURVE SMOOTH",
"475 314 OFFCURVE",
"476 309 OFFCURVE",
"476 307 CURVE SMOOTH",
"478 283 OFFCURVE",
"480 250 OFFCURVE",
"480 224 CURVE SMOOTH",
"480 130 LINE SMOOTH",
"480 94 OFFCURVE",
"480 64 OFFCURVE",
"486 46 CURVE SMOOTH",
"490 34 OFFCURVE",
"537 29 OFFCURVE",
"549 29 CURVE",
"553 23 OFFCURVE",
"553 2 OFFCURVE",
"549 -4 CURVE",
"509 -1 OFFCURVE",
"468 2 OFFCURVE",
"428 2 CURVE SMOOTH",
"388 2 OFFCURVE",
"351 -1 OFFCURVE",
"311 -4 CURVE",
"307 2 OFFCURVE",
"307 23 OFFCURVE",
"311 29 CURVE",
"323 29 OFFCURVE",
"366 34 OFFCURVE",
"370 46 CURVE SMOOTH",
"376 64 OFFCURVE",
"376 94 OFFCURVE",
"376 130 CURVE SMOOTH",
"376 221 LINE SMOOTH",
"376 318 OFFCURVE",
"358 372 OFFCURVE",
"296 372 CURVE SMOOTH",
"254 372 OFFCURVE",
"206 333 OFFCURVE",
"206 317 CURVE SMOOTH",
"206 130 LINE SMOOTH",
"206 96 OFFCURVE",
"206 64 OFFCURVE",
"212 46 CURVE SMOOTH",
"216 34 OFFCURVE",
"260 29 OFFCURVE",
"272 29 CURVE",
"276 23 OFFCURVE",
"276 2 OFFCURVE",
"272 -4 CURVE",
"232 -1 OFFCURVE",
"193 2 OFFCURVE",
"153 2 CURVE SMOOTH",
"112 2 OFFCURVE",
"72 -1 OFFCURVE",
"32 -4 CURVE",
"28 2 OFFCURVE",
"28 23 OFFCURVE",
"32 29 CURVE",
"44 29 OFFCURVE",
"91 34 OFFCURVE",
"95 46 CURVE SMOOTH",
"102 64 OFFCURVE",
"102 94 OFFCURVE",
"102 130 CURVE SMOOTH",
"102 279 LINE SMOOTH",
"102 291 OFFCURVE",
"102 335 OFFCURVE",
"95 349 CURVE SMOOTH",
"87 365 OFFCURVE",
"38 368 OFFCURVE",
"31 368 CURVE",
"29 370 OFFCURVE",
"27 394 OFFCURVE",
"31 396 CURVE",
"95 402 OFFCURVE",
"161 424 OFFCURVE",
"200 444 CURVE",
"206 443 OFFCURVE",
"214 431 OFFCURVE",
"214 427 CURVE",
"212 419 OFFCURVE",
"206 376 OFFCURVE",
"206 372 CURVE SMOOTH",
"206 370 OFFCURVE",
"206 367 OFFCURVE",
"208 367 CURVE",
"210 367 OFFCURVE",
"211 368 OFFCURVE",
"213 370 CURVE SMOOTH",
"239 396 OFFCURVE",
"299 442 OFFCURVE"
);
}
);
width = 838;
}
);
unicode = 006D;
userData = {
com.fontlab.hintData = {
hhints = (
{
position = -4;
width = 33;
},
{
position = 368;
width = 28;
},
{
position = 372;
width = 70;
}
);
vhints = (
{
position = 102;
width = 104;
},
{
position = 376;
width = 104;
},
{
position = 652;
width = 104;
}
);
};
};
},
{
glyphname = n;
lastChange = "2017-07-12 19:24:35 +0000";
layers = (
{
layerId = "7ECBB128-A556-4919-8826-F9D641050EDE";
paths = (
{
closed = 1;
nodes = (
"350 442 CURVE SMOOTH",
"461 442 OFFCURVE",
"483 370 OFFCURVE",
"483 218 CURVE SMOOTH",
"483 130 LINE SMOOTH",
"483 94 OFFCURVE",
"483 64 OFFCURVE",
"489 46 CURVE SMOOTH",
"493 34 OFFCURVE",
"541 29 OFFCURVE",
"553 29 CURVE",
"557 23 OFFCURVE",
"557 2 OFFCURVE",
"553 -4 CURVE",
"513 -1 OFFCURVE",
"471 2 OFFCURVE",
"431 2 CURVE SMOOTH",
"391 2 OFFCURVE",
"355 -1 OFFCURVE",
"315 -4 CURVE",
"311 2 OFFCURVE",
"311 23 OFFCURVE",
"315 29 CURVE",
"327 29 OFFCURVE",
"369 34 OFFCURVE",
"373 46 CURVE SMOOTH",
"379 64 OFFCURVE",
"379 94 OFFCURVE",
"379 130 CURVE SMOOTH",
"379 220 LINE SMOOTH",
"379 318 OFFCURVE",
"363 372 OFFCURVE",
"297 372 CURVE SMOOTH",
"259 372 OFFCURVE",
"206 331 OFFCURVE",
"206 317 CURVE SMOOTH",
"206 130 LINE SMOOTH",
"206 96 OFFCURVE",
"206 64 OFFCURVE",
"212 46 CURVE SMOOTH",
"216 34 OFFCURVE",
"260 29 OFFCURVE",
"272 29 CURVE",
"276 23 OFFCURVE",
"276 2 OFFCURVE",
"272 -4 CURVE",
"232 -1 OFFCURVE",
"193 2 OFFCURVE",
"153 2 CURVE SMOOTH",
"112 2 OFFCURVE",
"72 -1 OFFCURVE",
"32 -4 CURVE",
"28 2 OFFCURVE",
"28 23 OFFCURVE",
"32 29 CURVE",
"44 29 OFFCURVE",
"91 34 OFFCURVE",
"95 46 CURVE SMOOTH",
"102 64 OFFCURVE",
"102 94 OFFCURVE",
"102 130 CURVE SMOOTH",
"102 282 LINE SMOOTH",
"102 294 OFFCURVE",
"102 335 OFFCURVE",
"95 349 CURVE SMOOTH",
"87 365 OFFCURVE",
"38 368 OFFCURVE",
"31 368 CURVE",
"29 370 OFFCURVE",
"27 394 OFFCURVE",
"31 396 CURVE",
"95 402 OFFCURVE",
"161 424 OFFCURVE",
"200 444 CURVE",
"206 444 OFFCURVE",
"214 432 OFFCURVE",
"214 427 CURVE",
"212 419 OFFCURVE",
"206 374 OFFCURVE",
"206 370 CURVE SMOOTH",
"206 368 OFFCURVE",
"206 364 OFFCURVE",
"208 364 CURVE",
"210 364 OFFCURVE",
"211 366 OFFCURVE",
"213 368 CURVE SMOOTH",
"237 395 OFFCURVE",
"303 442 OFFCURVE"
);
}
);
width = 565;
}
);
unicode = 006E;
userData = {
com.fontlab.hintData = {
hhints = (
{
position = -4;
width = 33;
},
{
position = 368;
width = 28;
},
{
position = 372;
width = 70;
}
);
vhints = (
{
position = 102;
width = 104;
},
{
position = 379;
width = 104;
}
);
};
};
},
{
glyphname = eng;
lastChange = "2017-07-12 19:24:35 +0000";
layers = (
{
layerId = "7ECBB128-A556-4919-8826-F9D641050EDE";
paths = (
{
closed = 1;
nodes = (
"379 57 CURVE SMOOTH",
"379 220 LINE SMOOTH",
"379 318 OFFCURVE",
"363 372 OFFCURVE",
"297 372 CURVE SMOOTH",
"259 372 OFFCURVE",
"206 331 OFFCURVE",
"206 317 CURVE SMOOTH",
"206 130 LINE SMOOTH",
"206 96 OFFCURVE",
"206 64 OFFCURVE",
"212 46 CURVE SMOOTH",
"216 34 OFFCURVE",
"260 29 OFFCURVE",
"272 29 CURVE",
"276 23 OFFCURVE",
"276 2 OFFCURVE",
"272 -4 CURVE",
"232 -1 OFFCURVE",
"193 2 OFFCURVE",
"153 2 CURVE SMOOTH",
"112 2 OFFCURVE",
"72 -1 OFFCURVE",
"32 -4 CURVE",
"28 2 OFFCURVE",
"28 23 OFFCURVE",
"32 29 CURVE",
"44 29 OFFCURVE",
"91 34 OFFCURVE",
"95 46 CURVE SMOOTH",
"102 64 OFFCURVE",
"102 94 OFFCURVE",
"102 130 CURVE SMOOTH",
"102 282 LINE SMOOTH",
"102 294 OFFCURVE",
"102 335 OFFCURVE",
"95 349 CURVE SMOOTH",
"87 365 OFFCURVE",
"38 368 OFFCURVE",
"31 368 CURVE",
"29 370 OFFCURVE",
"27 394 OFFCURVE",
"31 396 CURVE",
"95 402 OFFCURVE",
"161 424 OFFCURVE",
"200 444 CURVE",
"206 444 OFFCURVE",
"214 432 OFFCURVE",
"214 427 CURVE",
"212 419 OFFCURVE",
"206 374 OFFCURVE",
"206 370 CURVE SMOOTH",
"206 368 OFFCURVE",
"206 364 OFFCURVE",
"208 364 CURVE",
"210 364 OFFCURVE",
"211 366 OFFCURVE",
"213 368 CURVE SMOOTH",
"237 395 OFFCURVE",
"303 442 OFFCURVE",
"350 442 CURVE SMOOTH",
"461 442 OFFCURVE",
"483 370 OFFCURVE",
"483 218 CURVE SMOOTH",
"483 94 LINE",
"483 -44 OFFCURVE",
"428 -128 OFFCURVE",
"374 -172 CURVE SMOOTH",
"342 -198 OFFCURVE",
"297 -217 OFFCURVE",
"282 -217 CURVE",
"278 -214 OFFCURVE",
"275 -206 OFFCURVE",
"275 -202 CURVE",
"305 -180 OFFCURVE",
"379 -130 OFFCURVE"
);
}
);
width = 549;
}
);
unicode = 014B;
userData = {
com.fontlab.hintData = {
hhints = (
{
position = -4;
width = 33;
},
{
position = 368;
width = 28;
},
{
position = 372;
width = 70;
}
);
vhints = (
{
position = 102;
width = 104;
},
{
position = 379;
width = 104;
}
);
};
};
},
{
glyphname = ntilde;
lastChange = "2017-07-12 19:24:35 +0000";
layers = (
{
components = (
{
name = tildecomb;
transform = "{1, 0, 0, 1, 99, -8}";
},
{
name = n;
}
);
layerId = "7ECBB128-A556-4919-8826-F9D641050EDE";
paths = (
{
closed = 0;
nodes = (
"366 703 LINE SMOOTH"
);
}
);
width = 565;
}
);
unicode = 00F1;
userData = {
com.fontlab.hintData = {
hhints = (
{
position = -4;
width = 33;
},
{
position = 368;
width = 28;
},
{
position = 372;
width = 70;
},
{
position = 504;
width = 54;
},
{
position = 560;
width = 54;
}
);
vhints = (
{
position = 102;
width = 104;
},
{
position = 155;
width = 282;
},
{
position = 379;
width = 104;
}
);
};
};
},
{
glyphname = o;
lastChange = "2017-07-12 19:24:35 +0000";
layers = (
{
layerId = "7ECBB128-A556-4919-8826-F9D641050EDE";
paths = (
{
closed = 1;
nodes = (
"248 406 CURVE",
"169 406 OFFCURVE",
"150 315 OFFCURVE",
"150 235 CURVE",
"150 143 OFFCURVE",
"188 31 OFFCURVE",
"270 31 CURVE",
"349 31 OFFCURVE",
"369 122 OFFCURVE",
"369 200 CURVE",
"369 293 OFFCURVE",
"329 406 OFFCURVE"
);
},
{
closed = 1;
nodes = (
"258 443 CURVE SMOOTH",
"393 443 OFFCURVE",
"483 349 OFFCURVE",
"483 223 CURVE SMOOTH",
"483 95 OFFCURVE",
"386 -7 OFFCURVE",
"260 -7 CURVE SMOOTH",
"124 -7 OFFCURVE",
"36 89 OFFCURVE",
"36 215 CURVE SMOOTH",
"36 343 OFFCURVE",
"132 443 OFFCURVE"
);
}
);
width = 520;
}
);
unicode = 006F;
userData = {
com.fontlab.hintData = {
hhints = (
{
position = -7;
width = 38;
},
{
position = 406;
width = 37;
}
);
vhints = (
{
position = 36;
width = 114;
},
{
position = 369;
width = 114;
}
);
};
};
},
{
glyphname = oslash;
lastChange = "2017-07-12 19:24:35 +0000";
layers = (
{
components = (
{
name = o;
}
);
layerId = "7ECBB128-A556-4919-8826-F9D641050EDE";
paths = (
{
closed = 1;
nodes = (
"403 434 LINE",
"409 432 OFFCURVE",
"433 421 OFFCURVE",
"431 417 CURVE",
"132 -18 LINE",
"126 -16 OFFCURVE",
"102 -4 OFFCURVE",
"104 0 CURVE"
);
}
);
width = 520;
}
);
unicode = 00F8;
userData = {
com.fontlab.hintData = {
hhints = (
{
position = -7;
width = 38;
},
{
position = 406;
width = 37;
}
);
vhints = (
{
position = 36;
width = 114;
},
{
position = 369;
width = 114;
}
);
};
};
},
{
glyphname = oe;
lastChange = "2017-07-12 19:24:35 +0000";
layers = (
{
layerId = "7ECBB128-A556-4919-8826-F9D641050EDE";
paths = (
{
closed = 1;
nodes = (
"568 404 CURVE",
"496 404 OFFCURVE",
"475 300 OFFCURVE",
"476 283 CURVE",
"485 283 OFFCURVE",
"605 285 OFFCURVE",
"622 287 CURVE SMOOTH",
"634 287 OFFCURVE",
"640 295 OFFCURVE",
"640 307 CURVE",
"640 342 OFFCURVE",
"621 404 OFFCURVE"
);
},
{
closed = 1;
nodes = (
"248 406 CURVE",
"169 406 OFFCURVE",
"150 315 OFFCURVE",
"150 235 CURVE",
"150 143 OFFCURVE",
"188 31 OFFCURVE",
"270 31 CURVE",
"349 31 OFFCURVE",
"369 122 OFFCURVE",
"369 200 CURVE",
"369 293 OFFCURVE",
"329 406 OFFCURVE"
);
},
{
closed = 1;
nodes = (
"624 66 CURVE SMOOTH",
"680 66 OFFCURVE",
"718 98 OFFCURVE",
"735 117 CURVE",
"739 116 OFFCURVE",
"745 108 OFFCURVE",
"745 101 CURVE",
"745 95 OFFCURVE",
"742 86 OFFCURVE",
"740 82 CURVE SMOOTH",
"722 54 OFFCURVE",
"663 -8 OFFCURVE",
"577 -8 CURVE SMOOTH",
"513 -8 OFFCURVE",
"457 19 OFFCURVE",
"420 64 CURVE",
"381 21 OFFCURVE",
"324 -7 OFFCURVE",
"260 -7 CURVE SMOOTH",
"124 -7 OFFCURVE",
"36 89 OFFCURVE",
"36 215 CURVE SMOOTH",
"36 343 OFFCURVE",
"132 443 OFFCURVE",
"258 443 CURVE SMOOTH",
"334 443 OFFCURVE",
"395 413 OFFCURVE",
"434 364 CURVE",
"474 412 OFFCURVE",
"530 442 OFFCURVE",
"582 442 CURVE SMOOTH",
"708 442 OFFCURVE",
"744 348 OFFCURVE",
"744 299 CURVE SMOOTH",
"744 273 OFFCURVE",
"735 255 OFFCURVE",
"718 254 CURVE SMOOTH",
"670 250 OFFCURVE",
"530 247 OFFCURVE",
"473 245 CURVE",
"473 101 OFFCURVE",
"566 66 OFFCURVE"
);
}
);
width = 781;
}
);
unicode = 0153;
userData = {
com.fontlab.hintData = {
hhints = (
{
position = -8;
width = 74;
},
{
position = -7;
width = 38;
},
{
position = 245;
width = 38;
},
{
position = 254;
width = 33;
},
{
position = 404;
width = 38;
}
);
vhints = (
{
position = 36;
width = 114;
},
{
position = 369;
width = 104;
},
{
position = 640;
width = 104;
}
);
};
};
},
{
glyphname = p;
lastChange = "2017-07-12 19:24:35 +0000";
layers = (
{
layerId = "7ECBB128-A556-4919-8826-F9D641050EDE";
paths = (
{
closed = 1;
nodes = (
"308 443 CURVE SMOOTH",
"430 443 OFFCURVE",
"496 331 OFFCURVE",
"496 233 CURVE SMOOTH",
"496 92 OFFCURVE",
"368 -8 OFFCURVE",
"257 -8 CURVE SMOOTH",
"230 -8 OFFCURVE",
"203 0 OFFCURVE",
"193 2 CURVE",
"191 2 OFFCURVE",
"190 -2 OFFCURVE",
"190 -12 CURVE SMOOTH",
"190 -88 LINE SMOOTH",
"190 -124 OFFCURVE",
"190 -154 OFFCURVE",
"196 -172 CURVE SMOOTH",
"200 -184 OFFCURVE",
"247 -189 OFFCURVE",
"259 -189 CURVE",
"263 -195 OFFCURVE",
"263 -216 OFFCURVE",
"259 -222 CURVE",
"219 -219 OFFCURVE",
"177 -216 OFFCURVE",
"137 -216 CURVE SMOOTH",
"96 -216 OFFCURVE",
"56 -219 OFFCURVE",
"16 -222 CURVE",
"11 -216 OFFCURVE",
"11 -195 OFFCURVE",
"16 -189 CURVE",
"28 -189 OFFCURVE",
"75 -184 OFFCURVE",
"79 -172 CURVE SMOOTH",
"85 -154 OFFCURVE",
"86 -124 OFFCURVE",
"86 -88 CURVE SMOOTH",
"86 282 LINE SMOOTH",
"86 294 OFFCURVE",
"85 335 OFFCURVE",
"79 349 CURVE SMOOTH",
"71 365 OFFCURVE",
"22 368 OFFCURVE",
"15 368 CURVE",
"12 370 OFFCURVE",
"10 394 OFFCURVE",
"15 396 CURVE",
"78 402 OFFCURVE",
"145 421 OFFCURVE",
"184 441 CURVE",
"190 440 OFFCURVE",
"198 431 OFFCURVE",
"198 427 CURVE",
"196 421 OFFCURVE",
"190 401 OFFCURVE",
"190 389 CURVE SMOOTH",
"190 385 OFFCURVE",
"191 383 OFFCURVE",
"193 384 CURVE SMOOTH",
"209 400 OFFCURVE",
"272 443 OFFCURVE"
);
},
{
closed = 1;
nodes = (
"259 377 CURVE SMOOTH",
"220 377 OFFCURVE",
"190 354 OFFCURVE",
"190 344 CURVE SMOOTH",
"190 98 LINE SMOOTH",
"190 52 OFFCURVE",
"235 32 OFFCURVE",
"270 32 CURVE SMOOTH",
"328 32 OFFCURVE",
"382 99 OFFCURVE",
"382 197 CURVE SMOOTH",
"382 308 OFFCURVE",
"337 377 OFFCURVE"
);
}
);
width = 532;
}
);
unicode = 0070;
userData = {
com.fontlab.hintData = {
hhints = (
{
position = -222;
width = 33;
},
{
position = -8;
width = 40;
},
{
position = 368;
width = 28;
},
{
position = 377;
width = 66;
}
);
vhints = (
{
position = 86;
width = 104;
},
{
position = 382;
width = 114;
}
);
};
};
},
{
glyphname = thorn;
lastChange = "2017-07-12 19:24:35 +0000";
layers = (
{
layerId = "7ECBB128-A556-4919-8826-F9D641050EDE";
paths = (
{
closed = 1;
nodes = (
"292 443 CURVE SMOOTH",
"414 443 OFFCURVE",
"481 331 OFFCURVE",
"481 233 CURVE SMOOTH",
"481 92 OFFCURVE",
"353 -8 OFFCURVE",
"241 -8 CURVE SMOOTH",
"214 -8 OFFCURVE",
"187 0 OFFCURVE",
"177 2 CURVE",
"175 2 OFFCURVE",
"174 -2 OFFCURVE",
"174 -12 CURVE SMOOTH",
"174 -88 LINE SMOOTH",
"174 -124 OFFCURVE",
"174 -154 OFFCURVE",
"180 -172 CURVE SMOOTH",
"184 -184 OFFCURVE",
"232 -189 OFFCURVE",
"244 -189 CURVE",
"248 -195 OFFCURVE",
"248 -216 OFFCURVE",
"244 -222 CURVE",
"204 -219 OFFCURVE",
"162 -216 OFFCURVE",
"122 -216 CURVE SMOOTH",
"81 -216 OFFCURVE",
"40 -219 OFFCURVE",
"0 -222 CURVE",
"-5 -216 OFFCURVE",
"-5 -195 OFFCURVE",
"0 -189 CURVE",
"12 -189 OFFCURVE",
"60 -184 OFFCURVE",
"64 -172 CURVE SMOOTH",
"71 -154 OFFCURVE",
"70 -124 OFFCURVE",
"70 -88 CURVE SMOOTH",
"70 558 LINE SMOOTH",
"70 574 OFFCURVE",
"70 594 OFFCURVE",
"64 608 CURVE SMOOTH",
"58 621 OFFCURVE",
"24 626 OFFCURVE",
"4 626 CURVE",
"2 626 OFFCURVE",
"0 653 OFFCURVE",
"4 655 CURVE",
"85 663 OFFCURVE",
"150 684 OFFCURVE",
"172 694 CURVE",
"178 694 OFFCURVE",
"185 684 OFFCURVE",
"185 678 CURVE",
"185 678 OFFCURVE",
"174 632 OFFCURVE",
"174 584 CURVE",
"174 500 OFFCURVE",
"174 401 OFFCURVE",
"174 389 CURVE SMOOTH",
"174 388 OFFCURVE",
"174 385 OFFCURVE",
"175 384 CURVE SMOOTH",
"176 383 OFFCURVE",
"177 383 OFFCURVE",
"178 384 CURVE SMOOTH",
"206 410 OFFCURVE",
"256 443 OFFCURVE"
);
},
{
closed = 1;
nodes = (
"243 377 CURVE SMOOTH",
"204 377 OFFCURVE",
"174 354 OFFCURVE",
"174 344 CURVE SMOOTH",
"174 98 LINE SMOOTH",
"174 52 OFFCURVE",
"219 32 OFFCURVE",
"254 32 CURVE SMOOTH",
"312 32 OFFCURVE",
"367 99 OFFCURVE",
"367 197 CURVE SMOOTH",
"367 308 OFFCURVE",
"321 377 OFFCURVE"
);
}
);
width = 515;
}
);
unicode = 00FE;
userData = {
com.fontlab.hintData = {
hhints = (
{
position = -222;
width = 33;
},
{
position = -8;
width = 40;
},
{
position = 377;
width = 66;
},
{
position = 626;
width = 29;
},
{
position = 674;
width = 20;
}
);
vhints = (
{
position = 70;
width = 104;
},
{
position = 367;
width = 114;
}
);
};
};
},
{
glyphname = q;
lastChange = "2017-07-12 19:24:35 +0000";
layers = (
{
layerId = "7ECBB128-A556-4919-8826-F9D641050EDE";
paths = (
{
closed = 1;
nodes = (
"259 398 CURVE SMOOTH",
"177 398 OFFCURVE",
"148 305 OFFCURVE",
"148 239 CURVE SMOOTH",
"148 139 OFFCURVE",
"193 54 OFFCURVE",
"273 54 CURVE SMOOTH",
"311 54 OFFCURVE",
"343 76 OFFCURVE",
"343 86 CURVE SMOOTH",
"343 338 LINE SMOOTH",
"343 364 OFFCURVE",
"307 398 OFFCURVE"
);
},
{
closed = 1;
nodes = (
"293 442 CURVE SMOOTH",
"327 442 OFFCURVE",
"379 418 OFFCURVE",
"411 418 CURVE SMOOTH",
"425 418 OFFCURVE",
"433 421 OFFCURVE",
"439 423 CURVE",
"445 422 OFFCURVE",
"458 406 OFFCURVE",
"458 400 CURVE",
"451 384 OFFCURVE",
"447 350 OFFCURVE",
"447 306 CURVE SMOOTH",
"447 -88 LINE SMOOTH",
"447 -124 OFFCURVE",
"447 -154 OFFCURVE",
"453 -172 CURVE SMOOTH",
"457 -184 OFFCURVE",
"504 -189 OFFCURVE",
"516 -189 CURVE",
"520 -195 OFFCURVE",
"520 -216 OFFCURVE",
"516 -222 CURVE",
"476 -219 OFFCURVE",
"434 -216 OFFCURVE",
"394 -216 CURVE SMOOTH",
"354 -216 OFFCURVE",
"313 -219 OFFCURVE",
"273 -222 CURVE",
"269 -216 OFFCURVE",
"269 -195 OFFCURVE",
"273 -189 CURVE",
"285 -189 OFFCURVE",
"332 -184 OFFCURVE",
"336 -172 CURVE SMOOTH",
"342 -154 OFFCURVE",
"343 -124 OFFCURVE",
"343 -88 CURVE SMOOTH",
"343 28 LINE SMOOTH",
"343 34 OFFCURVE",
"342 44 OFFCURVE",
"336 40 CURVE SMOOTH",
"321 28 OFFCURVE",
"262 -8 OFFCURVE",
"217 -8 CURVE SMOOTH",
"109 -8 OFFCURVE",
"35 98 OFFCURVE",
"35 196 CURVE SMOOTH",
"35 343 OFFCURVE",
"176 442 OFFCURVE"
);
}
);
width = 517;
}
);
unicode = 0071;
userData = {
com.fontlab.hintData = {
hhints = (
{
position = -222;
width = 33;
},
{
position = -8;
width = 62;
},
{
position = 398;
width = 44;
}
);
vhints = (
{
position = 35;
width = 113;
},
{
position = 343;
width = 104;
}
);
};
};
},
{
glyphname = r;
lastChange = "2017-07-12 19:24:35 +0000";
layers = (
{
layerId = "7ECBB128-A556-4919-8826-F9D641050EDE";
paths = (
{
closed = 1;
nodes = (
"332 442 CURVE",
"358 442 OFFCURVE",
"383 433 OFFCURVE",
"394 419 CURVE",
"397 413 OFFCURVE",
"402 397 OFFCURVE",
"402 381 CURVE SMOOTH",
"402 345 OFFCURVE",
"377 316 OFFCURVE",
"355 316 CURVE",
"339 316 OFFCURVE",
"327 330 OFFCURVE",
"315 338 CURVE SMOOTH",
"305 346 OFFCURVE",
"297 354 OFFCURVE",
"279 354 CURVE",
"237 354 OFFCURVE",
"206 290 OFFCURVE",
"206 268 CURVE SMOOTH",
"206 130 LINE SMOOTH",
"206 96 OFFCURVE",
"206 64 OFFCURVE",
"212 46 CURVE SMOOTH",
"216 34 OFFCURVE",
"280 29 OFFCURVE",
"292 29 CURVE",
"296 23 OFFCURVE",
"296 2 OFFCURVE",
"292 -4 CURVE",
"252 -1 OFFCURVE",
"196 2 OFFCURVE",
"156 2 CURVE SMOOTH",
"115 2 OFFCURVE",
"72 -1 OFFCURVE",
"32 -4 CURVE",
"28 2 OFFCURVE",
"28 23 OFFCURVE",
"32 29 CURVE",
"44 29 OFFCURVE",
"91 34 OFFCURVE",
"95 46 CURVE SMOOTH",
"102 64 OFFCURVE",
"102 94 OFFCURVE",
"102 130 CURVE SMOOTH",
"102 282 LINE SMOOTH",
"102 294 OFFCURVE",
"102 335 OFFCURVE",
"95 349 CURVE SMOOTH",
"87 365 OFFCURVE",
"38 368 OFFCURVE",
"31 368 CURVE",
"29 370 OFFCURVE",
"27 394 OFFCURVE",
"31 396 CURVE",
"95 402 OFFCURVE",
"161 424 OFFCURVE",
"200 444 CURVE",
"206 443 OFFCURVE",
"214 431 OFFCURVE",
"214 427 CURVE",
"212 419 OFFCURVE",
"206 353 OFFCURVE",
"206 341 CURVE SMOOTH",
"206 337 OFFCURVE",
"210 336 OFFCURVE",
"211 338 CURVE SMOOTH",
"233 381 OFFCURVE",
"278 442 OFFCURVE"
);
}
);
width = 415;
}
);
unicode = 0072;
userData = {
com.fontlab.hintData = {
hhints = (
{
position = -4;
width = 33;
},
{
position = 354;
width = 88;
},
{
position = 368;
width = 28;
}
);
vhints = (
{
position = 102;
width = 104;
}
);
};
};
},
{
glyphname = s;
lastChange = "2017-07-12 19:24:35 +0000";
layers = (
{
layerId = "7ECBB128-A556-4919-8826-F9D641050EDE";
paths = (
{
closed = 1;
nodes = (
"210 443 CURVE SMOOTH",
"253 443 OFFCURVE",
"279 432 OFFCURVE",
"317 426 CURVE",
"325 394 OFFCURVE",
"334 336 OFFCURVE",
"334 310 CURVE SMOOTH",
"334 306 OFFCURVE",
"326 304 OFFCURVE",
"320 304 CURVE SMOOTH",
"314 304 OFFCURVE",
"308 306 OFFCURVE",
"302 310 CURVE",
"292 351 OFFCURVE",
"262 407 OFFCURVE",
"206 407 CURVE SMOOTH",
"166 407 OFFCURVE",
"142 384 OFFCURVE",
"142 348 CURVE SMOOTH",
"142 296 OFFCURVE",
"193 281 OFFCURVE",
"237 257 CURVE SMOOTH",
"285 231 OFFCURVE",
"348 202 OFFCURVE",
"348 128 CURVE SMOOTH",
"348 38 OFFCURVE",
"265 -10 OFFCURVE",
"173 -10 CURVE SMOOTH",
"128 -10 OFFCURVE",
"90 3 OFFCURVE",
"56 10 CURVE",
"50 32 OFFCURVE",
"44 110 OFFCURVE",
"44 128 CURVE",
"46 132 OFFCURVE",
"55 134 OFFCURVE",
"60 134 CURVE SMOOTH",
"65 134 OFFCURVE",
"73 132 OFFCURVE",
"76 128 CURVE",
"89 64 OFFCURVE",
"138 26 OFFCURVE",
"184 26 CURVE SMOOTH",
"222 26 OFFCURVE",
"248 53 OFFCURVE",
"248 90 CURVE SMOOTH",
"248 146 OFFCURVE",
"188 162 OFFCURVE",
"136 192 CURVE SMOOTH",
"87 220 OFFCURVE",
"44 252 OFFCURVE",
"44 312 CURVE SMOOTH",
"44 399 OFFCURVE",
"134 443 OFFCURVE"
);
}
);
width = 387;
}
);
unicode = 0073;
userData = {
com.fontlab.hintData = {
hhints = (
{
position = -10;
width = 36;
},
{
position = 407;
width = 36;
}
);
vhints = (
{
position = 44;
width = 98;
},
{
position = 44;
width = 32;
},
{
position = 248;
width = 100;
}
);
};
};
},
{
glyphname = germandbls;
lastChange = "2017-07-12 19:24:35 +0000";
layers = (
{
layerId = "7ECBB128-A556-4919-8826-F9D641050EDE";
paths = (
{
closed = 1;
nodes = (
"299 696 CURVE SMOOTH",
"389 696 OFFCURVE",
"474 649 OFFCURVE",
"474 562 CURVE SMOOTH",
"474 513 OFFCURVE",
"446 482 OFFCURVE",
"419 458 CURVE SMOOTH",
"389 431 OFFCURVE",
"350 406 OFFCURVE",
"350 380 CURVE SMOOTH",
"350 341 OFFCURVE",
"410 303 OFFCURVE",
"448 276 CURVE SMOOTH",
"490 246 OFFCURVE",
"538 210 OFFCURVE",
"538 145 CURVE SMOOTH",
"538 55 OFFCURVE",
"463 -10 OFFCURVE",
"387 -10 CURVE SMOOTH",
"339 -10 OFFCURVE",
"295 8 OFFCURVE",
"282 25 CURVE",
"280 32 OFFCURVE",
"278 41 OFFCURVE",
"278 50 CURVE SMOOTH",
"279 79 OFFCURVE",
"292 106 OFFCURVE",
"319 106 CURVE SMOOTH",
"346 106 OFFCURVE",
"357 79 OFFCURVE",
"368 60 CURVE SMOOTH",
"378 43 OFFCURVE",
"390 28 OFFCURVE",
"411 28 CURVE SMOOTH",
"441 28 OFFCURVE",
"458 52 OFFCURVE",
"458 92 CURVE SMOOTH",
"458 139 OFFCURVE",
"416 170 OFFCURVE",
"374 202 CURVE SMOOTH",
"327 237 OFFCURVE",
"270 270 OFFCURVE",
"270 336 CURVE SMOOTH",
"270 372 OFFCURVE",
"304 396 OFFCURVE",
"332 428 CURVE SMOOTH",
"358 457 OFFCURVE",
"377 486 OFFCURVE",
"377 537 CURVE SMOOTH",
"377 598 OFFCURVE",
"349 656 OFFCURVE",
"288 656 CURVE SMOOTH",
"224 656 OFFCURVE",
"200 571 OFFCURVE",
"200 480 CURVE SMOOTH",
"200 130 LINE SMOOTH",
"200 94 OFFCURVE",
"200 64 OFFCURVE",
"206 46 CURVE SMOOTH",
"210 34 OFFCURVE",
"249 30 OFFCURVE",
"261 30 CURVE",
"265 24 OFFCURVE",
"265 2 OFFCURVE",
"261 -4 CURVE",
"221 -1 OFFCURVE",
"188 2 OFFCURVE",
"148 2 CURVE SMOOTH",
"108 2 OFFCURVE",
"66 -1 OFFCURVE",
"26 -4 CURVE",
"22 2 OFFCURVE",
"22 24 OFFCURVE",
"26 30 CURVE",
"38 30 OFFCURVE",
"86 34 OFFCURVE",
"90 46 CURVE SMOOTH",
"96 64 OFFCURVE",
"96 94 OFFCURVE",
"96 130 CURVE SMOOTH",
"96 130 OFFCURVE",
"96 342 OFFCURVE",
"96 386 CURVE",
"82 386 OFFCURVE",
"51 386 OFFCURVE",
"38 386 CURVE",
"34 387 OFFCURVE",
"33 393 OFFCURVE",
"33 397 CURVE",
"38 406 OFFCURVE",
"56 424 OFFCURVE",
"62 430 CURVE",
"76 430 OFFCURVE",
"86 430 OFFCURVE",
"96 430 CURVE",
"96 430 OFFCURVE",
"96 438 OFFCURVE",
"96 440 CURVE",
"96 570 OFFCURVE",
"207 696 OFFCURVE"
);
}
);
width = 567;
}
);
unicode = 00DF;
userData = {
com.fontlab.hintData = {
hhints = (
{
position = -10;
width = 38;
},
{
position = 386;
width = 44;
},
{
position = 656;
width = 40;
}
);
vhints = (
{
position = 96;
width = 104;
},
{
position = 270;
width = 80;
},
{
position = 377;
width = 97;
},
{
position = 458;
width = 80;
}
);
};
};
},
{
glyphname = longs;
lastChange = "2017-07-12 19:24:35 +0000";
layers = (
{
layerId = "7ECBB128-A556-4919-8826-F9D641050EDE";
paths = (
{
closed = 1;
nodes = (
"202 347 CURVE SMOOTH",
"202 130 LINE SMOOTH",
"202 94 OFFCURVE",
"202 64 OFFCURVE",
"208 46 CURVE SMOOTH",
"212 34 OFFCURVE",
"262 29 OFFCURVE",
"274 29 CURVE",
"278 23 OFFCURVE",
"278 2 OFFCURVE",
"274 -4 CURVE",
"234 -1 OFFCURVE",
"190 2 OFFCURVE",
"150 2 CURVE SMOOTH",
"110 2 OFFCURVE",
"68 -1 OFFCURVE",
"28 -4 CURVE",
"24 2 OFFCURVE",
"24 23 OFFCURVE",
"28 29 CURVE",
"40 29 OFFCURVE",
"88 34 OFFCURVE",
"92 46 CURVE SMOOTH",
"98 64 OFFCURVE",
"98 94 OFFCURVE",
"98 130 CURVE SMOOTH",
"98 130 OFFCURVE",
"98 342 OFFCURVE",
"98 386 CURVE",
"84 386 OFFCURVE",
"47 386 OFFCURVE",
"34 386 CURVE",
"30 387 OFFCURVE",
"29 393 OFFCURVE",
"29 397 CURVE",
"34 406 OFFCURVE",
"52 424 OFFCURVE",
"58 430 CURVE",
"73 430 OFFCURVE",
"88 430 OFFCURVE",
"98 430 CURVE",
"98 440 LINE SMOOTH",
"98 581 OFFCURVE",
"220 698 OFFCURVE",
"288 698 CURVE SMOOTH",
"319 698 OFFCURVE",
"330 693 OFFCURVE",
"344 686 CURVE",
"354 680 OFFCURVE",
"368 667 OFFCURVE",
"368 650 CURVE",
"368 616 OFFCURVE",
"346 595 OFFCURVE",
"323 595 CURVE",
"303 595 OFFCURVE",
"290 610 OFFCURVE",
"275 620 CURVE SMOOTH",
"264 628 OFFCURVE",
"255 632 OFFCURVE",
"241 632 CURVE SMOOTH",
"217 632 OFFCURVE",
"198 598 OFFCURVE",
"198 544 CURVE",
"198 521 OFFCURVE",
"202 363 OFFCURVE"
);
}
);
width = 302;
}
);
unicode = 017F;
userData = {
com.fontlab.hintData = {
hhints = (
{
position = -4;
width = 33;
},
{
position = 386;
width = 44;
},
{
position = 632;
width = 66;
}
);
vhints = (
{
position = 98;
width = 104;
}
);
};
};
},
{
glyphname = t;
lastChange = "2017-07-12 19:24:35 +0000";
layers = (
{
layerId = "7ECBB128-A556-4919-8826-F9D641050EDE";
paths = (
{
closed = 1;
nodes = (
"187 430 CURVE",
"191 430 OFFCURVE",
"291 430 OFFCURVE",
"307 430 CURVE",
"311 430 OFFCURVE",
"313 424 OFFCURVE",
"313 418 CURVE SMOOTH",
"313 409 OFFCURVE",
"305 394 OFFCURVE",
"295 386 CURVE",
"280 386 OFFCURVE",
"203 386 OFFCURVE",
"187 386 CURVE",
"187 131 LINE SMOOTH",
"187 78 OFFCURVE",
"206 52 OFFCURVE",
"246 52 CURVE SMOOTH",
"273 52 OFFCURVE",
"300 72 OFFCURVE",
"305 76 CURVE",
"307 74 OFFCURVE",
"310 69 OFFCURVE",
"310 65 CURVE SMOOTH",
"310 59 OFFCURVE",
"306 50 OFFCURVE",
"304 48 CURVE SMOOTH",
"292 35 OFFCURVE",
"249 -7 OFFCURVE",
"199 -7 CURVE SMOOTH",
"143 -7 OFFCURVE",
"83 21 OFFCURVE",
"83 120 CURVE SMOOTH",
"83 386 LINE",
"69 386 OFFCURVE",
"31 386 OFFCURVE",
"18 386 CURVE",
"14 387 OFFCURVE",
"13 393 OFFCURVE",
"13 397 CURVE",
"18 406 OFFCURVE",
"36 424 OFFCURVE",
"42 430 CURVE",
"56 430 OFFCURVE",
"73 430 OFFCURVE",
"83 430 CURVE",
"83 436 OFFCURVE",
"83 474 OFFCURVE",
"83 488 CURVE",
"111 515 OFFCURVE",
"149 557 OFFCURVE",
"165 574 CURVE",
"173 580 OFFCURVE",
"187 580 OFFCURVE",
"187 575 CURVE",
"187 548 OFFCURVE",
"187 456 OFFCURVE"
);
}
);
width = 328;
}
);
unicode = 0074;
userData = {
com.fontlab.hintData = {
hhints = (
{
position = -7;
width = 59;
},
{
position = 386;
width = 44;
}
);
vhints = (
{
position = 83;
width = 104;
}
);
};
};
},
{
glyphname = tbar;
lastChange = "2017-07-12 19:24:35 +0000";
layers = (
{
components = (
{
name = t;
transform = "{1, 0, 0, 1, 1, 0}";
}
);
layerId = "7ECBB128-A556-4919-8826-F9D641050EDE";
paths = (
{
closed = 1;
nodes = (
"19 326 CURVE",
"48 326 OFFCURVE",
"286 326 OFFCURVE",
"300 326 CURVE",
"303 326 OFFCURVE",
"305 322 OFFCURVE",
"305 318 CURVE",
"305 311 OFFCURVE",
"303 297 OFFCURVE",
"300 290 CURVE",
"271 290 OFFCURVE",
"33 290 OFFCURVE",
"19 290 CURVE",
"16 290 OFFCURVE",
"14 296 OFFCURVE",
"14 300 CURVE",
"14 307 OFFCURVE",
"15 320 OFFCURVE"
);
}
);
width = 330;
}
);
unicode = 0167;
userData = {
com.fontlab.hintData = {
hhints = (
{
position = -7;
width = 59;
},
{
position = 290;
width = 36;
},
{
position = 386;
width = 44;
}
);
vhints = (
{
position = 84;
width = 104;
}
);
};
};
},
{
glyphname = u;
lastChange = "2017-07-12 19:24:35 +0000";
layers = (
{
layerId = "7ECBB128-A556-4919-8826-F9D641050EDE";
paths = (
{
closed = 1;
nodes = (
"352 291 LINE SMOOTH",
"352 303 OFFCURVE",
"352 344 OFFCURVE",
"344 359 CURVE SMOOTH",
"335 375 OFFCURVE",
"294 379 OFFCURVE",
"284 379 CURVE",
"281 381 OFFCURVE",
"281 405 OFFCURVE",
"285 407 CURVE",
"349 411 OFFCURVE",
"414 429 OFFCURVE",
"451 444 CURVE",
"457 443 OFFCURVE",
"465 429 OFFCURVE",
"465 425 CURVE",
"461 417 OFFCURVE",
"456 384 OFFCURVE",
"456 362 CURVE",
"456 351 OFFCURVE",
"456 310 OFFCURVE",
"456 307 CURVE",
"456 124 LINE SMOOTH",
"456 111 OFFCURVE",
"456 87 OFFCURVE",
"464 68 CURVE SMOOTH",
"471 54 OFFCURVE",
"510 54 OFFCURVE",
"516 54 CURVE",
"518 52 OFFCURVE",
"519 47 OFFCURVE",
"519 42 CURVE SMOOTH",
"519 38 OFFCURVE",
"516 27 OFFCURVE",
"512 24 CURVE",
"456 20 OFFCURVE",
"368 -8 OFFCURVE",
"361 -8 CURVE SMOOTH",
"357 -8 OFFCURVE",
"352 1 OFFCURVE",
"352 12 CURVE SMOOTH",
"352 44 LINE SMOOTH",
"352 48 OFFCURVE",
"352 49 OFFCURVE",
"350 48 CURVE",
"328 28 OFFCURVE",
"268 -6 OFFCURVE",
"208 -6 CURVE",
"106 -6 OFFCURVE",
"82 94 OFFCURVE",
"82 183 CURVE SMOOTH",
"82 291 LINE SMOOTH",
"82 303 OFFCURVE",
"81 344 OFFCURVE",
"73 359 CURVE SMOOTH",
"64 375 OFFCURVE",
"24 379 OFFCURVE",
"14 379 CURVE",
"11 381 OFFCURVE",
"10 405 OFFCURVE",
"14 407 CURVE",
"78 411 OFFCURVE",
"143 429 OFFCURVE",
"180 444 CURVE",
"186 443 OFFCURVE",
"194 429 OFFCURVE",
"194 425 CURVE",
"190 417 OFFCURVE",
"186 384 OFFCURVE",
"186 362 CURVE",
"186 351 OFFCURVE",
"186 311 OFFCURVE",
"186 308 CURVE",
"186 212 LINE SMOOTH",
"186 106 OFFCURVE",
"208 52 OFFCURVE",
"274 52 CURVE SMOOTH",
"310 52 OFFCURVE",
"352 78 OFFCURVE",
"352 98 CURVE SMOOTH"
);
}
);
width = 539;
}
);
unicode = 0075;
userData = {
com.fontlab.hintData = {
hhints = (
{
position = -8;
width = 21;
},
{
position = 24;
width = 30;
},
{
position = 48;
width = 4;
},
{
position = 379;
width = 28;
},
{
position = 424;
width = 20;
}
);
vhints = (
{
position = 82;
width = 104;
},
{
position = 352;
width = 104;
}
);
};
};
},
{
glyphname = uogonek;
lastChange = "2017-07-12 19:24:35 +0000";
layers = (
{
layerId = "7ECBB128-A556-4919-8826-F9D641050EDE";
paths = (
{
closed = 1;
nodes = (
"352 288 LINE SMOOTH",
"352 300 OFFCURVE",
"352 341 OFFCURVE",
"344 356 CURVE SMOOTH",
"335 372 OFFCURVE",
"294 376 OFFCURVE",
"284 376 CURVE",
"281 378 OFFCURVE",
"281 402 OFFCURVE",
"285 404 CURVE",
"349 408 OFFCURVE",
"414 426 OFFCURVE",
"451 441 CURVE",
"457 440 OFFCURVE",
"465 426 OFFCURVE",
"465 422 CURVE",
"461 414 OFFCURVE",
"456 384 OFFCURVE",
"456 362 CURVE SMOOTH",
"456 351 OFFCURVE",
"456 310 OFFCURVE",
"456 307 CURVE SMOOTH",
"456 124 LINE SMOOTH",
"456 111 OFFCURVE",
"456 87 OFFCURVE",
"464 68 CURVE",
"471 54 OFFCURVE",
"510 54 OFFCURVE",
"516 54 CURVE",
"518 52 OFFCURVE",
"519 47 OFFCURVE",
"519 42 CURVE SMOOTH",
"519 38 OFFCURVE",
"516 27 OFFCURVE",
"512 24 CURVE",
"432 8 OFFCURVE",
"378 -61 OFFCURVE",
"378 -112 CURVE SMOOTH",
"378 -130 OFFCURVE",
"387 -157 OFFCURVE",
"423 -157 CURVE SMOOTH",
"463 -157 OFFCURVE",
"493 -122 OFFCURVE",
"501 -118 CURVE SMOOTH",
"503 -118 OFFCURVE",
"506 -122 OFFCURVE",
"506 -130 CURVE SMOOTH",
"506 -135 OFFCURVE",
"503 -148 OFFCURVE",
"500 -152 CURVE SMOOTH",
"482 -176 OFFCURVE",
"436 -221 OFFCURVE",
"386 -221 CURVE SMOOTH",
"342 -221 OFFCURVE",
"314 -184 OFFCURVE",
"314 -144 CURVE SMOOTH",
"314 -96 OFFCURVE",
"355 -40 OFFCURVE",
"391 -6 CURVE SMOOTH",
"395 -2 OFFCURVE",
"397 -1 OFFCURVE",
"403 3 CURVE",
"375 -4 OFFCURVE",
"364 -8 OFFCURVE",
"361 -8 CURVE SMOOTH",
"357 -8 OFFCURVE",
"352 1 OFFCURVE",
"352 12 CURVE SMOOTH",
"352 44 LINE SMOOTH",
"352 48 OFFCURVE",
"352 49 OFFCURVE",
"350 48 CURVE SMOOTH",
"328 28 OFFCURVE",
"268 -6 OFFCURVE",
"208 -6 CURVE SMOOTH",
"106 -6 OFFCURVE",
"82 94 OFFCURVE",
"82 183 CURVE SMOOTH",
"82 288 LINE SMOOTH",
"82 300 OFFCURVE",
"81 341 OFFCURVE",
"73 356 CURVE SMOOTH",
"64 372 OFFCURVE",
"24 376 OFFCURVE",
"14 376 CURVE",
"11 378 OFFCURVE",
"10 402 OFFCURVE",
"14 404 CURVE",
"78 408 OFFCURVE",
"143 426 OFFCURVE",
"180 441 CURVE",
"186 440 OFFCURVE",
"194 426 OFFCURVE",
"194 422 CURVE",
"190 414 OFFCURVE",
"186 384 OFFCURVE",
"186 362 CURVE SMOOTH",
"186 351 OFFCURVE",
"186 311 OFFCURVE",
"186 308 CURVE SMOOTH",
"186 212 LINE SMOOTH",
"186 106 OFFCURVE",
"208 52 OFFCURVE",
"274 52 CURVE SMOOTH",
"310 52 OFFCURVE",
"352 78 OFFCURVE",
"352 98 CURVE SMOOTH"
);
}
);
width = 540;
}
);
unicode = 0173;
userData = {
com.fontlab.hintData = {
hhints = (
{
position = -221;
width = 64;
},
{
position = -8;
width = 21;
},
{
position = 24;
width = 30;
},
{
position = 48;
width = 4;
},
{
position = 376;
width = 28;
},
{
position = 421;
width = 20;
}
);
vhints = (
{
position = 82;
width = 104;
},
{
position = 314;
width = 64;
},
{
position = 352;
width = 104;
}
);
};
};
},
{
glyphname = v;
lastChange = "2017-07-12 19:24:35 +0000";
layers = (
{
layerId = "7ECBB128-A556-4919-8826-F9D641050EDE";
paths = (
{
closed = 1;
nodes = (
"119 430 CURVE SMOOTH",
"159 430 OFFCURVE",
"200 435 OFFCURVE",
"232 437 CURVE",
"236 431 OFFCURVE",
"235 407 OFFCURVE",
"230 404 CURVE",
"220 404 OFFCURVE",
"176 398 OFFCURVE",
"176 382 CURVE SMOOTH",
"176 380 OFFCURVE",
"175 376 OFFCURVE",
"177 372 CURVE SMOOTH",
"195 337 OFFCURVE",
"284 138 OFFCURVE",
"284 138 CURVE",
"284 138 OFFCURVE",
"332 256 OFFCURVE",
"368 340 CURVE SMOOTH",
"373 351 OFFCURVE",
"376 365 OFFCURVE",
"376 374 CURVE SMOOTH",
"376 396 OFFCURVE",
"333 404 OFFCURVE",
"312 404 CURVE",
"307 406 OFFCURVE",
"307 431 OFFCURVE",
"311 437 CURVE",
"341 434 OFFCURVE",
"364 430 OFFCURVE",
"404 430 CURVE SMOOTH",
"444 430 OFFCURVE",
"475 435 OFFCURVE",
"503 437 CURVE",
"507 431 OFFCURVE",
"505 408 OFFCURVE",
"501 404 CURVE",
"491 404 OFFCURVE",
"442 398 OFFCURVE",
"429 370 CURVE",
"399 300 OFFCURVE",
"306 97 OFFCURVE",
"277 26 CURVE",
"265 2 OFFCURVE",
"251 -11 OFFCURVE",
"242 -11 CURVE SMOOTH",
"238 -11 OFFCURVE",
"233 -7 OFFCURVE",
"231 -5 CURVE",
"169 132 OFFCURVE",
"121 248 OFFCURVE",
"60 374 CURVE",
"48 400 OFFCURVE",
"11 404 OFFCURVE",
"1 404 CURVE",
"-3 410 OFFCURVE",
"-3 429 OFFCURVE",
"1 437 CURVE",
"35 435 OFFCURVE",
"79 430 OFFCURVE"
);
}
);
width = 502;
}
);
unicode = 0076;
userData = {
com.fontlab.hintData = {
hhints = (
{
position = -11;
width = 21;
},
{
position = 404;
width = 33;
}
);
};
};
},
{
glyphname = w;
lastChange = "2017-07-12 19:24:35 +0000";
layers = (
{
layerId = "7ECBB128-A556-4919-8826-F9D641050EDE";
paths = (
{
closed = 1;
nodes = (
"115 430 CURVE SMOOTH",
"155 430 OFFCURVE",
"199 435 OFFCURVE",
"231 437 CURVE",
"235 431 OFFCURVE",
"234 408 OFFCURVE",
"230 404 CURVE",
"220 404 OFFCURVE",
"176 397 OFFCURVE",
"176 378 CURVE SMOOTH",
"176 376 OFFCURVE",
"176 371 OFFCURVE",
"179 364 CURVE SMOOTH",
"203 313 OFFCURVE",
"251 210 OFFCURVE",
"279 144 CURVE",
"305 208 OFFCURVE",
"353 319 OFFCURVE",
"353 331 CURVE SMOOTH",
"353 340 OFFCURVE",
"344 363 OFFCURVE",
"336 375 CURVE SMOOTH",
"323 397 OFFCURVE",
"293 404 OFFCURVE",
"283 404 CURVE",
"277 410 OFFCURVE",
"278 431 OFFCURVE",
"282 437 CURVE",
"322 433 OFFCURVE",
"355 430 OFFCURVE",
"395 430 CURVE",
"435 430 OFFCURVE",
"478 435 OFFCURVE",
"510 437 CURVE",
"514 431 OFFCURVE",
"514 409 OFFCURVE",
"510 404 CURVE",
"488 404 OFFCURVE",
"455 394 OFFCURVE",
"455 374 CURVE SMOOTH",
"455 371 OFFCURVE",
"455 366 OFFCURVE",
"457 361 CURVE SMOOTH",
"477 312 OFFCURVE",
"517 221 OFFCURVE",
"545 150 CURVE",
"565 199 OFFCURVE",
"600 285 OFFCURVE",
"623 343 CURVE SMOOTH",
"627 354 OFFCURVE",
"631 366 OFFCURVE",
"631 374 CURVE SMOOTH",
"631 401 OFFCURVE",
"582 403 OFFCURVE",
"566 404 CURVE",
"562 408 OFFCURVE",
"561 431 OFFCURVE",
"565 437 CURVE",
"601 434 OFFCURVE",
"621 430 OFFCURVE",
"661 430 CURVE SMOOTH",
"701 430 OFFCURVE",
"727 435 OFFCURVE",
"755 437 CURVE",
"757 433 OFFCURVE",
"759 410 OFFCURVE",
"753 404 CURVE",
"743 404 OFFCURVE",
"697 400 OFFCURVE",
"685 370 CURVE SMOOTH",
"629 236 OFFCURVE",
"597 159 OFFCURVE",
"539 25 CURVE SMOOTH",
"529 1 OFFCURVE",
"512 -11 OFFCURVE",
"504 -11 CURVE SMOOTH",
"500 -11 OFFCURVE",
"494 -7 OFFCURVE",
"492 -5 CURVE",
"492 -5 OFFCURVE",
"397 240 OFFCURVE",
"381 279 CURVE",
"365 240 OFFCURVE",
"277 26 OFFCURVE",
"277 26 CURVE SMOOTH",
"268 5 OFFCURVE",
"250 -11 OFFCURVE",
"240 -11 CURVE SMOOTH",
"236 -11 OFFCURVE",
"231 -7 OFFCURVE",
"229 -5 CURVE",
"163 147 OFFCURVE",
"127 231 OFFCURVE",
"60 374 CURVE",
"48 400 OFFCURVE",
"11 404 OFFCURVE",
"1 404 CURVE",
"-3 411 OFFCURVE",
"-3 431 OFFCURVE",
"1 437 CURVE",
"35 435 OFFCURVE",
"75 430 OFFCURVE"
);
}
);
width = 755;
}
);
unicode = 0077;
userData = {
com.fontlab.hintData = {
hhints = (
{
position = -11;
width = 21;
},
{
position = 404;
width = 33;
}
);
vhints = (
{
position = 353;
width = 102;
}
);
};
};
},
{
glyphname = x;
lastChange = "2017-07-12 19:24:35 +0000";
layers = (
{
layerId = "7ECBB128-A556-4919-8826-F9D641050EDE";
paths = (
{
closed = 1;
nodes = (
"139 430 CURVE",
"181 430 OFFCURVE",
"229 435 OFFCURVE",
"253 437 CURVE",
"256 433 OFFCURVE",
"257 410 OFFCURVE",
"252 404 CURVE",
"238 404 OFFCURVE",
"208 400 OFFCURVE",
"208 384 CURVE SMOOTH",
"208 381 OFFCURVE",
"211 376 OFFCURVE",
"215 371 CURVE SMOOTH",
"280 278 LINE",
"308 314 OFFCURVE",
"354 366 OFFCURVE",
"354 380 CURVE SMOOTH",
"354 402 OFFCURVE",
"298 404 OFFCURVE",
"291 404 CURVE",
"287 407 OFFCURVE",
"286 431 OFFCURVE",
"290 437 CURVE",
"326 434 OFFCURVE",
"353 430 OFFCURVE",
"393 430 CURVE SMOOTH",
"432 430 OFFCURVE",
"479 435 OFFCURVE",
"494 437 CURVE",
"496 432 OFFCURVE",
"497 408 OFFCURVE",
"493 404 CURVE",
"474 404 OFFCURVE",
"433 399 OFFCURVE",
"413 376 CURVE SMOOTH",
"377 332 OFFCURVE",
"335 277 OFFCURVE",
"306 243 CURVE",
"338 201 OFFCURVE",
"410 98 OFFCURVE",
"437 64 CURVE",
"457 36 OFFCURVE",
"491 29 OFFCURVE",
"509 29 CURVE",
"513 25 OFFCURVE",
"513 1 OFFCURVE",
"509 -4 CURVE",
"471 0 OFFCURVE",
"430 2 OFFCURVE",
"392 2 CURVE",
"350 2 OFFCURVE",
"307 -2 OFFCURVE",
"273 -4 CURVE",
"269 2 OFFCURVE",
"270 26 OFFCURVE",
"274 29 CURVE",
"287 29 OFFCURVE",
"319 36 OFFCURVE",
"319 50 CURVE SMOOTH",
"319 52 OFFCURVE",
"315 56 OFFCURVE",
"313 60 CURVE SMOOTH",
"313 60 OFFCURVE",
"252 146 OFFCURVE",
"238 166 CURVE",
"217 140 OFFCURVE",
"186 104 OFFCURVE",
"164 71 CURVE SMOOTH",
"159 64 OFFCURVE",
"157 58 OFFCURVE",
"157 54 CURVE SMOOTH",
"157 32 OFFCURVE",
"204 30 OFFCURVE",
"220 29 CURVE",
"224 27 OFFCURVE",
"224 2 OFFCURVE",
"220 -4 CURVE",
"186 -1 OFFCURVE",
"159 2 OFFCURVE",
"120 2 CURVE SMOOTH",
"80 2 OFFCURVE",
"37 -2 OFFCURVE",
"10 -4 CURVE",
"7 2 OFFCURVE",
"7 23 OFFCURVE",
"11 29 CURVE",
"36 31 OFFCURVE",
"76 39 OFFCURVE",
"100 66 CURVE",
"125 90 OFFCURVE",
"185 173 OFFCURVE",
"212 202 CURVE",
"182 242 OFFCURVE",
"116 342 OFFCURVE",
"89 376 CURVE",
"73 397 OFFCURVE",
"35 404 OFFCURVE",
"21 404 CURVE",
"17 408 OFFCURVE",
"17 431 OFFCURVE",
"21 437 CURVE",
"57 433 OFFCURVE",
"100 430 OFFCURVE"
);
}
);
width = 519;
}
);
unicode = 0078;
userData = {
com.fontlab.hintData = {
hhints = (
{
position = -4;
width = 33;
},
{
position = 404;
width = 33;
}
);
};
};
},
{
glyphname = y;
lastChange = "2017-07-12 19:24:35 +0000";
layers = (
{
layerId = "7ECBB128-A556-4919-8826-F9D641050EDE";
paths = (
{
closed = 1;
nodes = (
"119 430 CURVE SMOOTH",
"159 430 OFFCURVE",
"211 435 OFFCURVE",
"232 437 CURVE",
"236 431 OFFCURVE",
"235 407 OFFCURVE",
"230 404 CURVE",
"220 404 OFFCURVE",
"176 398 OFFCURVE",
"176 382 CURVE SMOOTH",
"176 380 OFFCURVE",
"176 376 OFFCURVE",
"178 372 CURVE SMOOTH",
"196 337 OFFCURVE",
"282 138 OFFCURVE",
"282 138 CURVE",
"282 138 OFFCURVE",
"330 256 OFFCURVE",
"366 340 CURVE SMOOTH",
"371 351 OFFCURVE",
"375 365 OFFCURVE",
"375 374 CURVE SMOOTH",
"375 396 OFFCURVE",
"331 404 OFFCURVE",
"310 404 CURVE",
"305 406 OFFCURVE",
"306 431 OFFCURVE",
"310 437 CURVE",
"332 434 OFFCURVE",
"367 430 OFFCURVE",
"407 430 CURVE SMOOTH",
"447 430 OFFCURVE",
"483 435 OFFCURVE",
"501 437 CURVE",
"505 431 OFFCURVE",
"504 408 OFFCURVE",
"500 404 CURVE",
"490 404 OFFCURVE",
"441 398 OFFCURVE",
"428 370 CURVE",
"398 300 OFFCURVE",
"331 153 OFFCURVE",
"271 16 CURVE SMOOTH",
"243 -47 OFFCURVE",
"221 -101 OFFCURVE",
"185 -152 CURVE SMOOTH",
"151 -197 OFFCURVE",
"111 -223 OFFCURVE",
"81 -223 CURVE SMOOTH",
"50 -223 OFFCURVE",
"24 -207 OFFCURVE",
"24 -175 CURVE",
"24 -157 OFFCURVE",
"33 -145 OFFCURVE",
"42 -137 CURVE",
"105 -137 OFFCURVE",
"145 -122 OFFCURVE",
"181 -70 CURVE SMOOTH",
"199 -45 OFFCURVE",
"214 -4 OFFCURVE",
"222 16 CURVE",
"174 129 OFFCURVE",
"91 310 OFFCURVE",
"61 374 CURVE",
"49 400 OFFCURVE",
"12 404 OFFCURVE",
"2 404 CURVE",
"-2 408 OFFCURVE",
"-1 433 OFFCURVE",
"2 437 CURVE",
"25 435 OFFCURVE",
"79 430 OFFCURVE"
);
}
);
width = 501;
}
);
unicode = 0079;
userData = {
com.fontlab.hintData = {
hhints = (
{
position = -223;
width = 86;
},
{
position = 404;
width = 33;
}
);
};
};
},
{
glyphname = z;
lastChange = "2017-07-12 19:24:35 +0000";
layers = (
{
layerId = "7ECBB128-A556-4919-8826-F9D641050EDE";
paths = (
{
closed = 1;
nodes = (
"149 430 CURVE SMOOTH",
"282 430 LINE SMOOTH",
"336 430 OFFCURVE",
"366 433 OFFCURVE",
"407 438 CURVE",
"412 430 OFFCURVE",
"411 419 OFFCURVE",
"411 414 CURVE",
"411 414 OFFCURVE",
"157 42 OFFCURVE",
"157 40 CURVE",
"283 40 LINE SMOOTH",
"344 40 OFFCURVE",
"381 96 OFFCURVE",
"391 136 CURVE SMOOTH",
"392 141 OFFCURVE",
"397 142 OFFCURVE",
"401 142 CURVE SMOOTH",
"411 142 OFFCURVE",
"424 136 OFFCURVE",
"427 132 CURVE",
"421 112 OFFCURVE",
"392 23 OFFCURVE",
"384 0 CURVE",
"355 0 OFFCURVE",
"110 0 OFFCURVE",
"44 0 CURVE",
"40 1 OFFCURVE",
"31 10 OFFCURVE",
"31 18 CURVE SMOOTH",
"31 21 OFFCURVE",
"32 28 OFFCURVE",
"34 30 CURVE SMOOTH",
"275 388 LINE",
"275 388 OFFCURVE",
"169 390 OFFCURVE",
"153 390 CURVE",
"99 390 OFFCURVE",
"84 334 OFFCURVE",
"74 308 CURVE SMOOTH",
"72 304 OFFCURVE",
"61 300 OFFCURVE",
"51 300 CURVE SMOOTH",
"45 300 OFFCURVE",
"40 301 OFFCURVE",
"40 303 CURVE",
"44 319 OFFCURVE",
"54 384 OFFCURVE",
"57 437 CURVE",
"57 437 OFFCURVE",
"113 430 OFFCURVE"
);
}
);
width = 453;
}
);
unicode = 007A;
userData = {
com.fontlab.hintData = {
hhints = (
{
position = 0;
width = 40;
},
{
position = 390;
width = 40;
},
{
position = 418;
width = 20;
}
);
vhints = (
{
position = 391;
width = 36;
}
);
};
};
},
{
glyphname = ordfeminine;
lastChange = "2017-07-12 19:24:35 +0000";
layers = (
{
layerId = "7ECBB128-A556-4919-8826-F9D641050EDE";
paths = (
{
closed = 1;
nodes = (
"168 290 CURVE SMOOTH",
"188 290 OFFCURVE",
"213 310 OFFCURVE",
"213 316 CURVE SMOOTH",
"213 402 LINE",
"197 396 OFFCURVE",
"170 389 OFFCURVE",
"156 382 CURVE SMOOTH",
"134 371 OFFCURVE",
"123 356 OFFCURVE",
"123 336 CURVE SMOOTH",
"123 308 OFFCURVE",
"146 290 OFFCURVE"
);
},
{
closed = 1;
nodes = (
"194 556 CURVE SMOOTH",
"244 556 OFFCURVE",
"287 514 OFFCURVE",
"287 457 CURVE SMOOTH",
"287 323 LINE SMOOTH",
"287 305 OFFCURVE",
"294 294 OFFCURVE",
"306 294 CURVE SMOOTH",
"317 294 OFFCURVE",
"327 302 OFFCURVE",
"329 303 CURVE",
"331 303 OFFCURVE",
"334 297 OFFCURVE",
"334 294 CURVE",
"334 290 OFFCURVE",
"332 284 OFFCURVE",
"330 281 CURVE",
"321 273 OFFCURVE",
"288 250 OFFCURVE",
"265 250 CURVE SMOOTH",
"243 250 OFFCURVE",
"222 270 OFFCURVE",
"216 288 CURVE",
"208 282 OFFCURVE",
"158 248 OFFCURVE",
"133 248 CURVE SMOOTH",
"83 248 OFFCURVE",
"45 288 OFFCURVE",
"45 330 CURVE SMOOTH",
"45 357 OFFCURVE",
"65 379 OFFCURVE",
"81 385 CURVE SMOOTH",
"114 397 OFFCURVE",
"181 421 OFFCURVE",
"209 432 CURVE",
"213 436 OFFCURVE",
"213 437 OFFCURVE",
"213 445 CURVE SMOOTH",
"213 464 LINE SMOOTH",
"213 496 OFFCURVE",
"194 526 OFFCURVE",
"162 526 CURVE SMOOTH",
"136 526 OFFCURVE",
"128 508 OFFCURVE",
"122 480 CURVE SMOOTH",
"118 460 OFFCURVE",
"106 449 OFFCURVE",
"85 449 CURVE SMOOTH",
"67 449 OFFCURVE",
"54 464 OFFCURVE",
"54 480 CURVE SMOOTH",
"54 486 OFFCURVE",
"57 496 OFFCURVE",
"61 502 CURVE",
"76 516 OFFCURVE",
"136 556 OFFCURVE"
);
}
);
width = 366;
}
);
unicode = 00AA;
userData = {
com.fontlab.hintData = {
hhints = (
{
position = 248;
width = 42;
},
{
position = 526;
width = 30;
}
);
vhints = (
{
position = 45;
width = 78;
},
{
position = 54;
width = 68;
},
{
position = 213;
width = 74;
}
);
};
};
},
{
glyphname = ordmasculine;
lastChange = "2017-07-12 19:24:35 +0000";
layers = (
{
layerId = "7ECBB128-A556-4919-8826-F9D641050EDE";
paths = (
{
closed = 1;
nodes = (
"191 526 CURVE",
"135 526 OFFCURVE",
"123 464 OFFCURVE",
"123 412 CURVE",
"123 350 OFFCURVE",
"147 277 OFFCURVE",
"207 277 CURVE",
"261 277 OFFCURVE",
"275 339 OFFCURVE",
"275 390 CURVE",
"275 452 OFFCURVE",
"250 526 OFFCURVE"
);
},
{
closed = 1;
nodes = (
"199 553 CURVE SMOOTH",
"292 553 OFFCURVE",
"361 488 OFFCURVE",
"361 404 CURVE SMOOTH",
"361 320 OFFCURVE",
"290 249 OFFCURVE",
"199 249 CURVE SMOOTH",
"106 249 OFFCURVE",
"37 316 OFFCURVE",
"37 400 CURVE SMOOTH",
"37 484 OFFCURVE",
"107 553 OFFCURVE"
);
}
);
width = 398;
}
);
unicode = 00BA;
userData = {
com.fontlab.hintData = {
hhints = (
{
position = 249;
width = 28;
},
{
position = 526;
width = 27;
}
);
vhints = (
{
position = 37;
width = 86;
},
{
position = 275;
width = 86;
}
);
};
};
},
{
glyphname = zero;
lastChange = "2017-07-12 19:24:35 +0000";
layers = (
{
layerId = "7ECBB128-A556-4919-8826-F9D641050EDE";
paths = (
{
closed = 1;
nodes = (
"248 594 CURVE SMOOTH",
"174 594 OFFCURVE",
"133 468 OFFCURVE",
"133 311 CURVE SMOOTH",
"133 154 OFFCURVE",
"181 37 OFFCURVE",
"243 37 CURVE SMOOTH",
"320 37 OFFCURVE",
"354 169 OFFCURVE",
"354 326 CURVE SMOOTH",
"354 483 OFFCURVE",
"312 594 OFFCURVE"
);
},
{
closed = 1;
nodes = (
"245 634 CURVE SMOOTH",
"375 634 OFFCURVE",
"463 502 OFFCURVE",
"463 315 CURVE SMOOTH",
"463 141 OFFCURVE",
"374 -3 OFFCURVE",
"245 -3 CURVE SMOOTH",
"117 -3 OFFCURVE",
"24 128 OFFCURVE",
"24 315 CURVE SMOOTH",
"24 489 OFFCURVE",
"116 634 OFFCURVE"
);
}
);
width = 487;
}
);
unicode = 0030;
userData = {
com.fontlab.hintData = {
hhints = (
{
position = -3;
width = 40;
},
{
position = 594;
width = 40;
}
);
vhints = (
{
position = 24;
width = 109;
},
{
position = 354;
width = 109;
}
);
};
};
},
{
glyphname = one;
lastChange = "2017-07-12 19:24:35 +0000";
layers = (
{
layerId = "7ECBB128-A556-4919-8826-F9D641050EDE";
paths = (
{
closed = 1;
nodes = (
"206.58 130 CURVE SMOOTH",
"206.58 501 LINE SMOOTH",
"206.58 537 OFFCURVE",
"200.58 546 OFFCURVE",
"185.58 546 CURVE SMOOTH",
"173.58 546 OFFCURVE",
"132.58 534 OFFCURVE",
"114.58 525 CURVE",
"108.58 529 OFFCURVE",
"102.58 537 OFFCURVE",
"102.58 543 CURVE SMOOTH",
"102.58 545 OFFCURVE",
"101.58 551 OFFCURVE",
"104.58 552 CURVE SMOOTH",
"202.58 595 OFFCURVE",
"303.58 642 OFFCURVE",
"306.58 642 CURVE SMOOTH",
"308.58 642 LINE SMOOTH",
"314.58 642 OFFCURVE",
"318.58 630 OFFCURVE",
"319.58 625 CURVE",
"319.58 625 OFFCURVE",
"310.58 593 OFFCURVE",
"310.58 530 CURVE SMOOTH",
"310.58 130 LINE SMOOTH",
"310.58 94 OFFCURVE",
"311.58 64 OFFCURVE",
"317.58 46 CURVE SMOOTH",
"321.58 34 OFFCURVE",
"369.58 29 OFFCURVE",
"381.58 29 CURVE",
"385.58 23 OFFCURVE",
"385.58 2 OFFCURVE",
"381.58 -4 CURVE",
"341.58 -1 OFFCURVE",
"297.58 2 OFFCURVE",
"257.58 2 CURVE SMOOTH",
"217.58 2 OFFCURVE",
"175.58 -1 OFFCURVE",
"135.58 -4 CURVE",
"131.58 2 OFFCURVE",
"131.58 23 OFFCURVE",
"135.58 29 CURVE",
"148.58 29 OFFCURVE",
"195.58 34 OFFCURVE",
"199.58 46 CURVE SMOOTH",
"205.58 64 OFFCURVE",
"206.58 94 OFFCURVE"
);
}
);
width = 487;
}
);
unicode = 0031;
userData = {
com.fontlab.hintData = {
hhints = (
{
position = -4;
width = 33;
},
{
position = 622;
width = 20;
}
);
vhints = (
{
position = 207;
width = 104;
}
);
};
};
},
{
glyphname = two;
lastChange = "2017-07-12 19:24:35 +0000";
layers = (
{
layerId = "7ECBB128-A556-4919-8826-F9D641050EDE";
paths = (
{
closed = 1;
nodes = (
"454.5 171 CURVE",
"438.5 123 OFFCURVE",
"402.5 18 OFFCURVE",
"396.5 0 CURVE",
"396.5 0 OFFCURVE",
"44.5 0 OFFCURVE",
"40.5 0 CURVE",
"36.5 4 OFFCURVE",
"32.5 12 OFFCURVE",
"32.5 16 CURVE",
"112.5 105 OFFCURVE",
"190.5 190 OFFCURVE",
"254.5 288 CURVE SMOOTH",
"298.5 354 OFFCURVE",
"308.5 405 OFFCURVE",
"308.5 452 CURVE SMOOTH",
"308.5 520 OFFCURVE",
"257.5 570 OFFCURVE",
"198.5 570 CURVE SMOOTH",
"123.5 570 OFFCURVE",
"80.5 506 OFFCURVE",
"70.5 492 CURVE",
"64.5 492 OFFCURVE",
"50.5 502 OFFCURVE",
"50.5 512 CURVE",
"62.5 544 OFFCURVE",
"134.5 642 OFFCURVE",
"242.5 642 CURVE SMOOTH",
"338.5 642 OFFCURVE",
"416.5 570 OFFCURVE",
"416.5 474 CURVE SMOOTH",
"416.5 415 OFFCURVE",
"388.5 360 OFFCURVE",
"348.5 312 CURVE SMOOTH",
"285.5 236 OFFCURVE",
"203.5 144 OFFCURVE",
"146.5 88 CURVE",
"332.5 88 LINE SMOOTH",
"382.5 88 OFFCURVE",
"402.5 126 OFFCURVE",
"420.5 170 CURVE SMOOTH",
"422.5 175 OFFCURVE",
"428.5 177 OFFCURVE",
"434.5 177 CURVE SMOOTH",
"440.5 177 OFFCURVE",
"450.5 175 OFFCURVE"
);
}
);
width = 487;
}
);
unicode = 0032;
userData = {
com.fontlab.hintData = {
hhints = (
{
position = 0;
width = 88;
},
{
position = 570;
width = 72;
}
);
vhints = (
{
position = 308;
width = 108;
}
);
};
};
},
{
glyphname = three;
lastChange = "2017-07-12 19:24:35 +0000";
layers = (
{
layerId = "7ECBB128-A556-4919-8826-F9D641050EDE";
paths = (
{
closed = 1;
nodes = (
"255.5 642 CURVE SMOOTH",
"305.5 642 OFFCURVE",
"397.5 605 OFFCURVE",
"397.5 514 CURVE SMOOTH",
"397.5 440 OFFCURVE",
"325.5 392 OFFCURVE",
"295.5 376 CURVE",
"333.5 375 OFFCURVE",
"441.5 322 OFFCURVE",
"441.5 219 CURVE SMOOTH",
"441.5 80 OFFCURVE",
"305.5 -6 OFFCURVE",
"179.5 -6 CURVE SMOOTH",
"133.5 -6 OFFCURVE",
"87.5 8 OFFCURVE",
"61.5 24 CURVE",
"55.5 30 OFFCURVE",
"45.5 52 OFFCURVE",
"45.5 65 CURVE SMOOTH",
"45.5 91 OFFCURVE",
"63.5 116 OFFCURVE",
"91.5 116 CURVE SMOOTH",
"119.5 116 OFFCURVE",
"135.5 88 OFFCURVE",
"151.5 70 CURVE SMOOTH",
"169.5 50 OFFCURVE",
"199.5 35 OFFCURVE",
"225.5 35 CURVE SMOOTH",
"283.5 35 OFFCURVE",
"331.5 82 OFFCURVE",
"331.5 184 CURVE SMOOTH",
"331.5 262 OFFCURVE",
"277.5 326 OFFCURVE",
"211.5 326 CURVE SMOOTH",
"197.5 326 OFFCURVE",
"174.5 321 OFFCURVE",
"155.5 316 CURVE",
"151.5 321 OFFCURVE",
"147.5 330 OFFCURVE",
"147.5 338 CURVE SMOOTH",
"147.5 342 OFFCURVE",
"147.5 345 OFFCURVE",
"149.5 348 CURVE",
"217.5 362 OFFCURVE",
"301.5 399 OFFCURVE",
"301.5 477 CURVE SMOOTH",
"301.5 534 OFFCURVE",
"263.5 578 OFFCURVE",
"205.5 578 CURVE SMOOTH",
"147.5 578 OFFCURVE",
"101.5 528 OFFCURVE",
"93.5 520 CURVE",
"87.5 521 OFFCURVE",
"81.5 535 OFFCURVE",
"81.5 544 CURVE",
"115.5 592 OFFCURVE",
"176.5 642 OFFCURVE"
);
}
);
width = 487;
}
);
unicode = 0033;
userData = {
com.fontlab.hintData = {
hhints = (
{
position = -6;
width = 41;
},
{
position = 316;
width = 32;
},
{
position = 578;
width = 64;
}
);
vhints = (
{
position = 302;
width = 96;
},
{
position = 332;
width = 110;
}
);
};
};
},
{
glyphname = four;
lastChange = "2017-07-12 19:24:35 +0000";
layers = (
{
layerId = "7ECBB128-A556-4919-8826-F9D641050EDE";
paths = (
{
closed = 1;
nodes = (
"379 644 CURVE SMOOTH",
"387 644 OFFCURVE",
"400 631 OFFCURVE",
"400 621 CURVE SMOOTH",
"400 236 LINE",
"453 236 LINE SMOOTH",
"459 236 OFFCURVE",
"467 217 OFFCURVE",
"467 192 CURVE SMOOTH",
"467 180 OFFCURVE",
"462 176 OFFCURVE",
"461 174 CURVE",
"400 174 LINE",
"400 2 LINE",
"400 2 OFFCURVE",
"385 -6 OFFCURVE",
"345 -6 CURVE SMOOTH",
"316 -6 OFFCURVE",
"298 -3 OFFCURVE",
"298 5 CURVE SMOOTH",
"298 174 LINE",
"30 174 LINE",
"22 178 OFFCURVE",
"20 186 OFFCURVE",
"20 196 CURVE",
"80 270 OFFCURVE",
"302 558 OFFCURVE",
"355 624 CURVE",
"361 632 OFFCURVE",
"371 644 OFFCURVE"
);
},
{
closed = 1;
nodes = (
"298 495 LINE",
"97 236 LINE",
"298 236 LINE"
);
}
);
width = 487;
}
);
unicode = 0034;
userData = {
com.fontlab.hintData = {
hhints = (
{
position = -6;
width = 21;
},
{
position = 174;
width = 62;
},
{
position = 624;
width = 20;
}
);
vhints = (
{
position = 298;
width = 102;
}
);
};
};
},
{
glyphname = five;
lastChange = "2017-07-12 19:24:35 +0000";
layers = (
{
layerId = "7ECBB128-A556-4919-8826-F9D641050EDE";
paths = (
{
closed = 1;
nodes = (
"245 410 CURVE SMOOTH",
"347 410 OFFCURVE",
"440 319 OFFCURVE",
"440 224 CURVE SMOOTH",
"440 85 OFFCURVE",
"307 -6 OFFCURVE",
"181 -6 CURVE SMOOTH",
"135 -6 OFFCURVE",
"89 8 OFFCURVE",
"63 24 CURVE",
"57 30 OFFCURVE",
"47 52 OFFCURVE",
"47 65 CURVE SMOOTH",
"47 91 OFFCURVE",
"65 116 OFFCURVE",
"93 116 CURVE SMOOTH",
"121 116 OFFCURVE",
"137 88 OFFCURVE",
"153 70 CURVE SMOOTH",
"171 50 OFFCURVE",
"200 35 OFFCURVE",
"226 35 CURVE SMOOTH",
"284 35 OFFCURVE",
"333 81 OFFCURVE",
"333 184 CURVE SMOOTH",
"333 260 OFFCURVE",
"269 334 OFFCURVE",
"183 334 CURVE",
"141 334 OFFCURVE",
"108 325 OFFCURVE",
"95 319 CURVE",
"90 319 OFFCURVE",
"87 330 OFFCURVE",
"87 336 CURVE",
"99 394 OFFCURVE",
"133 580 OFFCURVE",
"143 636 CURVE",
"200 636 OFFCURVE",
"275 636 OFFCURVE",
"307 636 CURVE",
"349 636 OFFCURVE",
"391 643 OFFCURVE",
"398 645 CURVE",
"404 642 OFFCURVE",
"411 640 OFFCURVE",
"411 632 CURVE SMOOTH",
"411 620 OFFCURVE",
"389 566 OFFCURVE",
"377 549 CURVE",
"337 545 OFFCURVE",
"292 543 OFFCURVE",
"245 542 CURVE",
"229 542 OFFCURVE",
"181 542 OFFCURVE",
"169 542 CURVE",
"162 507 OFFCURVE",
"145 421 OFFCURVE",
"139 393 CURVE",
"165 401 OFFCURVE",
"213 410 OFFCURVE"
);
}
);
width = 487;
}
);
unicode = 0035;
userData = {
com.fontlab.hintData = {
hhints = (
{
position = -6;
width = 41;
},
{
position = 334;
width = 76;
},
{
position = 542;
width = 94;
},
{
position = 625;
width = 20;
}
);
vhints = (
{
position = 333;
width = 107;
}
);
};
};
},
{
glyphname = six;
lastChange = "2017-07-12 19:24:35 +0000";
layers = (
{
layerId = "7ECBB128-A556-4919-8826-F9D641050EDE";
paths = (
{
closed = 1;
nodes = (
"155 316 CURVE",
"151 288 OFFCURVE",
"148 256 OFFCURVE",
"148 230 CURVE SMOOTH",
"148 143 OFFCURVE",
"178 32 OFFCURVE",
"250 32 CURVE SMOOTH",
"301 32 OFFCURVE",
"339 93 OFFCURVE",
"339 183 CURVE SMOOTH",
"339 268 OFFCURVE",
"308 346 OFFCURVE",
"228 346 CURVE SMOOTH",
"208 346 OFFCURVE",
"179 341 OFFCURVE"
);
},
{
closed = 1;
nodes = (
"264 400 CURVE SMOOTH",
"382 400 OFFCURVE",
"447 313 OFFCURVE",
"447 205 CURVE SMOOTH",
"447 91 OFFCURVE",
"350 -6 OFFCURVE",
"240 -6 CURVE SMOOTH",
"124 -6 OFFCURVE",
"40 112 OFFCURVE",
"40 231 CURVE",
"40 337 OFFCURVE",
"85 432 OFFCURVE",
"146 498 CURVE SMOOTH",
"224 582 OFFCURVE",
"332 630 OFFCURVE",
"408 646 CURVE",
"416 643 OFFCURVE",
"418 626 OFFCURVE",
"417 618 CURVE",
"312 578 OFFCURVE",
"203 504 OFFCURVE",
"165 365 CURVE",
"195 387 OFFCURVE",
"234 400 OFFCURVE"
);
}
);
width = 487;
}
);
unicode = 0036;
userData = {
com.fontlab.hintData = {
hhints = (
{
position = -6;
width = 38;
},
{
position = 346;
width = 54;
},
{
position = 618;
width = 28;
}
);
vhints = (
{
position = 40;
width = 108;
},
{
position = 339;
width = 108;
}
);
};
};
},
{
glyphname = seven;
lastChange = "2017-07-12 19:24:35 +0000";
layers = (
{
layerId = "7ECBB128-A556-4919-8826-F9D641050EDE";
paths = (
{
closed = 1;
nodes = (
"369.5 635 CURVE SMOOTH",
"399.5 635 OFFCURVE",
"443.5 638 OFFCURVE",
"449.5 638 CURVE SMOOTH",
"455.5 638 OFFCURVE",
"455.5 631 OFFCURVE",
"455.5 626 CURVE SMOOTH",
"455.5 615 OFFCURVE",
"441.5 592 OFFCURVE",
"427.5 562 CURVE SMOOTH",
"159.5 -5 LINE",
"156.5 -7 OFFCURVE",
"149.5 -8 OFFCURVE",
"145.5 -8 CURVE SMOOTH",
"134.5 -8 OFFCURVE",
"101.5 -1 OFFCURVE",
"101.5 13 CURVE",
"173.5 121 OFFCURVE",
"337.5 452 OFFCURVE",
"383.5 548 CURVE",
"139.5 548 LINE SMOOTH",
"94.5 548 OFFCURVE",
"79.5 514 OFFCURVE",
"65.5 468 CURVE SMOOTH",
"64.5 464 OFFCURVE",
"61.5 462 OFFCURVE",
"53.5 462 CURVE SMOOTH",
"46.5 462 OFFCURVE",
"35.5 464 OFFCURVE",
"31.5 468 CURVE",
"46.5 520 OFFCURVE",
"66.5 602 OFFCURVE",
"73.5 634 CURVE",
"81.5 634 OFFCURVE",
"369.5 635 OFFCURVE"
);
}
);
width = 487;
}
);
unicode = 0037;
userData = {
com.fontlab.hintData = {
hhints = (
{
position = -8;
width = 21;
},
{
position = 548;
width = 86;
}
);
vhints = (
{
position = 32;
width = 34;
}
);
};
};
},
{
glyphname = eight;
lastChange = "2017-07-12 19:24:35 +0000";
layers = (
{
layerId = "7ECBB128-A556-4919-8826-F9D641050EDE";
paths = (
{
closed = 1;
nodes = (
"244.5 31 CURVE",
"302.5 31 OFFCURVE",
"336.5 72 OFFCURVE",
"336.5 128 CURVE",
"336.5 208 OFFCURVE",
"238.5 270 OFFCURVE",
"216.5 285 CURVE SMOOTH",
"212.5 287 OFFCURVE",
"210.5 288 OFFCURVE",
"208.5 288 CURVE SMOOTH",
"206.5 288 OFFCURVE",
"205.5 290 OFFCURVE",
"204.5 288 CURVE SMOOTH",
"166.5 257 OFFCURVE",
"149.5 213 OFFCURVE",
"149.5 156 CURVE",
"149.5 86 OFFCURVE",
"188.5 31 OFFCURVE"
);
},
{
closed = 1;
nodes = (
"240.5 600 CURVE",
"198.5 600 OFFCURVE",
"166.5 557 OFFCURVE",
"166.5 505 CURVE",
"166.5 432 OFFCURVE",
"230.5 393 OFFCURVE",
"262.5 375 CURVE SMOOTH",
"264.5 373 OFFCURVE",
"267.5 372 OFFCURVE",
"270.5 372 CURVE SMOOTH",
"272.5 372 OFFCURVE",
"274.5 372 OFFCURVE",
"276.5 374 CURVE SMOOTH",
"306.5 401 OFFCURVE",
"320.5 438 OFFCURVE",
"320.5 486 CURVE",
"320.5 538 OFFCURVE",
"292.5 600 OFFCURVE"
);
},
{
closed = 1;
nodes = (
"244.5 638 CURVE",
"334.5 638 OFFCURVE",
"418.5 586 OFFCURVE",
"418.5 492 CURVE",
"418.5 422 OFFCURVE",
"360.5 375 OFFCURVE",
"308.5 349 CURVE",
"305.5 348 OFFCURVE",
"306.5 346 OFFCURVE",
"308.5 344 CURVE SMOOTH",
"356.5 316 OFFCURVE",
"442.5 248 OFFCURVE",
"442.5 167 CURVE",
"442.5 63 OFFCURVE",
"342.5 -8 OFFCURVE",
"238.5 -8 CURVE",
"132.5 -8 OFFCURVE",
"44.5 46 OFFCURVE",
"44.5 154 CURVE",
"44.5 240 OFFCURVE",
"122.5 290 OFFCURVE",
"172.5 312 CURVE SMOOTH",
"174.5 314 OFFCURVE",
"175.5 316 OFFCURVE",
"172.5 318 CURVE SMOOTH",
"134.5 346 OFFCURVE",
"64.5 399 OFFCURVE",
"64.5 483 CURVE",
"64.5 569 OFFCURVE",
"153.5 638 OFFCURVE"
);
}
);
width = 487;
}
);
unicode = 0038;
userData = {
com.fontlab.hintData = {
hhints = (
{
position = -8;
width = 39;
},
{
position = 600;
width = 38;
}
);
vhints = (
{
position = 44;
width = 105;
},
{
position = 64;
width = 102;
},
{
position = 320;
width = 98;
},
{
position = 336;
width = 106;
}
);
};
};
},
{
glyphname = nine;
lastChange = "2017-07-12 19:24:35 +0000";
layers = (
{
layerId = "7ECBB128-A556-4919-8826-F9D641050EDE";
paths = (
{
closed = 1;
nodes = (
"333 324 CURVE",
"337 349 OFFCURVE",
"339 382 OFFCURVE",
"339 410 CURVE SMOOTH",
"339 497 OFFCURVE",
"310 608 OFFCURVE",
"238 608 CURVE SMOOTH",
"187 608 OFFCURVE",
"148 547 OFFCURVE",
"148 457 CURVE SMOOTH",
"148 372 OFFCURVE",
"180 294 OFFCURVE",
"260 294 CURVE SMOOTH",
"280 294 OFFCURVE",
"309 299 OFFCURVE"
);
},
{
closed = 1;
nodes = (
"70 22 CURVE",
"175 62 OFFCURVE",
"285 136 OFFCURVE",
"323 275 CURVE",
"293 253 OFFCURVE",
"254 240 OFFCURVE",
"224 240 CURVE SMOOTH",
"106 240 OFFCURVE",
"40 327 OFFCURVE",
"40 435 CURVE SMOOTH",
"40 549 OFFCURVE",
"138 646 OFFCURVE",
"248 646 CURVE SMOOTH",
"364 646 OFFCURVE",
"447 528 OFFCURVE",
"447 409 CURVE",
"447 303 OFFCURVE",
"403 208 OFFCURVE",
"342 142 CURVE SMOOTH",
"264 58 OFFCURVE",
"156 10 OFFCURVE",
"80 -6 CURVE",
"72 -3 OFFCURVE",
"69 14 OFFCURVE"
);
}
);
width = 487;
}
);
unicode = 0039;
userData = {
com.fontlab.hintData = {
hhints = (
{
position = -6;
width = 28;
},
{
position = 240;
width = 54;
},
{
position = 608;
width = 38;
}
);
vhints = (
{
position = 40;
width = 108;
},
{
position = 339;
width = 108;
}
);
};
};
},
{
glyphname = uni00B9;
lastChange = "2017-07-12 19:24:35 +0000";
layers = (
{
layerId = "7ECBB128-A556-4919-8826-F9D641050EDE";
paths = (
{
closed = 1;
nodes = (
"117 514 LINE SMOOTH",
"117 550 OFFCURVE",
"110 564 OFFCURVE",
"98 564 CURVE SMOOTH",
"88 564 OFFCURVE",
"64 554 OFFCURVE",
"48 548 CURVE",
"42 550 OFFCURVE",
"38 559 OFFCURVE",
"38 566 CURVE SMOOTH",
"38 568 OFFCURVE",
"38 573 OFFCURVE",
"40 574 CURVE",
"128 611 OFFCURVE",
"190 646 OFFCURVE",
"192 646 CURVE SMOOTH",
"194 646 LINE SMOOTH",
"199 646 OFFCURVE",
"207 628 OFFCURVE",
"208 625 CURVE",
"206 619 OFFCURVE",
"197 581 OFFCURVE",
"197 542 CURVE SMOOTH",
"197 343 LINE SMOOTH",
"197 324 OFFCURVE",
"199 304 OFFCURVE",
"206 292 CURVE SMOOTH",
"212 284 OFFCURVE",
"250 278 OFFCURVE",
"256 278 CURVE",
"258 278 OFFCURVE",
"258 254 OFFCURVE",
"256 252 CURVE",
"224 253 OFFCURVE",
"190 256 OFFCURVE",
"158 256 CURVE SMOOTH",
"126 256 OFFCURVE",
"89 253 OFFCURVE",
"57 252 CURVE",
"53 255 OFFCURVE",
"53 278 OFFCURVE",
"57 278 CURVE",
"67 278 OFFCURVE",
"104 284 OFFCURVE",
"109 292 CURVE SMOOTH",
"114 302 OFFCURVE",
"117 332 OFFCURVE",
"117 342 CURVE SMOOTH"
);
}
);
width = 291;
}
);
unicode = 00B9;
userData = {
com.fontlab.hintData = {
hhints = (
{
position = 252;
width = 26;
},
{
position = 626;
width = 20;
}
);
vhints = (
{
position = 117;
width = 80;
}
);
};
};
},
{
glyphname = uni00B2;
lastChange = "2017-07-12 19:24:35 +0000";
layers = (
{
layerId = "7ECBB128-A556-4919-8826-F9D641050EDE";
paths = (
{
closed = 1;
nodes = (
"315 371 CURVE",
"306 342 OFFCURVE",
"286 276 OFFCURVE",
"277 254 CURVE",
"48 254 LINE",
"44 256 OFFCURVE",
"38 263 OFFCURVE",
"38 267 CURVE",
"82 315 OFFCURVE",
"123 356 OFFCURVE",
"168 414 CURVE SMOOTH",
"199 455 OFFCURVE",
"215 491 OFFCURVE",
"215 528 CURVE SMOOTH",
"215 569 OFFCURVE",
"188 596 OFFCURVE",
"150 596 CURVE SMOOTH",
"106 596 OFFCURVE",
"83 560 OFFCURVE",
"71 546 CURVE",
"67 544 OFFCURVE",
"55 554 OFFCURVE",
"55 562 CURVE",
"72 594 OFFCURVE",
"120 645 OFFCURVE",
"178 645 CURVE SMOOTH",
"248 645 OFFCURVE",
"295 605 OFFCURVE",
"295 539 CURVE SMOOTH",
"295 495 OFFCURVE",
"266 457 OFFCURVE",
"232 421 CURVE SMOOTH",
"204 391 OFFCURVE",
"164 355 OFFCURVE",
"122 317 CURVE",
"238 317 LINE SMOOTH",
"274 317 OFFCURVE",
"285 356 OFFCURVE",
"293 372 CURVE SMOOTH",
"294 374 OFFCURVE",
"297 376 OFFCURVE",
"301 376 CURVE SMOOTH",
"305 376 OFFCURVE",
"312 374 OFFCURVE"
);
}
);
width = 354;
}
);
unicode = 00B2;
userData = {
com.fontlab.hintData = {
hhints = (
{
position = 254;
width = 63;
},
{
position = 596;
width = 49;
}
);
vhints = (
{
position = 215;
width = 80;
},
{
position = 293;
width = 22;
}
);
};
};
},
{
glyphname = uni00B3;
lastChange = "2017-07-12 19:24:35 +0000";
layers = (
{
layerId = "7ECBB128-A556-4919-8826-F9D641050EDE";
paths = (
{
closed = 1;
nodes = (
"171 644 CURVE SMOOTH",
"210 644 OFFCURVE",
"262 620 OFFCURVE",
"262 564 CURVE SMOOTH",
"262 512 OFFCURVE",
"219 489 OFFCURVE",
"197 482 CURVE",
"220 482 OFFCURVE",
"292 452 OFFCURVE",
"292 382 CURVE SMOOTH",
"292 294 OFFCURVE",
"205 247 OFFCURVE",
"123 247 CURVE SMOOTH",
"92 247 OFFCURVE",
"59 255 OFFCURVE",
"48 265 CURVE",
"46 268 OFFCURVE",
"37 279 OFFCURVE",
"37 290 CURVE SMOOTH",
"37 308 OFFCURVE",
"51 324 OFFCURVE",
"69 324 CURVE SMOOTH",
"86 324 OFFCURVE",
"95 308 OFFCURVE",
"107 294 CURVE SMOOTH",
"117 281 OFFCURVE",
"133 275 OFFCURVE",
"149 275 CURVE SMOOTH",
"189 275 OFFCURVE",
"215 303 OFFCURVE",
"215 361 CURVE SMOOTH",
"215 409 OFFCURVE",
"182 448 OFFCURVE",
"143 448 CURVE SMOOTH",
"132 448 OFFCURVE",
"115 445 OFFCURVE",
"107 443 CURVE",
"105 446 OFFCURVE",
"102 451 OFFCURVE",
"102 456 CURVE SMOOTH",
"102 459 OFFCURVE",
"102 465 OFFCURVE",
"103 467 CURVE",
"143 474 OFFCURVE",
"194 497 OFFCURVE",
"194 547 CURVE SMOOTH",
"194 577 OFFCURVE",
"171 602 OFFCURVE",
"139 602 CURVE SMOOTH",
"104 602 OFFCURVE",
"76 572 OFFCURVE",
"71 566 CURVE",
"67 568 OFFCURVE",
"58 577 OFFCURVE",
"60 583 CURVE",
"78 609 OFFCURVE",
"121 644 OFFCURVE"
);
}
);
width = 328;
}
);
unicode = 00B3;
userData = {
com.fontlab.hintData = {
hhints = (
{
position = 247;
width = 28;
},
{
position = 443;
width = 24;
},
{
position = 602;
width = 42;
}
);
vhints = (
{
position = 194;
width = 68;
},
{
position = 215;
width = 77;
}
);
};
};
},
{
glyphname = fraction;
lastChange = "2017-07-12 19:24:35 +0000";
layers = (
{
layerId = "7ECBB128-A556-4919-8826-F9D641050EDE";
paths = (
{
closed = 1;
nodes = (
"493 721 CURVE",
"74 14 LINE SMOOTH",
"70 7 OFFCURVE",
"63 -2 OFFCURVE",
"54 -2 CURVE SMOOTH",
"33 -2 OFFCURVE",
"23 10 OFFCURVE",
"23 10 CURVE",
"442 717 LINE SMOOTH",
"445 723 OFFCURVE",
"452 731 OFFCURVE",
"458 731 CURVE SMOOTH",
"474 731 OFFCURVE",
"489 724 OFFCURVE"
);
}
);
width = 516;
}
);
unicode = 2044;
userData = {
com.fontlab.hintData = {
hhints = (
{
position = -2;
width = 21;
}
);
};
};
},
{
glyphname = onehalf;
lastChange = "2017-07-12 19:24:35 +0000";
layers = (
{
layerId = "7ECBB128-A556-4919-8826-F9D641050EDE";
paths = (
{
closed = 1;
nodes = (
"578 389 CURVE SMOOTH",
"648 389 OFFCURVE",
"696 350 OFFCURVE",
"696 284 CURVE SMOOTH",
"696 240 OFFCURVE",
"666 202 OFFCURVE",
"632 166 CURVE SMOOTH",
"604 136 OFFCURVE",
"564 99 OFFCURVE",
"522 61 CURVE",
"638 61 LINE SMOOTH",
"674 61 OFFCURVE",
"685 100 OFFCURVE",
"693 116 CURVE SMOOTH",
"694 118 OFFCURVE",
"697 120 OFFCURVE",
"701 120 CURVE SMOOTH",
"705 120 OFFCURVE",
"712 119 OFFCURVE",
"715 116 CURVE",
"706 87 OFFCURVE",
"687 20 OFFCURVE",
"678 -2 CURVE",
"448 -2 LINE",
"444 0 OFFCURVE",
"438 8 OFFCURVE",
"438 12 CURVE",
"481 59 OFFCURVE",
"520 96 OFFCURVE",
"564 152 CURVE SMOOTH",
"598 195 OFFCURVE",
"616 233 OFFCURVE",
"616 272 CURVE SMOOTH",
"616 313 OFFCURVE",
"588 340 OFFCURVE",
"550 340 CURVE SMOOTH",
"506 340 OFFCURVE",
"484 305 OFFCURVE",
"472 291 CURVE",
"468 289 OFFCURVE",
"455 298 OFFCURVE",
"455 306 CURVE",
"472 338 OFFCURVE",
"520 389 OFFCURVE"
);
},
{
closed = 1;
nodes = (
"186 535 CURVE SMOOTH",
"186 341 LINE SMOOTH",
"186 322 OFFCURVE",
"188 300 OFFCURVE",
"194 289 CURVE SMOOTH",
"199 281 OFFCURVE",
"237 276 OFFCURVE",
"243 276 CURVE",
"247 274 OFFCURVE",
"245 254 OFFCURVE",
"244 252 CURVE",
"212 253 OFFCURVE",
"182 255 OFFCURVE",
"150 255 CURVE SMOOTH",
"118 255 OFFCURVE",
"86 253 OFFCURVE",
"54 252 CURVE",
"50 255 OFFCURVE",
"50 274 OFFCURVE",
"54 276 CURVE",
"64 276 OFFCURVE",
"97 282 OFFCURVE",
"102 290 CURVE SMOOTH",
"107 300 OFFCURVE",
"112 330 OFFCURVE",
"112 340 CURVE SMOOTH",
"112 516 LINE SMOOTH",
"112 539 OFFCURVE",
"105 556 OFFCURVE",
"94 556 CURVE SMOOTH",
"84 556 OFFCURVE",
"63 547 OFFCURVE",
"47 541 CURVE",
"41 543 OFFCURVE",
"36 558 OFFCURVE",
"36 564 CURVE",
"81 585 OFFCURVE",
"138 615 OFFCURVE",
"182 640 CURVE",
"188 636 OFFCURVE",
"196 627 OFFCURVE",
"196 622 CURVE",
"194 616 OFFCURVE",
"186 574 OFFCURVE"
);
},
{
closed = 1;
nodes = (
"572 656 CURVE",
"227 -4 LINE SMOOTH",
"224 -10 OFFCURVE",
"210 -23 OFFCURVE",
"193 -23 CURVE SMOOTH",
"180 -23 OFFCURVE",
"178 -14 OFFCURVE",
"178 -14 CURVE",
"526 650 LINE",
"530 656 OFFCURVE",
"542 664 OFFCURVE",
"559 664 CURVE SMOOTH",
"566 664 OFFCURVE",
"571 660 OFFCURVE"
);
}
);
width = 749;
}
);
unicode = 00BD;
userData = {
com.fontlab.hintData = {
hhints = (
{
position = -2;
width = 63;
},
{
position = 252;
width = 24;
},
{
position = 340;
width = 49;
},
{
position = 620;
width = 20;
},
{
position = 644;
width = 20;
}
);
vhints = (
{
position = 112;
width = 74;
},
{
position = 616;
width = 80;
}
);
};
};
},
{
glyphname = onequarter;
lastChange = "2017-07-12 19:24:35 +0000";
layers = (
{
layerId = "7ECBB128-A556-4919-8826-F9D641050EDE";
paths = (
{
closed = 1;
nodes = (
"627 396 CURVE SMOOTH",
"632 396 OFFCURVE",
"642 389 OFFCURVE",
"642 381 CURVE",
"642 333 OFFCURVE",
"642 188 OFFCURVE",
"642 142 CURVE",
"646 142 OFFCURVE",
"666 142 OFFCURVE",
"671 142 CURVE",
"682 132 OFFCURVE",
"686 115 OFFCURVE",
"679 99 CURVE",
"667 99 OFFCURVE",
"646 99 OFFCURVE",
"643 99 CURVE",
"643 1 LINE",
"642 0 OFFCURVE",
"626 -3 OFFCURVE",
"605 -3 CURVE SMOOTH",
"587 -3 OFFCURVE",
"571 0 OFFCURVE",
"569 4 CURVE",
"569 99 LINE",
"409 99 LINE",
"404 101 OFFCURVE",
"399 106 OFFCURVE",
"399 116 CURVE",
"437 161 OFFCURVE",
"579 346 OFFCURVE",
"611 386 CURVE",
"615 391 OFFCURVE",
"621 396 OFFCURVE"
);
},
{
closed = 1;
nodes = (
"569 145 CURVE",
"569 167 OFFCURVE",
"569 280 OFFCURVE",
"569 284 CURVE",
"537 244 OFFCURVE",
"489 181 OFFCURVE",
"461 145 CURVE",
"462 145 OFFCURVE",
"549 145 OFFCURVE"
);
},
{
closed = 1;
nodes = (
"185 535 CURVE SMOOTH",
"185 341 LINE SMOOTH",
"185 322 OFFCURVE",
"189 300 OFFCURVE",
"195 289 CURVE SMOOTH",
"200 281 OFFCURVE",
"237 276 OFFCURVE",
"243 276 CURVE",
"247 274 OFFCURVE",
"244 254 OFFCURVE",
"243 252 CURVE",
"211 253 OFFCURVE",
"183 255 OFFCURVE",
"151 255 CURVE SMOOTH",
"119 255 OFFCURVE",
"85 253 OFFCURVE",
"53 252 CURVE",
"49 255 OFFCURVE",
"49 274 OFFCURVE",
"53 276 CURVE",
"63 276 OFFCURVE",
"98 282 OFFCURVE",
"103 290 CURVE SMOOTH",
"108 300 OFFCURVE",
"111 330 OFFCURVE",
"111 340 CURVE SMOOTH",
"111 516 LINE SMOOTH",
"111 539 OFFCURVE",
"104 556 OFFCURVE",
"93 556 CURVE SMOOTH",
"83 556 OFFCURVE",
"63 547 OFFCURVE",
"47 541 CURVE",
"41 543 OFFCURVE",
"35 560 OFFCURVE",
"35 564 CURVE",
"80 585 OFFCURVE",
"137 615 OFFCURVE",
"181 640 CURVE",
"185 639 OFFCURVE",
"196 627 OFFCURVE",
"196 622 CURVE",
"194 616 OFFCURVE",
"185 574 OFFCURVE"
);
},
{
closed = 1;
nodes = (
"205 -23 CURVE SMOOTH",
"192 -23 OFFCURVE",
"190 -14 OFFCURVE",
"190 -14 CURVE",
"538 650 LINE",
"542 656 OFFCURVE",
"554 664 OFFCURVE",
"571 664 CURVE SMOOTH",
"578 664 OFFCURVE",
"583 660 OFFCURVE",
"584 656 CURVE",
"239 -4 LINE SMOOTH",
"236 -10 OFFCURVE",
"222 -23 OFFCURVE"
);
}
);
width = 718;
}
);
unicode = 00BC;
userData = {
com.fontlab.hintData = {
hhints = (
{
position = -3;
width = 21;
},
{
position = 99;
width = 46;
},
{
position = 252;
width = 24;
},
{
position = 620;
width = 20;
},
{
position = 644;
width = 20;
}
);
vhints = (
{
position = 111;
width = 74;
},
{
position = 569;
width = 73;
}
);
};
};
},
{
glyphname = threequarters;
lastChange = "2017-07-12 19:24:35 +0000";
layers = (
{
layerId = "7ECBB128-A556-4919-8826-F9D641050EDE";
paths = (
{
closed = 1;
nodes = (
"626 396 CURVE SMOOTH",
"631 396 OFFCURVE",
"641 389 OFFCURVE",
"641 381 CURVE",
"641 333 OFFCURVE",
"641 188 OFFCURVE",
"641 142 CURVE",
"645 142 OFFCURVE",
"665 142 OFFCURVE",
"670 142 CURVE",
"681 132 OFFCURVE",
"685 115 OFFCURVE",
"678 99 CURVE",
"666 99 OFFCURVE",
"645 99 OFFCURVE",
"642 99 CURVE",
"642 1 LINE",
"641 0 OFFCURVE",
"625 -3 OFFCURVE",
"604 -3 CURVE SMOOTH",
"586 -3 OFFCURVE",
"570 0 OFFCURVE",
"568 4 CURVE",
"568 99 LINE",
"408 99 LINE",
"403 101 OFFCURVE",
"398 106 OFFCURVE",
"398 116 CURVE",
"436 161 OFFCURVE",
"578 346 OFFCURVE",
"610 386 CURVE",
"614 391 OFFCURVE",
"620 396 OFFCURVE"
);
},
{
closed = 1;
nodes = (
"568 145 CURVE",
"568 167 OFFCURVE",
"568 280 OFFCURVE",
"568 284 CURVE",
"536 244 OFFCURVE",
"488 181 OFFCURVE",
"460 145 CURVE",
"461 145 OFFCURVE",
"548 145 OFFCURVE"
);
},
{
closed = 1;
nodes = (
"166 644 CURVE SMOOTH",
"205 644 OFFCURVE",
"258 620 OFFCURVE",
"258 564 CURVE SMOOTH",
"258 512 OFFCURVE",
"214 489 OFFCURVE",
"192 482 CURVE",
"215 482 OFFCURVE",
"289 452 OFFCURVE",
"289 382 CURVE SMOOTH",
"289 294 OFFCURVE",
"201 247 OFFCURVE",
"119 247 CURVE SMOOTH",
"88 247 OFFCURVE",
"55 255 OFFCURVE",
"44 265 CURVE",
"42 268 OFFCURVE",
"34 279 OFFCURVE",
"34 290 CURVE SMOOTH",
"34 308 OFFCURVE",
"47 324 OFFCURVE",
"65 324 CURVE SMOOTH",
"82 324 OFFCURVE",
"91 308 OFFCURVE",
"103 294 CURVE SMOOTH",
"113 281 OFFCURVE",
"129 275 OFFCURVE",
"145 275 CURVE SMOOTH",
"185 275 OFFCURVE",
"212 303 OFFCURVE",
"212 361 CURVE SMOOTH",
"212 409 OFFCURVE",
"179 448 OFFCURVE",
"140 448 CURVE SMOOTH",
"129 448 OFFCURVE",
"112 445 OFFCURVE",
"104 443 CURVE",
"102 446 OFFCURVE",
"98 451 OFFCURVE",
"98 456 CURVE SMOOTH",
"98 459 OFFCURVE",
"98 465 OFFCURVE",
"99 467 CURVE",
"139 474 OFFCURVE",
"190 497 OFFCURVE",
"190 547 CURVE SMOOTH",
"190 577 OFFCURVE",
"166 602 OFFCURVE",
"134 602 CURVE SMOOTH",
"99 602 OFFCURVE",
"73 572 OFFCURVE",
"68 566 CURVE",
"64 568 OFFCURVE",
"54 577 OFFCURVE",
"56 583 CURVE",
"74 609 OFFCURVE",
"116 644 OFFCURVE"
);
},
{
closed = 1;
nodes = (
"591 656 CURVE",
"246 -4 LINE SMOOTH",
"243 -10 OFFCURVE",
"228 -23 OFFCURVE",
"211 -23 CURVE SMOOTH",
"198 -23 OFFCURVE",
"197 -14 OFFCURVE",
"197 -14 CURVE",
"544 650 LINE",
"548 656 OFFCURVE",
"561 664 OFFCURVE",
"578 664 CURVE SMOOTH",
"585 664 OFFCURVE",
"590 660 OFFCURVE"
);
}
);
width = 719;
}
);
unicode = 00BE;
userData = {
com.fontlab.hintData = {
hhints = (
{
position = -3;
width = 21;
},
{
position = 99;
width = 46;
},
{
position = 247;
width = 28;
},
{
position = 443;
width = 24;
},
{
position = 602;
width = 42;
},
{
position = 644;
width = 20;
}
);
vhints = (
{
position = 190;
width = 68;
},
{
position = 212;
width = 77;
},
{
position = 568;
width = 73;
}
);
};
};
},
{
glyphname = asterisk;
lastChange = "2017-07-12 19:24:35 +0000";
layers = (
{
layerId = "7ECBB128-A556-4919-8826-F9D641050EDE";
paths = (
{
closed = 1;
nodes = (
"295 616 CURVE SMOOTH",
"314 638 OFFCURVE",
"343 640 OFFCURVE",
"358 626 CURVE SMOOTH",
"374 610 OFFCURVE",
"374 583 OFFCURVE",
"354 563 CURVE SMOOTH",
"320 529 OFFCURVE",
"285 533 OFFCURVE",
"257 506 CURVE",
"257 506 OFFCURVE",
"251 497 OFFCURVE",
"251 492 CURVE SMOOTH",
"251 488 OFFCURVE",
"255 485 OFFCURVE",
"260 483 CURVE SMOOTH",
"295 467 OFFCURVE",
"323 478 OFFCURVE",
"367 458 CURVE SMOOTH",
"393 447 OFFCURVE",
"405 421 OFFCURVE",
"396 402 CURVE SMOOTH",
"386 382 OFFCURVE",
"361 374 OFFCURVE",
"335 386 CURVE SMOOTH",
"292 407 OFFCURVE",
"284 442 OFFCURVE",
"250 460 CURVE",
"250 460 OFFCURVE",
"240 465 OFFCURVE",
"236 463 CURVE SMOOTH",
"232 461 OFFCURVE",
"232 458 OFFCURVE",
"231 452 CURVE SMOOTH",
"227 414 OFFCURVE",
"245 392 OFFCURVE",
"240 344 CURVE SMOOTH",
"237 316 OFFCURVE",
"216 298 OFFCURVE",
"196 300 CURVE SMOOTH",
"174 304 OFFCURVE",
"158 324 OFFCURVE",
"162 352 CURVE SMOOTH",
"169 400 OFFCURVE",
"199 418 OFFCURVE",
"206 456 CURVE",
"206 456 OFFCURVE",
"208 466 OFFCURVE",
"204 470 CURVE SMOOTH",
"202 473 OFFCURVE",
"199 473 OFFCURVE",
"193 472 CURVE SMOOTH",
"156 464 OFFCURVE",
"139 439 OFFCURVE",
"92 429 CURVE SMOOTH",
"64 423 OFFCURVE",
"40 438 OFFCURVE",
"36 458 CURVE SMOOTH",
"32 480 OFFCURVE",
"47 501 OFFCURVE",
"75 506 CURVE SMOOTH",
"122 514 OFFCURVE",
"149 491 OFFCURVE",
"188 496 CURVE",
"188 496 OFFCURVE",
"198 498 OFFCURVE",
"200 503 CURVE SMOOTH",
"202 507 OFFCURVE",
"200 511 OFFCURVE",
"197 516 CURVE SMOOTH",
"178 549 OFFCURVE",
"150 556 OFFCURVE",
"125 598 CURVE SMOOTH",
"111 622 OFFCURVE",
"117 650 OFFCURVE",
"135 660 CURVE SMOOTH",
"155 670 OFFCURVE",
"179 663 OFFCURVE",
"193 638 CURVE SMOOTH",
"215 595 OFFCURVE",
"201 563 OFFCURVE",
"218 528 CURVE",
"218 528 OFFCURVE",
"223 518 OFFCURVE",
"228 517 CURVE SMOOTH",
"232 517 OFFCURVE",
"235 518 OFFCURVE",
"239 522 CURVE SMOOTH",
"265 550 OFFCURVE",
"263 580 OFFCURVE"
);
}
);
width = 443;
}
);
unicode = 002A;
userData = {
com.fontlab.hintData = {
hhints = (
{
position = 386;
width = 72;
},
{
position = 429;
width = 77;
}
);
vhints = (
{
position = 162;
width = 78;
}
);
};
};
},
{
glyphname = backslash;
lastChange = "2017-07-12 19:24:35 +0000";
layers = (
{
layerId = "7ECBB128-A556-4919-8826-F9D641050EDE";
paths = (
{
closed = 1;
nodes = (
"29 752 CURVE",
"33 757 OFFCURVE",
"40 759 OFFCURVE",
"48 759 CURVE SMOOTH",
"66 759 OFFCURVE",
"78 751 OFFCURVE",
"81 743 CURVE SMOOTH",
"81 743 OFFCURVE",
"379 -16 OFFCURVE",
"379 -22 CURVE",
"378 -26 OFFCURVE",
"366 -32 OFFCURVE",
"353 -32 CURVE SMOOTH",
"345 -32 OFFCURVE",
"332 -26 OFFCURVE",
"328 -16 CURVE SMOOTH",
"214 276 OFFCURVE",
"119 524 OFFCURVE"
);
}
);
width = 410;
}
);
unicode = 005C;
},
{
glyphname = periodcentered;
lastChange = "2017-07-12 19:24:35 +0000";
layers = (
{
layerId = "7ECBB128-A556-4919-8826-F9D641050EDE";
paths = (
{
closed = 1;
nodes = (
"51 264 CURVE SMOOTH",
"51 300 OFFCURVE",
"81 330 OFFCURVE",
"117 330 CURVE",
"153 330 OFFCURVE",
"183 300 OFFCURVE",
"183 264 CURVE SMOOTH",
"183 228 OFFCURVE",
"154 197 OFFCURVE",
"118 197 CURVE",
"81 197 OFFCURVE",
"51 228 OFFCURVE"
);
}
);
width = 234;
}
);
unicode = 00B7;
userData = {
com.fontlab.hintData = {
hhints = (
{
position = 197;
width = 133;
}
);
vhints = (
{
position = 51;
width = 132;
}
);
};
};
},
{
glyphname = bullet;
lastChange = "2017-07-12 19:24:35 +0000";
layers = (
{
layerId = "7ECBB128-A556-4919-8826-F9D641050EDE";
paths = (
{
closed = 1;
nodes = (
"38 263 CURVE SMOOTH",
"38 331 OFFCURVE",
"94 387 OFFCURVE",
"162 387 CURVE SMOOTH",
"230 387 OFFCURVE",
"285 331 OFFCURVE",
"285 263 CURVE SMOOTH",
"285 195 OFFCURVE",
"230 139 OFFCURVE",
"162 139 CURVE SMOOTH",
"94 139 OFFCURVE",
"38 195 OFFCURVE"
);
}
);
width = 324;
}
);
unicode = 2022;
userData = {
com.fontlab.hintData = {
hhints = (
{
position = 139;
width = 248;
}
);
vhints = (
{
position = 38;
width = 247;
}
);
};
};
},
{
glyphname = colon;
lastChange = "2017-07-12 19:24:35 +0000";
layers = (
{
layerId = "7ECBB128-A556-4919-8826-F9D641050EDE";
paths = (
{
closed = 1;
nodes = (
"50 48 CURVE SMOOTH",
"50 83 OFFCURVE",
"80 111 OFFCURVE",
"116 111 CURVE",
"152 111 OFFCURVE",
"180 81 OFFCURVE",
"180 46 CURVE SMOOTH",
"180 11 OFFCURVE",
"152 -19 OFFCURVE",
"116 -19 CURVE",
"80 -19 OFFCURVE",
"50 12 OFFCURVE"
);
},
{
closed = 1;
nodes = (
"50 378 CURVE SMOOTH",
"50 413 OFFCURVE",
"80 441 OFFCURVE",
"116 441 CURVE",
"152 441 OFFCURVE",
"180 411 OFFCURVE",
"180 376 CURVE SMOOTH",
"180 341 OFFCURVE",
"152 311 OFFCURVE",
"116 311 CURVE",
"80 311 OFFCURVE",
"50 342 OFFCURVE"
);
}
);
width = 230;
}
);
unicode = 003A;
userData = {
com.fontlab.hintData = {
hhints = (
{
position = -19;
width = 130;
},
{
position = 311;
width = 130;
}
);
vhints = (
{
position = 50;
width = 130;
}
);
};
};
},
{
glyphname = comma;
lastChange = "2017-07-12 19:24:35 +0000";
layers = (
{
layerId = "7ECBB128-A556-4919-8826-F9D641050EDE";
paths = (
{
closed = 1;
nodes = (
"113 131 CURVE SMOOTH",
"125 131 OFFCURVE",
"138 126 OFFCURVE",
"147 120 CURVE",
"155 106 OFFCURVE",
"163 83 OFFCURVE",
"163 52 CURVE SMOOTH",
"163 -24 OFFCURVE",
"96 -116 OFFCURVE",
"36 -148 CURVE",
"27 -146 OFFCURVE",
"18 -132 OFFCURVE",
"18 -126 CURVE",
"38 -112 OFFCURVE",
"85 -73 OFFCURVE",
"85 -17 CURVE SMOOTH",
"85 16 OFFCURVE",
"45 19 OFFCURVE",
"45 71 CURVE SMOOTH",
"45 89 OFFCURVE",
"64 131 OFFCURVE"
);
}
);
width = 213;
}
);
unicode = 002C;
userData = {
com.fontlab.hintData = {
hhints = (
{
position = -148;
width = 279;
}
);
vhints = (
{
position = 85;
width = 78;
}
);
};
};
},
{
glyphname = ellipsis;
lastChange = "2017-07-12 19:24:35 +0000";
layers = (
{
layerId = "7ECBB128-A556-4919-8826-F9D641050EDE";
paths = (
{
closed = 1;
nodes = (
"46 56 CURVE SMOOTH",
"46 91 OFFCURVE",
"76 119 OFFCURVE",
"112 119 CURVE",
"148 119 OFFCURVE",
"176 89 OFFCURVE",
"176 54 CURVE SMOOTH",
"176 19 OFFCURVE",
"148 -11 OFFCURVE",
"112 -11 CURVE",
"76 -11 OFFCURVE",
"46 20 OFFCURVE"
);
},
{
closed = 1;
nodes = (
"634 56 CURVE SMOOTH",
"634 91 OFFCURVE",
"664 119 OFFCURVE",
"700 119 CURVE",
"736 119 OFFCURVE",
"764 89 OFFCURVE",
"764 54 CURVE SMOOTH",
"764 19 OFFCURVE",
"736 -11 OFFCURVE",
"700 -11 CURVE",
"664 -11 OFFCURVE",
"634 20 OFFCURVE"
);
},
{
closed = 1;
nodes = (
"340 56 CURVE SMOOTH",
"340 91 OFFCURVE",
"370 119 OFFCURVE",
"406 119 CURVE",
"442 119 OFFCURVE",
"470 89 OFFCURVE",
"470 54 CURVE SMOOTH",
"470 19 OFFCURVE",
"442 -11 OFFCURVE",
"406 -11 CURVE",
"370 -11 OFFCURVE",
"340 20 OFFCURVE"
);
}
);
width = 854;
}
);
unicode = 2026;
userData = {
com.fontlab.hintData = {
hhints = (
{
position = -11;
width = 130;
}
);
vhints = (
{
position = 46;
width = 130;
},
{
position = 340;
width = 130;
},
{
position = 634;
width = 130;
}
);
};
};
},
{
glyphname = exclam;
lastChange = "2017-07-12 19:24:35 +0000";
layers = (
{
layerId = "7ECBB128-A556-4919-8826-F9D641050EDE";
paths = (
{
closed = 1;
nodes = (
"62 56 CURVE SMOOTH",
"62 91 OFFCURVE",
"91 119 OFFCURVE",
"127 119 CURVE",
"163 119 OFFCURVE",
"192 89 OFFCURVE",
"192 54 CURVE SMOOTH",
"192 19 OFFCURVE",
"164 -11 OFFCURVE",
"128 -11 CURVE",
"92 -11 OFFCURVE",
"62 20 OFFCURVE"
);
},
{
closed = 1;
nodes = (
"131 642 CURVE SMOOTH",
"162 642 OFFCURVE",
"184 613 OFFCURVE",
"184 579 CURVE SMOOTH",
"184 551 OFFCURVE",
"163 365 OFFCURVE",
"146 196 CURVE",
"142 186 OFFCURVE",
"138 179 OFFCURVE",
"128 177 CURVE",
"123 178 OFFCURVE",
"114 183 OFFCURVE",
"110 191 CURVE",
"98 305 OFFCURVE",
"73 529 OFFCURVE",
"73 580 CURVE SMOOTH",
"73 615 OFFCURVE",
"97 642 OFFCURVE"
);
}
);
width = 255;
}
);
unicode = 0021;
userData = {
com.fontlab.hintData = {
hhints = (
{
position = -11;
width = 130;
},
{
position = 622;
width = 20;
}
);
vhints = (
{
position = 62;
width = 130;
},
{
position = 73;
width = 111;
}
);
};
};
},
{
glyphname = exclamdown;
lastChange = "2017-07-12 19:24:35 +0000";
layers = (
{
layerId = "7ECBB128-A556-4919-8826-F9D641050EDE";
paths = (
{
closed = 1;
nodes = (
"51 372 CURVE SMOOTH",
"51 407 OFFCURVE",
"79 436 OFFCURVE",
"115 436 CURVE",
"151 436 OFFCURVE",
"181 406 OFFCURVE",
"181 370 CURVE SMOOTH",
"181 335 OFFCURVE",
"151 306 OFFCURVE",
"115 306 CURVE",
"79 306 OFFCURVE",
"51 337 OFFCURVE"
);
},
{
closed = 1;
nodes = (
"111 -216 CURVE SMOOTH",
"80 -216 OFFCURVE",
"59 -188 OFFCURVE",
"59 -154 CURVE SMOOTH",
"59 -126 OFFCURVE",
"80 60 OFFCURVE",
"97 229 CURVE",
"101 239 OFFCURVE",
"105 246 OFFCURVE",
"115 248 CURVE",
"120 247 OFFCURVE",
"129 242 OFFCURVE",
"133 234 CURVE",
"145 120 OFFCURVE",
"170 -103 OFFCURVE",
"170 -154 CURVE SMOOTH",
"170 -189 OFFCURVE",
"145 -216 OFFCURVE"
);
}
);
width = 231;
}
);
unicode = 00A1;
userData = {
com.fontlab.hintData = {
hhints = (
{
position = 306;
width = 130;
}
);
vhints = (
{
position = 51;
width = 130;
},
{
position = 59;
width = 111;
}
);
};
};
},
{
glyphname = numbersign;
lastChange = "2017-07-12 19:24:35 +0000";
layers = (
{
layerId = "7ECBB128-A556-4919-8826-F9D641050EDE";
paths = (
{
closed = 1;
nodes = (
"328.218 221 LINE",
"394 221 LINE SMOOTH",
"408 221 OFFCURVE",
"397 169 OFFCURVE",
"384 163 CURVE",
"319.002 163 LINE",
"302 56 LINE SMOOTH",
"301 52 OFFCURVE",
"289 44 OFFCURVE",
"274 44 CURVE SMOOTH",
"264 44 OFFCURVE",
"263 48 OFFCURVE",
"263 48 CURVE",
"281.596 163 LINE",
"157.229 163 LINE",
"140 56 LINE SMOOTH",
"139 52 OFFCURVE",
"128 44 OFFCURVE",
"113 44 CURVE SMOOTH",
"103 44 OFFCURVE",
"102 48 OFFCURVE",
"102 48 CURVE",
"120.596 163 LINE",
"55 163 LINE SMOOTH",
"43 163 OFFCURVE",
"55 217 OFFCURVE",
"68 221 CURVE",
"129.974 221 LINE",
"151.481 354 LINE",
"83 354 LINE SMOOTH",
"71 354 OFFCURVE",
"82 408 OFFCURVE",
"95 412 CURVE",
"160.86 412 LINE",
"178 518 LINE SMOOTH",
"181 527 OFFCURVE",
"184 531 OFFCURVE",
"203 531 CURVE SMOOTH",
"212 531 OFFCURVE",
"213 530 OFFCURVE",
"216 528 CURVE SMOOTH",
"197.322 412 LINE",
"321.86 412 LINE",
"339 518 LINE SMOOTH",
"342 527 OFFCURVE",
"345 531 OFFCURVE",
"364 531 CURVE SMOOTH",
"373 531 OFFCURVE",
"374 530 OFFCURVE",
"377 528 CURVE SMOOTH",
"358.568 412 LINE",
"421 412 LINE SMOOTH",
"435 412 OFFCURVE",
"425 360 OFFCURVE",
"412 354 CURVE",
"349.352 354 LINE"
);
},
{
closed = 1;
nodes = (
"290.974 221 LINE",
"312.481 354 LINE",
"187.983 354 LINE",
"166.568 221 LINE"
);
}
);
width = 479;
}
);
unicode = 0023;
userData = {
com.fontlab.hintData = {
hhints = (
{
position = 163;
width = 58;
},
{
position = 354;
width = 58;
}
);
};
};
},
{
glyphname = onedotenleader;
lastChange = "2017-07-12 19:24:35 +0000";
layers = (
{
layerId = "7ECBB128-A556-4919-8826-F9D641050EDE";
paths = (
{
closed = 1;
nodes = (
"354 56 CURVE SMOOTH",
"354 91 OFFCURVE",
"384 119 OFFCURVE",
"420 119 CURVE",
"456 119 OFFCURVE",
"484 89 OFFCURVE",
"484 54 CURVE SMOOTH",
"484 19 OFFCURVE",
"456 -11 OFFCURVE",
"420 -11 CURVE",
"384 -11 OFFCURVE",
"354 20 OFFCURVE"
);
}
);
width = 854;
}
);
unicode = 2024;
userData = {
com.fontlab.hintData = {
hhints = (
{
position = -11;
width = 130;
}
);
vhints = (
{
position = 354;
width = 130;
}
);
};
};
},
{
glyphname = period;
lastChange = "2017-07-12 19:24:35 +0000";
layers = (
{
layerId = "7ECBB128-A556-4919-8826-F9D641050EDE";
paths = (
{
closed = 1;
nodes = (
"45 56 CURVE SMOOTH",
"45 91 OFFCURVE",
"75 119 OFFCURVE",
"111 119 CURVE",
"147 119 OFFCURVE",
"175 89 OFFCURVE",
"175 54 CURVE SMOOTH",
"175 19 OFFCURVE",
"147 -11 OFFCURVE",
"111 -11 CURVE",
"75 -11 OFFCURVE",
"45 20 OFFCURVE"
);
}
);
width = 221;
}
);
unicode = 002E;
userData = {
com.fontlab.hintData = {
hhints = (
{
position = -11;
width = 130;
}
);
vhints = (
{
position = 45;
width = 130;
}
);
};
};
},
{
glyphname = question;
lastChange = "2017-07-12 19:24:35 +0000";
layers = (
{
layerId = "7ECBB128-A556-4919-8826-F9D641050EDE";
paths = (
{
closed = 1;
nodes = (
"64 56 CURVE SMOOTH",
"64 92 OFFCURVE",
"94 119 OFFCURVE",
"128 119 CURVE SMOOTH",
"164 119 OFFCURVE",
"192 92 OFFCURVE",
"192 56 CURVE SMOOTH",
"192 20 OFFCURVE",
"165 -11 OFFCURVE",
"130 -11 CURVE SMOOTH",
"96 -11 OFFCURVE",
"64 18 OFFCURVE"
);
},
{
closed = 1;
nodes = (
"108 533 CURVE SMOOTH",
"82 533 OFFCURVE",
"54 558 OFFCURVE",
"54 591 CURVE SMOOTH",
"54 607 OFFCURVE",
"60 626 OFFCURVE",
"66 632 CURVE",
"78 638 OFFCURVE",
"101 644 OFFCURVE",
"136 644 CURVE SMOOTH",
"192 644 OFFCURVE",
"338 592 OFFCURVE",
"338 464 CURVE SMOOTH",
"338 386 OFFCURVE",
"288 348 OFFCURVE",
"224 310 CURVE SMOOTH",
"197 294 OFFCURVE",
"156 267 OFFCURVE",
"144 249 CURVE SMOOTH",
"136 236 OFFCURVE",
"138 209 OFFCURVE",
"138 193 CURVE",
"135 186 OFFCURVE",
"129 178 OFFCURVE",
"122 178 CURVE",
"116 179 OFFCURVE",
"108 184 OFFCURVE",
"104 189 CURVE",
"98 207 OFFCURVE",
"90 250 OFFCURVE",
"90 284 CURVE SMOOTH",
"90 350 OFFCURVE",
"137 380 OFFCURVE",
"173 404 CURVE SMOOTH",
"223 436 OFFCURVE",
"270 469 OFFCURVE",
"270 510 CURVE SMOOTH",
"270 546 OFFCURVE",
"243 574 OFFCURVE",
"206 574 CURVE SMOOTH",
"162 574 OFFCURVE",
"142 533 OFFCURVE"
);
}
);
width = 377;
}
);
unicode = 003F;
userData = {
com.fontlab.hintData = {
hhints = (
{
position = -11;
width = 130;
},
{
position = 574;
width = 70;
}
);
vhints = (
{
position = 64;
width = 128;
},
{
position = 104;
width = 34;
},
{
position = 270;
width = 68;
}
);
};
};
},
{
glyphname = questiondown;
lastChange = "2017-07-12 19:24:35 +0000";
layers = (
{
layerId = "7ECBB128-A556-4919-8826-F9D641050EDE";
paths = (
{
closed = 1;
nodes = (
"308 370 CURVE SMOOTH",
"308 334 OFFCURVE",
"279 307 OFFCURVE",
"245 307 CURVE SMOOTH",
"209 307 OFFCURVE",
"180 334 OFFCURVE",
"180 370 CURVE SMOOTH",
"180 406 OFFCURVE",
"208 437 OFFCURVE",
"243 437 CURVE SMOOTH",
"277 437 OFFCURVE",
"308 408 OFFCURVE"
);
},
{
closed = 1;
nodes = (
"269 237 CURVE",
"275 219 OFFCURVE",
"283 176 OFFCURVE",
"283 142 CURVE SMOOTH",
"283 76 OFFCURVE",
"236 46 OFFCURVE",
"200 22 CURVE SMOOTH",
"150 -10 OFFCURVE",
"104 -43 OFFCURVE",
"104 -84 CURVE SMOOTH",
"104 -120 OFFCURVE",
"130 -148 OFFCURVE",
"167 -148 CURVE SMOOTH",
"211 -148 OFFCURVE",
"231 -107 OFFCURVE",
"265 -107 CURVE SMOOTH",
"291 -107 OFFCURVE",
"319 -132 OFFCURVE",
"319 -165 CURVE SMOOTH",
"319 -181 OFFCURVE",
"313 -200 OFFCURVE",
"307 -206 CURVE",
"295 -212 OFFCURVE",
"272 -218 OFFCURVE",
"237 -218 CURVE SMOOTH",
"181 -218 OFFCURVE",
"36 -166 OFFCURVE",
"36 -38 CURVE SMOOTH",
"36 40 OFFCURVE",
"85 78 OFFCURVE",
"149 116 CURVE SMOOTH",
"176 132 OFFCURVE",
"217 159 OFFCURVE",
"229 177 CURVE SMOOTH",
"237 190 OFFCURVE",
"235 217 OFFCURVE",
"235 233 CURVE",
"238 240 OFFCURVE",
"244 248 OFFCURVE",
"251 248 CURVE",
"257 247 OFFCURVE",
"265 242 OFFCURVE"
);
}
);
width = 367;
}
);
unicode = 00BF;
userData = {
com.fontlab.hintData = {
hhints = (
{
position = -218;
width = 70;
},
{
position = 307;
width = 130;
}
);
vhints = (
{
position = 36;
width = 68;
},
{
position = 180;
width = 128;
},
{
position = 235;
width = 34;
}
);
};
};
},
{
glyphname = quotedbl;
lastChange = "2017-07-12 19:24:35 +0000";
layers = (
{
layerId = "7ECBB128-A556-4919-8826-F9D641050EDE";
paths = (
{
closed = 1;
nodes = (
"235 700 CURVE SMOOTH",
"248 700 OFFCURVE",
"256 696 OFFCURVE",
"264 685 CURVE",
"264 653 OFFCURVE",
"254 530 OFFCURVE",
"248 473 CURVE",
"244 467 OFFCURVE",
"234 456 OFFCURVE",
"226 452 CURVE",
"222 452 OFFCURVE",
"218 455 OFFCURVE",
"216 459 CURVE",
"193 537 OFFCURVE",
"178 593 OFFCURVE",
"178 623 CURVE SMOOTH",
"178 653 OFFCURVE",
"200 700 OFFCURVE"
);
},
{
closed = 1;
nodes = (
"95 700 CURVE SMOOTH",
"108 700 OFFCURVE",
"116 696 OFFCURVE",
"124 685 CURVE",
"124 653 OFFCURVE",
"114 530 OFFCURVE",
"108 473 CURVE",
"104 467 OFFCURVE",
"94 456 OFFCURVE",
"86 452 CURVE",
"82 452 OFFCURVE",
"78 455 OFFCURVE",
"76 459 CURVE",
"53 537 OFFCURVE",
"38 593 OFFCURVE",
"38 623 CURVE SMOOTH",
"38 653 OFFCURVE",
"60 700 OFFCURVE"
);
}
);
width = 307;
}
);
unicode = 0022;
userData = {
com.fontlab.hintData = {
hhints = (
{
position = 452;
width = 248;
}
);
vhints = (
{
position = 38;
width = 86;
},
{
position = 178;
width = 86;
}
);
};
};
},
